<?xml version="1.0" encoding="utf-8"?>
<!-- Generator: Adobe Illustrator 16.0.0, SVG Export Plug-In . SVG Version: 6.00 Build 0)  -->
<!DOCTYPE svg PUBLIC "-//W3C//DTD SVG 1.1//EN" "http://www.w3.org/Graphics/SVG/1.1/DTD/svg11.dtd">
<svg version="1.1" id="Calque_1" xmlns="http://www.w3.org/2000/svg" xmlns:xlink="http://www.w3.org/1999/xlink" x="0px" y="0px"
	 width="20px" height="19.999px" viewBox="0 0 20 19.999" enable-background="new 0 0 20 19.999" xml:space="preserve">
<g>
	<defs>
		<circle id="SVGID_1_" cx="10" cy="10" r="10"/>
	</defs>
	<clipPath id="SVGID_2_">
		<use xlink:href="#SVGID_1_"  overflow="visible"/>
	</clipPath>
	<g clip-path="url(#SVGID_2_)">
		<defs>
			<rect id="SVGID_3_" x="-5.716" y="-0.605" width="36.361" height="21.21"/>
		</defs>
		<clipPath id="SVGID_4_">
			<use xlink:href="#SVGID_3_"  overflow="visible"/>
		</clipPath>
		<rect x="-5.716" y="-0.605" clip-path="url(#SVGID_4_)" fill="#FFFFFF" width="36.361" height="21.21"/>
		<polygon clip-path="url(#SVGID_4_)" fill="#BE2138" points="18.63,7.063 30.645,0.338 30.645,-0.605 29.814,-0.605 16.116,7.063 
					"/>
		<polygon clip-path="url(#SVGID_4_)" fill="#BE2138" points="18.063,13.363 30.645,20.402 30.645,18.995 20.576,13.363 		"/>
		<polygon clip-path="url(#SVGID_4_)" fill="#BE2138" points="-5.716,1.011 5.046,7.063 7.561,7.063 -5.716,-0.4 		"/>
		<polygon clip-path="url(#SVGID_4_)" fill="#BE2138" points="6.992,13.363 -5.716,20.481 -5.716,20.604 -3.422,20.604 
			9.506,13.363 		"/>
		<polygon clip-path="url(#SVGID_4_)" fill="#2B3175" points="28.157,-0.605 15.426,-0.605 15.426,6.525 		"/>
		<polygon clip-path="url(#SVGID_4_)" fill="#2B3175" points="9.804,-0.605 -2.876,-0.605 9.804,6.525 		"/>
		<polygon clip-path="url(#SVGID_4_)" fill="#2B3175" points="30.645,7.063 30.645,2.197 22.009,7.063 		"/>
		<polygon clip-path="url(#SVGID_4_)" fill="#2B3175" points="30.645,18.175 30.645,13.363 22.009,13.363 		"/>
		<polygon clip-path="url(#SVGID_4_)" fill="#2B3175" points="-2.157,20.604 9.804,20.604 9.804,13.901 		"/>
		<polygon clip-path="url(#SVGID_4_)" fill="#2B3175" points="15.426,20.604 27.423,20.604 15.426,13.901 		"/>
		<polygon clip-path="url(#SVGID_4_)" fill="#2B3175" points="-5.716,13.363 -5.716,18.393 3.221,13.363 		"/>
		<polygon clip-path="url(#SVGID_4_)" fill="#2B3175" points="-5.716,7.063 3.221,7.063 -5.716,2.025 		"/>
		<polygon clip-path="url(#SVGID_4_)" fill="#BE2138" points="10.928,-0.605 10.928,8.323 -5.716,8.323 -5.716,12.104 
			10.928,12.104 10.928,20.604 14.302,20.604 14.302,12.104 30.645,12.104 30.645,8.323 14.302,8.323 14.302,-0.605 		"/>
	</g>
</g>
<g>
	<defs>
		<circle id="SVGID_5_" cx="9.863" cy="10.258" r="9.673"/>
	</defs>
	<clipPath id="SVGID_6_">
		<use xlink:href="#SVGID_5_"  overflow="visible"/>
	</clipPath>
</g>
</svg>
