<?xml version="1.0" encoding="utf-8"?>
<!-- Generator: Adobe Illustrator 16.0.0, SVG Export Plug-In . SVG Version: 6.00 Build 0)  -->
<!DOCTYPE svg PUBLIC "-//W3C//DTD SVG 1.1//EN" "http://www.w3.org/Graphics/SVG/1.1/DTD/svg11.dtd">
<svg version="1.1" id="Calque_1" xmlns="http://www.w3.org/2000/svg" xmlns:xlink="http://www.w3.org/1999/xlink" x="0px" y="0px"
	 width="125.124px" height="177.895px" viewBox="0 0 125.124 177.895" enable-background="new 0 0 125.124 177.895"
	 xml:space="preserve">
<path fill-rule="evenodd" clip-rule="evenodd" fill="#EBBD22" d="M119.451,0c1.857,0,3.716,0.001,5.575,0.001
	c-0.003,54.097-0.14,108.195,0.098,162.292c0.052,11.684-6.628,15.578-15.621,15.584c-31.455,0.025-62.911,0.021-94.367,0.002
	C4.67,177.873,0.001,173.128,0.001,162.62C0,130.857,0,99.094,0.001,67.332c0-10.091,4.655-14.767,14.869-14.776
	c29.099-0.025,58.198,0.007,87.297-0.029c3.885-0.005,7.782-0.189,11.497-1.555c3.88-1.426,4.907-2.979,5.115-7.048
	C119.524,29.289,119.438,14.644,119.451,0z"/>
</svg>
