<?xml version="1.0" encoding="utf-8"?>
<!-- Generator: Adobe Illustrator 16.0.0, SVG Export Plug-In . SVG Version: 6.00 Build 0)  -->
<!DOCTYPE svg PUBLIC "-//W3C//DTD SVG 1.1//EN" "http://www.w3.org/Graphics/SVG/1.1/DTD/svg11.dtd">
<svg version="1.1" id="Calque_1" xmlns="http://www.w3.org/2000/svg" xmlns:xlink="http://www.w3.org/1999/xlink" x="0px" y="0px"
	 width="92.98px" height="93px" viewBox="0 0 92.98 93" enable-background="new 0 0 92.98 93" xml:space="preserve">
<rect x="-2.969" y="-0.643" fill="#FFFFFF" width="101.941" height="99.965"/>
<path fill="#036259" d="M6.374,27.057c0.921-0.604,1.832-1.228,2.77-1.805c0.354-0.217,0.523-0.443,0.506-0.873
	c-0.032-0.827-0.009-1.656-0.009-2.64c-1.403,1.071-2.707,2.067-4.08,3.116c-0.257-0.89-0.723-1.568-1.562-1.931
	c-0.799-0.346-1.61-0.316-2.434-0.123c-0.157-0.017-0.322-0.068-0.474-0.042c-0.247,0.044-0.414,0.493-0.709,0.219
	c-0.234-0.217-0.104-0.573-0.104-0.864C0.273,15.11,0.283,8.106,0.261,1.103C0.259,0.467,0.43,0.286,1.071,0.289
	c5.94,0.023,11.881,0.013,17.821,0.014C43.116,0.304,67.34,0.306,91.564,0.307c0,30.303,0,60.604,0,90.907c0.091,0,0.184,0,0.274,0
	c0-30.303,0-60.604,0-90.907c0.278,0,0.557,0.001,0.835,0.001c0,19.325,0,38.649-0.001,57.974c0,11.142,0,22.282,0,33.425
	c0,0.994-0.002,0.994-0.952,0.994c-30.143,0-60.285,0-90.427,0c-0.186,0-0.371-0.01-0.556,0.001
	c-0.32,0.019-0.458-0.117-0.455-0.445c0.009-1.179,0.009-2.356,0-3.536c-0.003-0.316,0.108-0.486,0.44-0.457
	c0.972,0.088,1.928-0.113,2.896-0.148c1.848-0.067,3.685,0.177,5.53,0.15c0.484-0.006,0.832-0.168,0.838-0.688
	c0.019-1.563,0.011-3.127,0.007-4.69c-0.001-0.629-0.323-0.965-0.96-1.002c-0.3-0.017-0.604,0.021-0.901-0.008
	c-0.635-0.063-0.887,0.277-0.905,0.846c-0.02,0.623-0.034,1.25,0.002,1.871c0.028,0.494-0.159,0.633-0.637,0.627
	c-1.872-0.021-3.745-0.029-5.617,0.004c-0.55,0.008-0.71-0.156-0.703-0.705c0.029-2.266,0.014-4.529,0.015-6.795
	c3.087-0.006,6.175-0.01,9.262-0.014c0.623-0.288,0.322-0.794,0.318-1.25C9.853,75.107,9.88,73.754,9.889,72.4
	c0.003-0.39-0.208-0.617-0.581-0.559c-0.509,0.081-1.015,0.057-1.519,0.039c-0.477-0.016-0.597,0.186-0.576,0.618
	c0.027,0.576,0.004,1.153,0.008,1.731c0.002,0.375,0.068,0.754-0.531,0.724c-0.516-0.028-0.855-0.193-0.85-0.754
	c0.004-0.412-0.067-0.829,0.076-1.236c0.108-0.313,0.044-0.591-0.252-0.782c-0.043,0.01-0.08,0-0.109-0.035
	c-0.621-0.494-1.284-0.265-1.943-0.111c-0.294,0.134-0.269,0.396-0.268,0.652c0.001,0.508,0.006,1.017-0.001,1.524
	c-0.006,0.474-0.254,0.74-0.727,0.728c-0.438-0.01-0.61-0.285-0.684-0.709c-0.091-0.527,0.033-1.07,0.09-1.549
	c0.104-0.865-0.312-0.789-0.833-0.793c-0.997-0.005-1.035-0.039-1.037-1.061C0.15,69.05,0.186,67.27,0.135,65.494
	c-0.019-0.686,0.2-0.926,0.85-0.818c2.411,0.993,4.828,1.973,7.229,2.988c0.504,0.213,0.771,0.211,0.938-0.378
	c0.162-0.575,0.398-1.134,0.636-1.685c0.136-0.316,0.075-0.478-0.262-0.533c-0.021-0.004-0.043-0.017-0.063-0.025
	c-0.5-0.227-1.25-0.188-1.48-0.621c-0.241-0.454-0.074-1.125-0.086-1.701c-0.001-0.068,0-0.139,0.001-0.207
	c0.013-1.611,0.009-1.623,1.524-2.123c0.374-0.125,0.541-0.229,0.337-0.66c-0.332-0.707-0.407-1.758-0.942-2.08
	c-0.484-0.291-1.36,0.412-2.058,0.689c-2.08,0.83-4.154,1.676-6.216,2.546C0.034,61.1,0.027,60.891,0.03,60.49
	c0.013-2.08,0.026-4.161-0.006-6.241c-0.008-0.533,0.203-0.59,0.646-0.588c2.751,0.016,5.502-0.011,8.253,0.021
	c0.588,0.008,0.751-0.164,0.725-0.734c-0.044-0.971-0.012-1.942-0.012-2.913c0-2.401-1.453-4.334-3.744-4.98
	c-2.111-0.595-4.363,0.352-5.581,2.348c-0.055,0.091-0.055,0.234-0.272,0.209c0-2.063,0.001-4.133-0.001-6.202
	c-0.001-0.483,0.361-0.325,0.598-0.326c2.728-0.009,5.457-0.028,8.184,0.01c0.669,0.01,0.859-0.168,0.834-0.839
	c-0.054-1.432-0.03-2.867-0.003-4.3c0.01-0.459-0.147-0.628-0.59-0.571c-0.535,0.069-1.098-0.146-1.61,0.153
	c-0.134-0.151-0.235-0.249-0.231,0.073c0.009,0.707-0.025,1.414,0.013,2.118c0.027,0.505-0.193,0.582-0.639,0.62
	c-0.333,0.027-0.528-0.438-0.87-0.168c-0.011-0.669-0.022-1.338-0.034-2.007c-0.001-0.093,0.029-0.198-0.005-0.275
	c-0.335-0.754-0.985-0.211-1.478-0.331c-0.245-0.06-0.693-0.198-0.682,0.375c0.015,0.67-0.017,1.341,0.012,2.01
	c0.017,0.397-0.065,0.551-0.519,0.55C1.8,38.497,1.8,38.524,1.8,37.332c0-0.161,0.005-0.323,0-0.485
	c-0.015-0.457,0.122-1.021-0.096-1.343c-0.219-0.321-0.815-0.109-1.243-0.111c-0.348-0.001-0.433-0.148-0.431-0.458
	c0.01-1.502,0.021-3.004-0.001-4.505c-0.007-0.494,0.295-0.419,0.592-0.419c2.796,0.001,5.591,0.003,8.387-0.003
	c0.254-0.001,0.581,0.117,0.674-0.285c0.165-0.36,0.323-0.722-0.002-1.081c0-0.114,0.001-0.228,0.001-0.341
	c0.354-0.695,0.145-1.069-0.607-1.076c-0.391-0.004-0.784,0.03-1.171-0.009C7.393,27.166,6.851,27.401,6.374,27.057z M51.09,15.823
	l-0.021,0.011c-0.005,5.21,0.012,10.42-0.029,15.629c-0.014,1.635,0.259,3.293-0.263,4.903c-0.39,0.2-0.463,0.755-0.96,0.844
	c-0.719,0.129-1.252,0.572-1.725,1.09c-0.268,0.294-0.585,0.501-0.905,0.729c-0.418,0.298-0.855,0.586-1.199,0.994
	c-1.178,1.402-2.246,2.917-3.888,3.854c-0.116,0.066-0.222,0.177-0.294,0.291c-0.525,0.837-1.55,1.158-2.067,2.006
	c-0.061,0.101-0.242,0.12-0.353,0.197c-0.621,0.438-1.318,0.768-1.583,1.6c-0.236,0.746-1.206,1.295-1.854,1.008
	c-0.924-0.408-2-0.514-2.729-1.345c-0.251-0.286-0.57-0.554-0.965-0.639c-0.883-0.189-1.712-0.367-2.529-0.903
	c-0.62-0.406-1.405-0.764-2.134-1c-0.799-0.259-1.644-0.37-2.381-0.829c-0.127-0.079-0.322-0.115-0.47-0.087
	c-1.041,0.197-2.073-0.102-3.104-0.044c-0.859,0.048-1.806-0.127-2.467,0.726c-0.205,0.264-0.582,0.367-0.956,0.26
	c-0.37-0.107-0.606,0.046-0.793,0.372c-0.111,0.194-0.28,0.369-0.458,0.51c-0.447,0.352-0.643,0.753-0.751,1.35
	c-0.072,0.395-1.002,0.344-1.313,0.871c-0.012,0.021-0.028,0.036-0.039,0.059c-0.5,1.068-0.896,2.181-0.949,3.363
	c-0.063,1.445,0.226,2.881,0.211,4.338c-0.007,0.674-0.167,1.545,0.452,2.103c0.871,0.785,0.94,1.959,1.498,2.897
	c0.352,0.596,0.679,1.197,1.179,1.666c0.639,0.598,1.478,0.987,1.72,1.957c0.089,0.354,0.422,0.66,0.796,0.713
	c1.107,0.158,1.518,1.422,2.603,1.593c0.045,0.007,0.079,0.098,0.113,0.151c0.603,0.932,1.314,1.713,2.438,2.037
	c1.27,0.367,2.389,0.979,3.078,2.18c0.11,0.192,0.271,0.285,0.481,0.354c0.349,0.115,0.69,0.263,1.017,0.433
	c1.237,0.646,2.662,0.694,3.933,1.23c0.063,0.025,0.144,0.045,0.204,0.027c0.479-0.135,0.766,0.126,1.074,0.445
	c0.447,0.463,0.984,0.698,1.68,0.618c0.708-0.081,1.427-0.014,2.143,0.046c0.848,0.069,1.66,0.336,2.525,0.324
	c1.589-0.021,2.981-0.652,4.386-1.271c0.23-0.102,0.404-0.25,0.368-0.521c-0.075-0.56,0.043-1.134-0.326-1.666
	c-0.348-0.503,0-1.317,0.561-1.526c0.65-0.244,1.127-1.218,0.784-1.916c-0.472-0.959-0.302-2.107-0.971-2.992
	c-0.064-0.088-0.038-0.271-0.008-0.397c0.41-1.81,0-3.397-1.115-4.889c-0.586-0.785-1.496-1.455-1.389-2.636
	c0.012-0.133-0.105-0.322-0.221-0.414c-0.967-0.768-1.233-2.049-2.198-2.857c-0.721-0.604-1.191-1.509-1.773-2.279
	c-0.199-0.265-0.423-0.586-0.23-0.883c0.525-0.813,1.09-1.619,1.858-2.214c1.164-0.901,2.085-2.072,3.303-2.91
	c0.177-0.122,0.244-0.391,0.396-0.559c1.042-1.142,2.093-2.275,3.145-3.408c0.043-0.047,0.128-0.053,0.185-0.092
	c0.644-0.436,1.32-0.807,1.847-1.423c0.383-0.449,0.846-0.904,1.511-0.977c-0.002,0.138-0.004,0.276-0.007,0.414
	c-0.069,0.104-0.071,0.209-0.001,0.314c0.001,0.137,0.002,0.272,0.003,0.409c-0.121,0.313-0.063,0.639-0.063,0.958
	c-0.003,11.332-0.003,22.662,0,33.994c0,0.229,0.032,0.455,0.048,0.685c-0.183,0.679,0.127,0.813,0.752,0.782
	c2.317-0.109,4.612-0.396,6.833-1.053c10.752-3.184,17.916-10.103,21.448-20.755c0.133-0.401,0.229-0.563,0.704-0.409
	c1.186,0.377,2.396,0.68,3.597,1.012c0.913,0.252,0.922,0.257,0.641,1.129c-2.691,8.311-7.673,14.884-15.018,19.615
	c-5.519,3.556-11.59,5.429-18.162,5.611c-0.642,0.018-0.857,0.184-0.845,0.864c0.048,2.38,0.042,4.762,0.008,7.144
	c-0.009,0.612,0.16,0.766,0.772,0.764c12.575-0.02,25.149-0.021,37.725,0c0.681,0,0.824-0.187,0.824-0.844
	c-0.017-27.994-0.013-55.987-0.012-83.979c0-0.786-0.024-1.572,0.007-2.357c0.018-0.446-0.108-0.584-0.577-0.584
	c-12.714,0.014-25.428,0.015-38.141,0c-0.512-0.001-0.6,0.18-0.596,0.628c0.021,2.242-0.005,4.485,0.029,6.727
	c0.007,0.476-0.122,0.581-0.572,0.584c-5.983,0.04-11.609,1.49-16.841,4.398c-8.531,4.744-14.218,11.818-17.196,21.099
	c-0.158,0.497,0.02,0.618,0.444,0.729c1.25,0.327,2.498,0.666,3.73,1.052c0.51,0.159,0.649,0,0.804-0.469
	c3.138-9.51,9.364-16.126,18.689-19.78c2.5-0.979,5.104-1.611,7.804-1.759C49.031,15.838,50.06,15.83,51.09,15.823z"/>
<path fill="#0B6259" d="M0.286,77.723c0,2.266,0.015,4.529-0.015,6.795c-0.007,0.549,0.153,0.713,0.703,0.705
	c1.872-0.033,3.745-0.025,5.617-0.004c0.478,0.006,0.665-0.133,0.637-0.627c-0.036-0.622-0.021-1.248-0.002-1.871
	c0.019-0.566,0.271-0.906,0.905-0.846c0.298,0.027,0.602-0.009,0.901,0.008c0.637,0.037,0.958,0.373,0.96,1.002
	c0.004,1.563,0.011,3.127-0.007,4.69c-0.006,0.521-0.354,0.684-0.838,0.688c-1.846,0.025-3.683-0.219-5.53-0.15
	c-0.967,0.035-1.924,0.236-2.896,0.148c-0.332-0.029-0.444,0.141-0.44,0.457c0.008,1.18,0.009,2.357,0,3.536
	C0.28,92.583,0.417,92.719,0.738,92.7c0.185-0.011,0.369,0,0.555,0c30.143,0,60.285,0,90.427,0c0.949,0,0.952,0,0.952-0.994
	c0-11.142,0-22.283,0-33.425c0-19.324,0-38.648,0.001-57.974c0.092,0.002,0.184,0.004,0.274,0.005
	c0.008,0.208,0.02,0.416,0.02,0.623c0,30.395-0.002,60.79,0.014,91.185c0,0.661-0.106,0.881-0.844,0.88
	c-30.441-0.021-60.882-0.021-91.323-0.004c-0.631,0-0.826-0.146-0.797-0.789c0.055-1.2,0.041-2.404,0.008-3.605
	c-0.013-0.484,0.128-0.625,0.617-0.621c2.773,0.022,5.547-0.004,8.321,0.024c0.55,0.006,0.701-0.147,0.688-0.688
	c-0.036-1.479-0.028-2.959-0.001-4.438c0.01-0.461-0.134-0.583-0.588-0.583c-1.58,0-1.58-0.02-1.581,1.586
	c0,1.527,0,1.527-1.557,1.527c-1.757,0-3.514-0.016-5.271,0.01c-0.464,0.007-0.64-0.094-0.634-0.602
	c0.028-2.194,0.008-4.392,0.021-6.586C0.042,78.051-0.126,77.729,0.286,77.723z"/>
<path fill="#29756A" d="M92.948,0.313c-0.092-0.001-0.184-0.003-0.274-0.005c-0.278,0-0.557-0.001-0.835-0.001
	c-0.091,0-0.184,0-0.274,0C67.34,0.306,43.116,0.304,18.892,0.303C12.952,0.302,7.011,0.313,1.071,0.289
	C0.43,0.286,0.259,0.467,0.261,1.103C0.283,8.106,0.273,15.11,0.279,22.114c0,0.291-0.13,0.646,0.104,0.864
	c0.295,0.274,0.463-0.175,0.709-0.219c0.151-0.026,0.315,0.025,0.474,0.042c-0.562,0.276-1.065,0.624-1.419,1.161
	c-0.23-0.152-0.12-0.355-0.12-0.517c-0.007-7.533,0.001-15.066-0.02-22.6C0.006,0.226,0.141,0.034,0.799,0.034
	c30.48,0.018,60.963,0.014,91.445,0.024C92.476,0.06,92.867-0.183,92.948,0.313z"/>
<path fill="#0B6259" d="M4.646,51.087c-0.807,0-1.613-0.014-2.421,0.007c-0.335,0.008-0.421-0.111-0.436-0.437
	c-0.077-1.813,0.972-3.023,2.693-3.079c1.832-0.059,2.953,1.018,3.008,2.847c0.014,0.483-0.078,0.714-0.633,0.675
	C6.125,51.049,5.384,51.087,4.646,51.087z"/>
<path fill="#036259" d="M1.921,25.781c0.757-0.554,1.253-0.507,1.973,0.188c0.021,0.248,0.063,0.496,0.06,0.743
	c-0.004,0.361-0.188,0.693-0.559,0.617c-0.604-0.124-1.217,0.102-1.804-0.115c0.01-0.14,0.019-0.28,0.028-0.421
	C2.289,26.625,1.704,26.084,1.921,25.781z"/>
<path fill="#0B6259" d="M2.599,62.675c1.07-0.399,1.967-0.735,2.92-1.094c0,0.763,0,1.442,0,2.201
	C4.575,63.424,3.678,63.084,2.599,62.675z"/>
<path fill="#29756A" d="M0.985,64.675c-0.649-0.106-0.868,0.134-0.85,0.818c0.051,1.776,0.015,3.556,0.018,5.334
	c0.002,1.021,0.04,1.056,1.037,1.062c0.521,0.002,0.938-0.072,0.833,0.793c-0.057,0.478-0.181,1.021-0.09,1.547
	c0.073,0.424,0.246,0.699,0.684,0.711c0.473,0.013,0.721-0.256,0.727-0.729c0.007-0.509,0.002-1.018,0.001-1.523
	c-0.001-0.256-0.026-0.521,0.268-0.653c0.004,0.044,0.004,0.087,0.002,0.131c-0.126,0.805-0.056,1.614-0.05,2.421
	c0.003,0.422-0.112,0.543-0.542,0.542c-1.23-0.002-1.23,0.021-1.231-1.224c0-0.139,0.003-0.277-0.001-0.416
	c-0.016-0.459,0.125-1.022-0.094-1.344c-0.218-0.318-0.815-0.101-1.245-0.104c-0.343-0.003-0.436-0.135-0.435-0.452
	c0.008-2.288,0.013-4.577-0.002-6.864c-0.003-0.438,0.154-0.476,0.486-0.302C0.661,64.507,0.823,64.591,0.985,64.675z"/>
<path fill="#0B6259" d="M5.664,72.18c0.296,0.192,0.36,0.471,0.252,0.783c-0.145,0.407-0.072,0.824-0.076,1.236
	c-0.006,0.561,0.334,0.726,0.85,0.754c0.6,0.031,0.534-0.35,0.531-0.725c-0.004-0.576,0.021-1.154-0.008-1.73
	c-0.021-0.434,0.1-0.634,0.576-0.618c0.504,0.019,1.01,0.042,1.519-0.039c0.373-0.06,0.583,0.169,0.581,0.558
	c-0.009,1.354-0.036,2.707-0.022,4.062c0.004,0.456,0.305,0.962-0.318,1.25c0.199-1.303,0.064-2.614,0.083-3.921
	c0.023-1.783,0.002-1.783-1.784-1.77c-0.115,0.002-0.229,0.01-0.345,0.015c-0.092,0.018-0.133,0.055-0.047,0.135
	c0.001,0.095,0.002,0.188,0.004,0.282C7.314,72.634,7.316,72.816,7.456,73c0,0.095-0.001,0.189-0.001,0.283
	c-0.114,0.092-0.111,0.183,0.001,0.271c0,0.326,0.001,0.651,0.001,0.978c-0.154,0.155-0.085,0.354-0.102,0.536
	c-1.668,0.141-1.666,0.141-1.668-1.504C5.687,73.104,5.672,72.643,5.664,72.18z"/>
<path fill="#0B6259" d="M6.374,27.057c0.477,0.345,1.019,0.109,1.527,0.159c0.388,0.039,0.78,0.005,1.17,0.009
	c0.753,0.007,0.964,0.381,0.608,1.076c0.079-0.744-0.29-0.896-0.969-0.848c-0.929,0.065-1.867,0.017-2.843,0.017
	C5.991,27.181,6.178,27.113,6.374,27.057z"/>
<path fill="#0B6259" d="M5.721,38.178c0.342-0.271,0.537,0.195,0.87,0.168c0.445-0.038,0.666-0.115,0.639-0.62
	c-0.038-0.704-0.004-1.411-0.013-2.118c-0.004-0.322,0.099-0.225,0.231-0.073c0.001,0.887,0.003,1.772,0.005,2.658
	c-0.031,0.084-0.063,0.168-0.093,0.251c-0.451,0.015-0.903,0.03-1.355,0.044C5.793,38.493,5.64,38.442,5.721,38.178z"/>
<path fill="#29756A" d="M1.591,27.214c0.587,0.217,1.201-0.009,1.804,0.115c0.371,0.076,0.555-0.256,0.559-0.617
	c0.003-0.247-0.038-0.495-0.06-0.743c0.057,0.123,0.133,0.241,0.165,0.37c0.262,1.046,0.184,1.147-0.875,1.145
	c-0.415-0.001-0.829,0.004-1.243-0.004C1.77,27.477,1.538,27.525,1.591,27.214z"/>
<path fill="#0B6259" d="M3.614,72.164c0.002-0.044,0.002-0.087-0.002-0.131c0.659-0.152,1.322-0.383,1.943,0.111
	C4.908,72.152,4.261,72.158,3.614,72.164z"/>
<path fill="#0B6259" d="M9.679,28.642c0.326,0.359,0.167,0.721,0.002,1.081C9.598,29.362,9.603,29.002,9.679,28.642z"/>
<path fill="#29756A" d="M1.921,25.781c-0.218,0.303,0.367,0.844-0.302,1.012C1.603,26.421,1.63,26.062,1.921,25.781z"/>
<path fill="#29756A" d="M7.456,72.999c-0.141-0.185-0.143-0.366,0.003-0.549C7.458,72.634,7.457,72.816,7.456,72.999z"/>
<path fill="#29756A" d="M7.356,75.066c0.017-0.182-0.053-0.379,0.102-0.535C7.463,74.718,7.61,74.932,7.356,75.066z"/>
<path fill="#036259" d="M7.361,38.443c0.031-0.083,0.063-0.167,0.093-0.251C7.48,38.298,7.529,38.41,7.361,38.443z"/>
<path fill="#29756A" d="M7.456,73.555c-0.112-0.09-0.115-0.181-0.001-0.271C7.455,73.373,7.455,73.464,7.456,73.555z"/>
<path fill="#29756A" d="M7.455,72.168c-0.086-0.08-0.045-0.117,0.047-0.135C7.486,72.078,7.47,72.123,7.455,72.168z"/>
<path fill="#FCFDFD" d="M51.163,40.062c-0.001-0.137-0.002-0.272-0.003-0.409c0-0.104,0.001-0.209,0.001-0.314
	c0.002-0.138,0.004-0.276,0.007-0.413c-0.011-0.074-0.022-0.148-0.034-0.224c0.221-0.213,0.441-0.427,0.662-0.64
	c0.822-0.508,1.636-1.036,2.529-1.407c1.091-0.453,2.065-1.121,3.041-1.75c0.984-0.637,2.014-1.209,3.033-1.751
	c1.438-0.764,2.851-1.534,4.002-2.675c0.809-0.799,1.693-1.394,2.75-1.787c0.813-0.302,1.345-1.17,1.334-2.021
	c-0.005-0.549-0.436-0.897-0.969-0.766c-0.498,0.123-1.029,0.283-1.333,0.688c-1.061,1.407-2.747,1.999-4.008,3.146
	c-0.459,0.418-1.086,0.757-1.689,0.887c-0.919,0.199-1.655,0.664-2.393,1.178c-0.944,0.659-1.856,1.37-2.838,1.968
	c-1.313,0.801-2.771,1.342-4.053,2.205c-0.134-0.264-0.069-0.546-0.07-0.818c-0.004-6.19-0.004-12.381-0.007-18.571
	c0-0.251-0.036-0.501-0.055-0.752l0.021-0.011c-0.018-0.155-0.133-0.16-0.248-0.156c-0.949,0.035-1.903-0.028-2.841,0.179
	c-2.7,0.147-5.302,0.779-7.803,1.759c-9.326,3.654-15.553,10.271-18.69,19.78c-0.154,0.469-0.294,0.628-0.804,0.469
	c-1.233-0.386-2.481-0.725-3.73-1.052c-0.425-0.111-0.603-0.232-0.443-0.729c2.978-9.28,8.664-16.354,17.195-21.099
	c5.231-2.908,10.857-4.358,16.841-4.398c0.451-0.003,0.58-0.108,0.572-0.584C51.105,7.75,51.13,5.507,51.11,3.265
	c-0.004-0.448,0.084-0.629,0.596-0.628c12.713,0.015,25.427,0.014,38.141,0c0.468,0,0.594,0.138,0.577,0.584
	c-0.031,0.785-0.007,1.571-0.007,2.357c-0.001,27.993-0.005,55.986,0.012,83.979c0,0.658-0.144,0.846-0.824,0.844
	c-12.575-0.021-25.149-0.019-37.725,0.002c-0.612,0-0.781-0.151-0.772-0.766c0.035-2.381,0.041-4.763-0.008-7.143
	c-0.014-0.682,0.203-0.848,0.845-0.864c6.572-0.185,12.644-2.057,18.162-5.612c7.345-4.73,12.326-11.305,15.018-19.613
	c0.282-0.873,0.272-0.877-0.641-1.129c-1.2-0.334-2.411-0.635-3.597-1.014c-0.476-0.152-0.571,0.008-0.704,0.41
	C76.65,65.325,69.487,72.244,58.734,75.428c-2.221,0.657-4.516,0.942-6.833,1.053c-0.625,0.029-0.935-0.104-0.752-0.782
	c0.013-0.229,0.034-0.457,0.034-0.688c0.001-11.004,0.001-22.008,0-33.011C51.183,41.354,51.17,40.707,51.163,40.062z
	 M75.706,21.035c0.026-0.804-0.443-1.261-1.355-1.285c-0.688-0.018-1.378,0.083-2.066,0.085c-0.477,0.001-0.847,0.203-0.999,0.602
	c-0.279,0.729-0.835,1.315-1.024,2.077c-0.161,0.647-0.327,1.3-0.401,1.96c-0.033,0.311-0.011,0.95,0.495,0.745
	c1.275-0.519,2.68-0.416,3.942-0.947c0.479-0.202,0.884-0.33,0.766-0.994c-0.043-0.24,0.13-0.529,0.236-0.782
	C75.505,22.002,75.651,21.497,75.706,21.035z M55.131,25.005c-0.782,0.078-1.573,0.449-2.169,1.127
	c-0.382,0.435-0.558,1.034-0.117,1.518c0.535,0.589,1.05,1.222,1.827,1.552c0.654,0.277,1.32,0.545,1.826,1.09
	c0.221,0.237,0.523,0.263,0.833,0.124c0.304-0.137,0.233-0.411,0.265-0.654c0.078-0.624-0.272-1.234-0.077-1.852
	c0.135-0.424-0.031-0.655-0.376-0.841c-0.27-0.144-0.469-0.297-0.468-0.681C56.673,25.449,56.194,25.013,55.131,25.005z
	 M62.373,26.797c1.101,0.051,1.544-0.402,1.452-1.493c-0.037-0.427,0.096-0.819,0.217-1.216c0.328-1.073,0.215-1.331-0.804-1.832
	c-0.123-0.062-0.259-0.102-0.38-0.167c-1.037-0.554-1.832-0.343-2.458,0.647c-0.379,0.603-0.507,1.277-0.606,1.965
	c-0.064,0.441-0.016,0.783,0.524,0.845c0.196,0.022,0.375,0.143,0.418,0.324C60.955,26.774,61.673,26.764,62.373,26.797z
	 M71.489,31.503c0.204-0.681-0.343-1.104-0.698-1.594c-0.388-0.533-0.966-0.668-1.52-0.328c-0.493,0.303-1.011,0.433-1.575,0.417
	c-0.354-0.01-0.657,0.085-0.788,0.432c-0.218,0.573-0.274,1.177-0.123,1.771c0.116,0.456,0.4,0.742,0.932,0.776
	c0.737,0.049,1.455,0.212,2.142,0.512c0.444,0.193,0.92,0.313,1.416,0.275c0.66-0.052,0.869-0.412,0.524-0.96
	C71.552,32.411,71.453,32.006,71.489,31.503z M65.74,38.099c-0.047-1.423-0.315-2.12-0.912-2.434
	c-0.584-0.308-1.185-0.585-1.774-0.881c-0.649-0.325-1.306-0.189-1.953-0.017c-0.312,0.083-0.448,0.305-0.271,0.638
	c0.353,0.672,0.673,1.362,1.054,2.018c0.385,0.663,0.884,1.234,1.602,1.568c0.573,0.267,1.025,0.07,1.601-0.163
	C65.628,38.607,65.743,38.387,65.74,38.099z"/>
<path fill="#F5DD77" d="M51.133,38.701c0.012,0.075,0.022,0.149,0.034,0.224c-0.666,0.071-1.128,0.526-1.512,0.976
	c-0.525,0.616-1.202,0.987-1.846,1.423c-0.057,0.039-0.142,0.045-0.185,0.092c-1.053,1.133-2.103,2.267-3.145,3.408
	c-0.152,0.168-0.22,0.437-0.396,0.559c-1.218,0.838-2.139,2.01-3.304,2.91c-0.768,0.594-1.333,1.402-1.857,2.214
	c-0.192,0.298,0.031,0.618,0.23,0.884c0.582,0.771,1.053,1.674,1.773,2.278c0.965,0.81,1.231,2.091,2.198,2.856
	c0.115,0.093,0.232,0.281,0.221,0.414c-0.107,1.182,0.802,1.852,1.389,2.637c1.115,1.49,1.525,3.079,1.115,4.889
	c-0.029,0.128-0.057,0.311,0.008,0.396c0.669,0.886,0.499,2.035,0.971,2.994c0.343,0.697-0.134,1.67-0.784,1.914
	c-0.561,0.209-0.907,1.024-0.561,1.527c0.369,0.532,0.25,1.107,0.326,1.666c0.036,0.271-0.138,0.42-0.368,0.521
	c-1.404,0.619-2.797,1.25-4.386,1.271c-0.865,0.013-1.678-0.255-2.525-0.323c-0.716-0.061-1.436-0.127-2.143-0.047
	c-0.695,0.08-1.232-0.154-1.68-0.619c-0.309-0.318-0.596-0.58-1.074-0.444c-0.062,0.018-0.142-0.001-0.204-0.027
	c-1.271-0.536-2.695-0.584-3.933-1.231c-0.326-0.17-0.667-0.315-1.017-0.432c-0.211-0.07-0.371-0.162-0.481-0.355
	c-0.689-1.199-1.81-1.812-3.078-2.178c-1.123-0.326-1.835-1.106-2.438-2.037c-0.034-0.056-0.068-0.146-0.113-0.152
	c-1.084-0.172-1.495-1.434-2.603-1.592c-0.374-0.053-0.707-0.358-0.796-0.713c-0.242-0.971-1.081-1.36-1.72-1.959
	c-0.5-0.468-0.827-1.069-1.18-1.664c-0.557-0.939-0.626-2.113-1.497-2.898c-0.619-0.559-0.458-1.428-0.452-2.104
	c0.015-1.457-0.274-2.892-0.211-4.338c0.052-1.183,0.448-2.293,0.949-3.363c0.011-0.021,0.027-0.037,0.039-0.057
	c0.311-0.529,1.24-0.479,1.313-0.871c0.108-0.598,0.304-0.999,0.751-1.351c0.178-0.141,0.347-0.315,0.458-0.51
	c0.187-0.326,0.423-0.479,0.793-0.372c0.374,0.107,0.751,0.004,0.956-0.26c0.661-0.853,1.607-0.678,2.467-0.726
	c1.03-0.058,2.063,0.241,3.104,0.044c0.146-0.028,0.342,0.008,0.47,0.087c0.736,0.459,1.582,0.57,2.381,0.829
	c0.729,0.236,1.514,0.594,2.134,1c0.817,0.536,1.646,0.714,2.529,0.903c0.395,0.085,0.714,0.354,0.965,0.639
	c0.729,0.831,1.806,0.938,2.729,1.346c0.647,0.287,1.616-0.263,1.854-1.008c0.265-0.834,0.961-1.163,1.583-1.601
	c0.11-0.077,0.292-0.097,0.353-0.197c0.519-0.848,1.542-1.169,2.067-2.006c0.072-0.114,0.178-0.225,0.294-0.291
	c1.642-0.938,2.71-2.452,3.888-3.854c0.344-0.408,0.781-0.696,1.199-0.994c0.319-0.228,0.638-0.435,0.905-0.729
	c0.472-0.518,1.005-0.961,1.725-1.09c0.497-0.089,0.57-0.644,0.96-0.844c0.324-0.153,0.321,0.045,0.322,0.28
	C51.103,37.332,51.121,38.017,51.133,38.701z M41.321,71.77c0.177-0.027,0.467,0.121,0.601-0.215c0.205-0.513,0.438-1.02,0.295-1.6
	c-0.416-1.666-1.541-2.946-2.39-4.376c-0.04-0.065-0.164-0.078-0.243-0.125c-0.984-0.58-1.764-1.334-2.064-2.479
	c-0.057-0.217-0.175-0.315-0.373-0.435c-0.953-0.573-2.037-1.004-2.477-2.181c-0.092-0.244-0.328-0.441-0.605-0.539
	c-0.578-0.204-1.021-0.604-1.484-0.988c-0.517-0.426-0.831-1.119-1.478-1.332c-0.962-0.316-1.71-0.986-2.603-1.406
	c-0.324-0.152-0.58-0.386-0.742-0.701c-0.609-1.185-2.037-1.396-2.819-2.375c-0.044-0.056-0.174-0.056-0.265-0.059
	c-0.587-0.016-1.11-0.075-1.181-0.854c-0.016-0.16-0.317-0.39-0.512-0.418c-0.75-0.107-1.365-0.447-1.924-0.932
	c-0.048-0.042-0.127-0.053-0.195-0.068c-0.489-0.115-0.895-0.381-1.214-0.756c-0.506-0.598-1.133-0.887-1.913-0.975
	c-0.42-0.048-0.545,0.04-0.554,0.434c-0.039,1.801-0.104,3.6-0.123,5.398c-0.006,0.523-0.006,1.09,0.329,1.531
	c0.371,0.49,0.633,1.031,0.794,1.604c0.173,0.617,0.213,1.284,1.088,1.296c0.068,0.002,0.136,0.117,0.2,0.185
	c0.623,0.637,1.062,1.428,1.55,2.147c0.573,0.844,1.202,1.432,2.15,1.701c0.553,0.158,1.039,0.378,1.291,0.943
	c0.042,0.094,0.141,0.191,0.235,0.229c0.938,0.358,1.53,1.15,2.198,1.821c0.935,0.938,2.051,1.619,3.09,2.409
	c0.139,0.104,0.343,0.172,0.516,0.17c1.335-0.014,2.493,0.634,3.654,1.115c1.041,0.431,2.09,0.843,3.146,1.227
	C38.577,71.634,39.937,71.591,41.321,71.77z M22.48,46.96c-0.161-0.009-0.302-0.036-0.437-0.019
	c-0.241,0.03-0.563-0.011-0.664,0.249c-0.091,0.232,0.172,0.41,0.316,0.571c0.497,0.548,1.323,0.679,1.735,1.343
	c1.146-0.023,1.787,0.86,2.534,1.489c1.035,0.869,2.063,1.741,3.405,2.033c0.779,0.17,1.21,0.562,1.59,1.235
	c0.236,0.421,0.778,0.683,1.215,0.969c0.227,0.148,0.54-0.012,0.575-0.219c0.201-1.199,1.353-1.738,1.846-2.745
	c0.435-0.888,0.325-1.341-0.662-1.511c-0.881-0.15-1.688-0.422-2.37-1.023c-0.208-0.184-0.456-0.324-0.75-0.311
	c-1.313,0.064-2.531-0.418-3.792-0.662c-0.808-0.155-1.56-0.377-2.087-1.072c-0.107-0.145-0.333-0.156-0.471-0.243
	C23.801,46.623,23.12,47.059,22.48,46.96z M41.892,60.063c-0.044-0.153-0.041-0.355-0.14-0.455c-0.567-0.56-0.752-1.383-1.316-1.924
	c-0.52-0.5-0.807-1.106-1.061-1.752c-0.066-0.168-0.13-0.41-0.262-0.469c-0.738-0.324-0.914-1.156-1.526-1.625
	c-0.381-0.29-0.566-0.354-0.91-0.098c-0.203,0.15-0.45,0.255-0.616,0.437c-0.546,0.603-1.328,1.074-1.111,2.104
	c0.072,0.349-0.074,0.749,0.304,1.001c0.479,0.319,0.93,0.694,1.444,0.938c0.669,0.315,1.137,0.761,1.348,1.468
	c0.087,0.291,0.314,0.547,0.557,0.568c0.613,0.055,0.914,0.475,1.226,0.885c0.743,0.979,1.891,1.633,2.296,2.89
	c0.074,0.233,0.343,0.288,0.592,0.255c0.635-0.088,0.734-0.563,0.417-1.192C42.643,62.117,41.652,61.338,41.892,60.063z"/>
<path fill="#0B6259" d="M91.564,0.307c0.091,0,0.184,0,0.274,0c0,30.303,0,60.604,0,90.907c-0.091,0-0.184,0-0.274,0
	C91.564,60.911,91.564,30.609,91.564,0.307z"/>
<path fill="#F5DD77" d="M51.163,40.062c0.007,0.646,0.021,1.292,0.021,1.938c0.001,11.003,0.001,22.007,0,33.011
	c0,0.229-0.021,0.458-0.034,0.688c-0.017-0.229-0.048-0.456-0.048-0.685c-0.002-11.332-0.003-22.662,0-33.994
	C51.101,40.7,51.042,40.374,51.163,40.062z"/>
<path fill="#0B6259" d="M51.133,38.701c-0.012-0.685-0.03-1.369-0.033-2.055c-0.001-0.235,0.001-0.434-0.322-0.28
	c0.521-1.61,0.249-3.269,0.263-4.903c0.042-5.209,0.024-10.419,0.029-15.629c0.02,0.251,0.055,0.501,0.055,0.752
	c0.003,6.19,0.003,12.381,0.007,18.571c0,0.272-0.063,0.555,0.069,0.818c0.167,0.295,0.077,0.612,0.103,0.921
	c0.033,0.416-0.303,1.053,0.491,1.165C51.574,38.274,51.354,38.488,51.133,38.701z"/>
<path fill="#0B6259" d="M48.001,15.846c0.938-0.207,1.892-0.144,2.841-0.179c0.114-0.004,0.229,0.001,0.248,0.156
	C50.06,15.83,49.031,15.838,48.001,15.846z"/>
<path fill="#F5DD77" d="M51.16,39.338c0,0.105-0.001,0.21-0.001,0.314C51.089,39.547,51.091,39.442,51.16,39.338z"/>
<path fill="#036259" d="M51.794,38.062c-0.794-0.112-0.458-0.749-0.491-1.165c-0.025-0.309,0.064-0.626-0.103-0.921
	c1.281-0.863,2.74-1.404,4.053-2.205c0.98-0.598,1.894-1.309,2.838-1.968c0.737-0.514,1.474-0.979,2.393-1.178
	c0.604-0.13,1.229-0.469,1.689-0.887c1.261-1.146,2.947-1.738,4.008-3.146c0.304-0.404,0.835-0.564,1.333-0.688
	c0.533-0.132,0.964,0.217,0.969,0.766c0.01,0.851-0.521,1.719-1.334,2.021c-1.057,0.394-1.941,0.988-2.75,1.787
	c-1.151,1.141-2.564,1.911-4.002,2.675c-1.02,0.542-2.049,1.114-3.034,1.751c-0.974,0.629-1.949,1.297-3.041,1.75
	C53.43,37.025,52.616,37.554,51.794,38.062z"/>
<path fill="#0B6259" d="M75.706,21.035c-0.055,0.462-0.201,0.967-0.407,1.46c-0.106,0.253-0.279,0.542-0.236,0.782
	c0.118,0.664-0.287,0.792-0.766,0.994c-1.263,0.531-2.667,0.429-3.942,0.947c-0.506,0.205-0.528-0.435-0.495-0.745
	c0.074-0.66,0.24-1.313,0.401-1.96c0.189-0.762,0.745-1.349,1.024-2.077c0.152-0.398,0.521-0.601,0.999-0.602
	c0.688-0.002,1.379-0.103,2.066-0.085C75.262,19.774,75.732,20.231,75.706,21.035z"/>
<path fill="#0B6259" d="M55.131,25.005c1.063,0.008,1.542,0.444,1.542,1.383c0,0.384,0.198,0.537,0.468,0.681
	c0.345,0.186,0.511,0.417,0.376,0.841c-0.196,0.617,0.155,1.228,0.077,1.852c-0.031,0.243,0.039,0.518-0.265,0.654
	c-0.31,0.139-0.612,0.113-0.833-0.124c-0.506-0.545-1.171-0.813-1.826-1.09c-0.777-0.33-1.292-0.963-1.827-1.552
	c-0.44-0.483-0.265-1.083,0.117-1.518C53.558,25.454,54.349,25.083,55.131,25.005z"/>
<path fill="#0B6259" d="M62.373,26.797c-0.7-0.033-1.418-0.022-1.636-0.927c-0.044-0.182-0.222-0.302-0.418-0.324
	c-0.54-0.062-0.589-0.403-0.524-0.845c0.1-0.688,0.228-1.362,0.606-1.965c0.625-0.99,1.42-1.201,2.458-0.647
	c0.122,0.065,0.257,0.105,0.381,0.167c1.018,0.501,1.131,0.759,0.803,1.832c-0.121,0.396-0.253,0.789-0.217,1.216
	C63.917,26.395,63.474,26.848,62.373,26.797z"/>
<path fill="#0B6259" d="M71.489,31.503c-0.035,0.503,0.063,0.908,0.311,1.301c0.344,0.548,0.135,0.908-0.524,0.96
	c-0.495,0.039-0.971-0.082-1.416-0.275c-0.688-0.3-1.404-0.463-2.142-0.512c-0.53-0.034-0.815-0.32-0.932-0.776
	c-0.151-0.594-0.095-1.197,0.123-1.771c0.131-0.347,0.435-0.441,0.788-0.432c0.563,0.016,1.082-0.114,1.575-0.417
	c0.554-0.34,1.132-0.205,1.52,0.328C71.146,30.399,71.693,30.822,71.489,31.503z"/>
<path fill="#0B6259" d="M65.74,38.099c0.003,0.288-0.112,0.509-0.656,0.729c-0.574,0.233-1.026,0.43-1.601,0.163
	c-0.718-0.334-1.217-0.905-1.602-1.568c-0.38-0.655-0.701-1.346-1.054-2.018c-0.176-0.333-0.039-0.555,0.271-0.638
	c0.647-0.173,1.304-0.309,1.953,0.017c0.59,0.296,1.19,0.573,1.774,0.881C65.425,35.979,65.694,36.676,65.74,38.099z"/>
<path fill="#036259" d="M41.321,71.77c-1.384-0.179-2.743-0.136-4.019-0.599c-1.057-0.384-2.106-0.796-3.146-1.228
	c-1.161-0.48-2.319-1.129-3.654-1.114c-0.173,0.002-0.377-0.065-0.516-0.17c-1.04-0.79-2.156-1.472-3.09-2.409
	c-0.668-0.671-1.26-1.463-2.198-1.82c-0.095-0.037-0.193-0.137-0.235-0.229c-0.252-0.565-0.738-0.785-1.291-0.943
	c-0.948-0.271-1.577-0.856-2.15-1.7c-0.488-0.722-0.928-1.513-1.55-2.148c-0.063-0.066-0.132-0.184-0.2-0.184
	c-0.875-0.013-0.915-0.68-1.088-1.297c-0.161-0.572-0.423-1.113-0.794-1.604c-0.335-0.442-0.334-1.01-0.329-1.532
	c0.02-1.8,0.083-3.599,0.123-5.397c0.009-0.395,0.134-0.481,0.554-0.435c0.779,0.088,1.407,0.377,1.913,0.974
	c0.319,0.377,0.725,0.642,1.214,0.758c0.067,0.016,0.146,0.025,0.195,0.067c0.559,0.483,1.174,0.823,1.924,0.933
	c0.194,0.027,0.497,0.258,0.512,0.416c0.07,0.778,0.594,0.839,1.181,0.854c0.091,0.003,0.221,0.003,0.265,0.06
	c0.783,0.979,2.21,1.189,2.819,2.375c0.162,0.314,0.418,0.549,0.742,0.701c0.893,0.42,1.641,1.09,2.603,1.405
	c0.646,0.213,0.961,0.906,1.478,1.332c0.464,0.384,0.906,0.784,1.484,0.988c0.277,0.098,0.515,0.295,0.605,0.538
	c0.438,1.178,1.522,1.607,2.477,2.182c0.197,0.118,0.316,0.218,0.373,0.434c0.301,1.146,1.08,1.9,2.064,2.48
	c0.079,0.047,0.203,0.059,0.243,0.125c0.85,1.43,1.974,2.71,2.39,4.376c0.145,0.58-0.09,1.087-0.295,1.601
	C41.787,71.891,41.497,71.741,41.321,71.77z"/>
<path fill="#0B6259" d="M22.48,46.96c0.641,0.099,1.321-0.337,1.987,0.085c0.138,0.087,0.363,0.1,0.471,0.243
	c0.527,0.694,1.279,0.917,2.087,1.073c1.261,0.242,2.478,0.727,3.792,0.662c0.294-0.016,0.542,0.127,0.75,0.31
	c0.682,0.603,1.489,0.873,2.37,1.024c0.987,0.168,1.097,0.621,0.662,1.51c-0.494,1.007-1.645,1.546-1.846,2.746
	c-0.035,0.207-0.349,0.367-0.575,0.218c-0.436-0.286-0.978-0.548-1.215-0.968c-0.38-0.676-0.812-1.066-1.59-1.236
	c-1.341-0.292-2.371-1.164-3.405-2.033c-0.747-0.629-1.387-1.514-2.534-1.49c-0.412-0.664-1.239-0.793-1.734-1.342
	c-0.146-0.16-0.409-0.339-0.317-0.572c0.101-0.258,0.422-0.217,0.664-0.248C22.178,46.924,22.319,46.951,22.48,46.96z"/>
<path fill="#0B6259" d="M41.892,60.063c-0.239,1.275,0.751,2.056,1.24,3.029c0.316,0.631,0.218,1.104-0.417,1.192
	c-0.249,0.034-0.517-0.021-0.592-0.255c-0.405-1.256-1.553-1.91-2.296-2.891c-0.312-0.41-0.612-0.83-1.226-0.884
	c-0.242-0.021-0.47-0.278-0.557-0.569c-0.211-0.707-0.679-1.15-1.347-1.467c-0.516-0.242-0.967-0.619-1.445-0.938
	c-0.378-0.252-0.231-0.652-0.304-1.001c-0.216-1.029,0.565-1.503,1.111-2.104c0.166-0.182,0.413-0.285,0.616-0.437
	c0.344-0.255,0.529-0.192,0.91,0.098c0.612,0.468,0.788,1.302,1.526,1.625c0.132,0.058,0.194,0.3,0.262,0.47
	c0.254,0.645,0.541,1.252,1.061,1.75c0.564,0.543,0.75,1.365,1.316,1.926C41.851,59.706,41.848,59.908,41.892,60.063z"/>
</svg>
