<?xml version="1.0" encoding="utf-8"?>
<!-- Generator: Adobe Illustrator 16.0.0, SVG Export Plug-In . SVG Version: 6.00 Build 0)  -->
<!DOCTYPE svg PUBLIC "-//W3C//DTD SVG 1.1//EN" "http://www.w3.org/Graphics/SVG/1.1/DTD/svg11.dtd">
<svg version="1.1" id="Calque_1" xmlns="http://www.w3.org/2000/svg" xmlns:xlink="http://www.w3.org/1999/xlink" x="0px" y="0px"
	 width="90.5px" height="100.971px" viewBox="0 0 90.5 100.971" enable-background="new 0 0 90.5 100.971" xml:space="preserve">
<path opacity="0.1" fill="#EBBD21" enable-background="new    " d="M87.402,7.461c-1.123-4.688-4.495-7.459-9.459-7.457
	C56.799,0.013,35.655,0.007,14.511,0.011c-1.098,0-2.198-0.063-3.293,0.119C9.106,0.483,7.192,1.27,5.59,2.715
	C3.556,4.552,2.786,6.977,2.751,9.6c-0.074,5.649-0.02,11.3-0.018,16.95c0.208,0.008,0.416,0.021,0.623,0.021
	c27.934,0.003,55.867,0.003,83.801,0c0.208,0,0.415-0.015,0.622-0.021c0.003-5.274,0.003-10.55,0.007-15.825
	C87.787,9.621,87.659,8.532,87.402,7.461z"/>
<path fill="#EB6362" d="M2.727,25.521c0.208,0.008,0.416,0.022,0.623,0.022c27.934,0.001,55.867,0.001,83.8,0
	c0.209,0,0.416-0.017,0.623-0.022c0.744,0.012,1.488,0.041,2.23,0.021c0.391-0.011,0.48,0.132,0.489,0.503
	c0.026,1.549,0.039,1.546-1.485,1.55c-0.412,0.001-0.824,0.021-1.236,0.03c-0.019-0.019-0.03-0.036-0.039-0.059
	c0.119-1.059,0.119-1.059-0.883-1.059c-27.732,0-55.467,0-83.199,0c-0.125,0-0.251,0.015-0.374-0.002
	c-0.443-0.063-0.613,0.134-0.555,0.563c0.022,0.163,0.031,0.329,0.046,0.494c-0.01,0.021-0.022,0.041-0.04,0.06
	c-0.743-0.013-1.487-0.042-2.23-0.023c-0.386,0.009-0.486-0.126-0.493-0.5c-0.028-1.552-0.04-1.55,1.482-1.553
	C1.902,25.548,2.314,25.53,2.727,25.521z"/>
<path fill="#E75030" d="M2.769,27.567c-0.015-0.165-0.023-0.331-0.046-0.492c-0.058-0.434,0.112-0.628,0.555-0.565
	C3.4,26.524,3.527,26.51,3.652,26.51c27.732,0,55.465,0,83.198,0c1.002,0,1.002,0,0.883,1.059c-0.248,0.017-0.496,0.047-0.744,0.047
	c-27.824,0.002-55.65,0.002-83.475,0C3.264,27.613,3.017,27.583,2.769,27.567z"/>
<path fill="#EABD26" d="M47.098,49.521c-1.139,0-2.277-0.007-3.415,0.001c-2.107,0.018-2.254-1.104-2.074-2.56
	c0.086-0.692,0.539-1.248,1.254-1.289c2.001-0.115,4.012-0.147,6.008,0.02c0.876,0.073,1.333,0.934,1.297,1.997
	c-0.034,1.048-0.458,1.587-1.395,1.776C48.218,49.579,47.657,49.494,47.098,49.521z"/>
<path fill="#EABC21" d="M87.73,27.567c-0.248,0.018-0.494,0.046-0.742,0.046c-27.825,0.004-55.651,0.004-83.476,0
	c-0.248,0-0.496-0.028-0.743-0.046c-0.01,0.021-0.022,0.041-0.04,0.06c0.002,0.229,0.005,0.459,0.005,0.688
	c0,20.564,0,41.129-0.001,61.693c0,0.729,0.001,1.457,0.114,2.182c0.428,2.742,1.441,5.178,3.71,6.916
	c1.867,1.434,4.041,1.864,6.339,1.864c21.42-0.003,42.84-0.003,64.261,0.003c0.92,0,1.831-0.068,2.725-0.27
	c3.067-0.691,5.568-2.166,6.958-5.141c0.646-1.383,0.913-2.854,0.917-4.368c0.017-4.941,0.007-9.886,0.007-14.826
	c0.002-16.247,0.004-32.494,0.004-48.741C87.754,27.608,87.741,27.589,87.73,27.567z"/>
<path fill="#FFFFFF" d="M46.129,82.006c-9.615,0-19.229,0.001-28.843-0.001c-0.979,0-1.952-0.089-2.914-0.265
	c-1.962-0.357-2.977-1.5-3.236-3.575c-0.28-2.24-0.169-4.49-0.15-6.735c0.025-3.063,0.085-6.126-0.111-9.187
	c-0.035-0.539-0.026-1.084,0.005-1.624c0.107-1.835,1.113-2.836,2.936-3.029c1.458-0.155,2.905,0.054,4.357,0.059
	c0.893,0.003,1.787,0.077,2.679,0.076c3.455-0.002,6.909-0.014,10.363-0.036c1.33-0.009,2.66-0.079,3.99-0.078
	c2.052,0.001,2.668,0.672,2.314,2.688c-0.994,5.651,3.363,9.205,8.108,9.303c2.508,0.052,4.783-0.594,6.586-2.439
	c1.694-1.738,2.277-3.874,2.071-6.25c-0.052-0.604-0.112-1.204-0.08-1.811c0.043-0.814,0.442-1.238,1.255-1.383
	c0.743-0.133,1.489-0.1,2.238-0.096c4.701,0.029,9.402,0.087,14.104,0.052c1.954-0.015,3.909-0.027,5.863-0.066
	c0.25-0.005,0.501-0.001,0.748,0.031c1.805,0.239,2.46,0.984,2.459,2.815c-0.004,5.397-0.008,10.799-0.025,16.197
	c-0.011,3.492-1.757,5.285-5.25,5.356c-2.102,0.042-4.205,0.011-6.307,0.011c-7.721,0.001-15.441,0-23.161,0
	C46.129,82.016,46.129,82.011,46.129,82.006z"/>
<path fill="#FFFFFF" d="M48.486,53.725c-8.368,0-16.736,0.006-25.104-0.004c-2.163-0.002-4.326-0.05-6.489-0.086
	c-0.918-0.015-1.827,0.07-2.736,0.172c-0.309,0.034-0.625,0.047-0.934,0.026c-1.39-0.091-2-0.671-2.242-2.051
	c-0.176-1.01-0.089-1.999,0.18-2.971c0.485-1.751,1.924-2.861,3.897-3.106c1.659-0.205,3.325-0.135,4.987-0.143
	c4.347-0.02,8.694,0.018,13.041,0.024c0.519,0.001,1.036-0.003,1.554-0.095c1.62-0.288,2.384-1.141,2.466-2.793
	c0.026-0.521-0.018-1.053,0.071-1.562c0.333-1.902,1.716-3.158,3.773-3.434c2.092-0.279,4.197-0.12,6.296-0.122
	c1.388-0.002,2.786-0.146,4.16,0.223c2.207,0.589,3.193,1.847,3.201,4.132c0,0.271-0.002,0.544,0.035,0.813
	c0.268,1.865,1.303,2.776,3.272,2.828c1.269,0.03,2.538-0.014,3.808-0.013c4.685,0.006,9.366,0.008,14.051,0.03
	c0.813,0.004,1.609,0.188,2.365,0.508c1.771,0.757,2.688,2.097,2.709,4.032c0.006,0.501,0.01,1.002-0.018,1.502
	c-0.072,1.386-0.75,2.059-2.122,2.088c-0.666,0.017-1.332-0.024-1.997-0.024C67.302,53.699,57.895,53.7,48.482,53.7
	C48.486,53.709,48.486,53.718,48.486,53.725z M47.148,45.578c0.56-0.027,1.121,0.058,1.678-0.057
	c0.938-0.188,1.359-0.729,1.395-1.774c0.035-1.065-0.421-1.924-1.297-1.997c-1.997-0.167-4.007-0.135-6.008-0.021
	c-0.716,0.041-1.168,0.599-1.254,1.289c-0.181,1.454-0.033,2.575,2.074,2.562C44.873,45.571,46.01,45.578,47.148,45.578z"/>
<rect x="8.874" y="2.025" fill="none" width="72.75" height="23.639"/>
<g enable-background="new    ">
	<path fill="#17635B" d="M31.099,9.715c0,0.107-0.004,0.198-0.014,0.271c-0.009,0.073-0.022,0.134-0.04,0.183
		c-0.018,0.048-0.04,0.083-0.067,0.104c-0.026,0.021-0.058,0.032-0.094,0.032h-3.185c-0.118,0-0.217-0.035-0.298-0.104
		c-0.08-0.07-0.121-0.184-0.121-0.341V3.549c0-0.036,0.012-0.068,0.035-0.097c0.023-0.028,0.062-0.052,0.116-0.07
		c0.054-0.018,0.126-0.031,0.217-0.043c0.092-0.01,0.205-0.016,0.341-0.016c0.14,0,0.254,0.006,0.344,0.016
		c0.089,0.012,0.161,0.025,0.215,0.043c0.054,0.019,0.092,0.042,0.116,0.07c0.023,0.028,0.035,0.061,0.035,0.097V9.14h2.186
		c0.036,0,0.067,0.011,0.094,0.03c0.027,0.02,0.049,0.052,0.067,0.097s0.031,0.104,0.04,0.177
		C31.094,9.517,31.099,9.608,31.099,9.715z"/>
	<path fill="#17635B" d="M35.933,10.14c0,0.05-0.018,0.089-0.054,0.117c-0.036,0.029-0.092,0.05-0.169,0.063
		s-0.19,0.019-0.341,0.019c-0.162,0-0.279-0.006-0.353-0.019s-0.125-0.033-0.155-0.063c-0.03-0.028-0.046-0.067-0.046-0.117V9.758
		c-0.197,0.211-0.422,0.376-0.674,0.494c-0.253,0.118-0.533,0.177-0.841,0.177c-0.255,0-0.487-0.032-0.701-0.099
		c-0.213-0.066-0.397-0.165-0.553-0.296c-0.156-0.131-0.277-0.293-0.363-0.486s-0.129-0.418-0.129-0.676
		c0-0.279,0.055-0.522,0.164-0.729c0.109-0.206,0.272-0.376,0.489-0.51c0.216-0.135,0.486-0.234,0.809-0.299
		c0.321-0.064,0.696-0.096,1.122-0.096h0.467V6.948c0-0.15-0.015-0.281-0.045-0.395c-0.03-0.112-0.081-0.207-0.15-0.281
		c-0.07-0.076-0.163-0.131-0.279-0.167s-0.261-0.054-0.433-0.054c-0.226,0-0.427,0.025-0.604,0.075
		c-0.177,0.05-0.333,0.105-0.47,0.167c-0.136,0.061-0.25,0.116-0.341,0.166c-0.092,0.05-0.166,0.075-0.223,0.075
		c-0.04,0-0.074-0.013-0.105-0.038C31.925,6.473,31.9,6.437,31.88,6.39c-0.02-0.046-0.035-0.104-0.045-0.172
		c-0.011-0.067-0.016-0.143-0.016-0.225c0-0.111,0.009-0.199,0.027-0.264s0.052-0.123,0.102-0.175s0.138-0.109,0.263-0.172
		s0.272-0.12,0.441-0.175c0.168-0.053,0.352-0.097,0.55-0.131c0.199-0.034,0.404-0.051,0.615-0.051c0.376,0,0.697,0.036,0.964,0.109
		s0.486,0.187,0.658,0.339s0.297,0.348,0.376,0.588s0.118,0.524,0.118,0.854V10.14z M34.605,8.087H34.09
		c-0.218,0-0.404,0.017-0.559,0.049c-0.153,0.032-0.279,0.08-0.376,0.145c-0.096,0.064-0.167,0.143-0.212,0.234
		c-0.044,0.091-0.067,0.195-0.067,0.314c0,0.2,0.064,0.357,0.191,0.473c0.127,0.114,0.304,0.172,0.528,0.172
		c0.19,0,0.365-0.049,0.524-0.146s0.321-0.238,0.485-0.425V8.087z"/>
	<path fill="#17635B" d="M44.591,7.663c0,0.426-0.047,0.81-0.14,1.149s-0.228,0.63-0.403,0.87c-0.175,0.24-0.391,0.424-0.646,0.553
		s-0.547,0.193-0.873,0.193c-0.161,0-0.312-0.015-0.451-0.045s-0.273-0.08-0.4-0.148c-0.127-0.067-0.252-0.153-0.376-0.258
		c-0.123-0.104-0.249-0.229-0.378-0.375v0.521c0,0.039-0.011,0.072-0.03,0.1c-0.02,0.026-0.052,0.049-0.097,0.067
		c-0.045,0.018-0.104,0.03-0.18,0.037s-0.166,0.011-0.273,0.011c-0.111,0-0.204-0.004-0.277-0.011s-0.132-0.02-0.177-0.037
		c-0.045-0.019-0.076-0.041-0.095-0.067c-0.018-0.027-0.026-0.061-0.026-0.1V3.06c0-0.035,0.011-0.067,0.032-0.096
		c0.021-0.029,0.059-0.054,0.11-0.073s0.12-0.034,0.206-0.046c0.086-0.01,0.195-0.016,0.328-0.016s0.242,0.006,0.328,0.016
		c0.086,0.012,0.154,0.026,0.206,0.046s0.089,0.044,0.11,0.073c0.021,0.028,0.032,0.061,0.032,0.096v2.648
		c0.122-0.122,0.243-0.226,0.365-0.312s0.243-0.156,0.365-0.212s0.247-0.096,0.376-0.121s0.265-0.037,0.408-0.037
		c0.354,0,0.655,0.07,0.902,0.212s0.448,0.332,0.604,0.571c0.155,0.24,0.27,0.521,0.341,0.841S44.591,7.309,44.591,7.663z
		 M43.188,7.76c0-0.204-0.015-0.401-0.045-0.591s-0.084-0.358-0.158-0.505c-0.076-0.146-0.173-0.264-0.293-0.352
		s-0.271-0.132-0.454-0.132c-0.09,0-0.177,0.013-0.263,0.037c-0.086,0.025-0.175,0.068-0.267,0.129
		c-0.091,0.062-0.185,0.141-0.282,0.236c-0.096,0.098-0.198,0.217-0.306,0.36v1.59c0.189,0.243,0.371,0.429,0.545,0.556
		s0.355,0.191,0.546,0.191c0.175,0,0.323-0.045,0.445-0.135s0.223-0.206,0.304-0.35c0.08-0.143,0.139-0.306,0.175-0.488
		C43.171,8.125,43.188,7.943,43.188,7.76z"/>
	<path fill="#17635B" d="M50.515,7.679c0,0.408-0.054,0.781-0.161,1.117c-0.107,0.337-0.271,0.627-0.489,0.871
		c-0.218,0.243-0.492,0.431-0.821,0.563s-0.714,0.198-1.155,0.198c-0.426,0-0.796-0.059-1.111-0.177s-0.576-0.29-0.784-0.516
		s-0.361-0.503-0.462-0.833c-0.101-0.329-0.15-0.705-0.15-1.127c0-0.408,0.055-0.782,0.164-1.12c0.109-0.339,0.272-0.629,0.491-0.87
		c0.219-0.242,0.491-0.429,0.819-0.562c0.327-0.133,0.711-0.198,1.152-0.198c0.43,0,0.802,0.058,1.117,0.174
		c0.314,0.116,0.575,0.287,0.781,0.514c0.206,0.225,0.358,0.503,0.459,0.832S50.515,7.253,50.515,7.679z M49.124,7.734
		c0-0.236-0.02-0.454-0.057-0.653c-0.038-0.198-0.102-0.371-0.191-0.519c-0.089-0.146-0.208-0.261-0.356-0.344
		c-0.148-0.082-0.336-0.123-0.562-0.123c-0.2,0-0.376,0.037-0.526,0.11s-0.274,0.181-0.37,0.322c-0.098,0.142-0.17,0.312-0.218,0.51
		c-0.049,0.199-0.073,0.426-0.073,0.68c0,0.236,0.021,0.454,0.06,0.652c0.039,0.199,0.103,0.372,0.19,0.519s0.207,0.261,0.357,0.341
		c0.15,0.081,0.337,0.121,0.559,0.121c0.204,0,0.381-0.037,0.531-0.11s0.274-0.18,0.371-0.319s0.168-0.309,0.215-0.508
		C49.101,8.214,49.124,7.988,49.124,7.734z"/>
	<path fill="#17635B" d="M51.713,4.301c-0.025,0.039-0.05,0.071-0.075,0.097s-0.059,0.044-0.102,0.057s-0.098,0.021-0.164,0.026
		c-0.066,0.006-0.153,0.009-0.261,0.009c-0.144,0-0.253-0.007-0.33-0.02s-0.128-0.032-0.153-0.059
		c-0.025-0.027-0.027-0.063-0.008-0.11s0.055-0.103,0.104-0.167l0.849-1.197c0.021-0.036,0.049-0.063,0.083-0.083
		s0.079-0.037,0.135-0.052c0.056-0.014,0.122-0.023,0.201-0.029c0.079-0.005,0.174-0.008,0.284-0.008
		c0.115,0,0.211,0.004,0.288,0.011s0.142,0.018,0.193,0.032s0.094,0.032,0.126,0.054s0.061,0.047,0.086,0.075l0.844,1.197
		c0.05,0.068,0.084,0.125,0.102,0.17s0.015,0.08-0.011,0.107c-0.025,0.026-0.076,0.046-0.153,0.059s-0.186,0.02-0.324,0.02
		c-0.115,0-0.205-0.003-0.271-0.009c-0.066-0.005-0.12-0.015-0.161-0.029s-0.073-0.033-0.095-0.057S52.855,4.34,52.83,4.301
		l-0.559-0.806L51.713,4.301z M52.938,10.123c0,0.036-0.011,0.067-0.032,0.094c-0.021,0.027-0.059,0.05-0.11,0.067
		s-0.12,0.031-0.206,0.04s-0.195,0.014-0.328,0.014s-0.242-0.005-0.328-0.014s-0.154-0.022-0.206-0.04s-0.089-0.04-0.11-0.067
		c-0.021-0.026-0.032-0.058-0.032-0.094V5.332c0-0.036,0.011-0.067,0.032-0.094c0.021-0.027,0.059-0.05,0.11-0.067
		s0.12-0.031,0.206-0.04s0.195-0.014,0.328-0.014s0.242,0.005,0.328,0.014s0.154,0.022,0.206,0.04s0.089,0.04,0.11,0.067
		c0.021,0.026,0.032,0.058,0.032,0.094V10.123z"/>
	<path fill="#17635B" d="M57.121,9.651c0,0.157-0.01,0.278-0.029,0.362s-0.046,0.144-0.078,0.178s-0.08,0.064-0.143,0.091
		c-0.063,0.027-0.136,0.051-0.22,0.07s-0.176,0.034-0.274,0.046c-0.099,0.01-0.197,0.016-0.298,0.016
		c-0.269,0-0.501-0.034-0.698-0.102c-0.197-0.068-0.36-0.173-0.489-0.314s-0.224-0.32-0.284-0.535S54.517,8.993,54.517,8.7V6.245
		h-0.575c-0.068,0-0.12-0.042-0.155-0.126c-0.036-0.084-0.055-0.225-0.055-0.422c0-0.104,0.005-0.191,0.014-0.263
		c0.009-0.072,0.022-0.129,0.041-0.17c0.018-0.041,0.04-0.07,0.066-0.088c0.027-0.019,0.059-0.027,0.094-0.027h0.57V4.081
		c0-0.036,0.01-0.068,0.029-0.098c0.02-0.028,0.056-0.053,0.107-0.072s0.121-0.034,0.209-0.043s0.196-0.014,0.325-0.014
		c0.133,0,0.242,0.005,0.33,0.014s0.157,0.023,0.207,0.043s0.086,0.044,0.107,0.072c0.021,0.029,0.032,0.062,0.032,0.098V5.15h1.042
		c0.036,0,0.067,0.009,0.094,0.027c0.027,0.018,0.05,0.047,0.067,0.088s0.031,0.098,0.04,0.17c0.009,0.071,0.014,0.159,0.014,0.263
		c0,0.197-0.018,0.338-0.054,0.422s-0.088,0.126-0.156,0.126h-1.047v2.25c0,0.262,0.041,0.458,0.123,0.589
		c0.083,0.131,0.229,0.196,0.441,0.196c0.071,0,0.136-0.007,0.193-0.02c0.057-0.013,0.107-0.026,0.152-0.043
		c0.045-0.016,0.083-0.03,0.113-0.043s0.058-0.019,0.083-0.019c0.021,0,0.042,0.006,0.062,0.019s0.035,0.038,0.046,0.075
		c0.011,0.038,0.021,0.089,0.029,0.153S57.121,9.55,57.121,9.651z"/>
	<path fill="#17635B" d="M62.391,7.588c0,0.165-0.037,0.286-0.11,0.365s-0.174,0.118-0.303,0.118h-2.917
		c0,0.204,0.024,0.39,0.072,0.556c0.049,0.167,0.126,0.309,0.231,0.425s0.241,0.205,0.408,0.266
		c0.166,0.061,0.366,0.092,0.599,0.092c0.236,0,0.444-0.018,0.623-0.052s0.334-0.071,0.465-0.112s0.239-0.079,0.325-0.113
		s0.155-0.051,0.209-0.051c0.032,0,0.059,0.006,0.08,0.019s0.04,0.035,0.055,0.067c0.014,0.032,0.023,0.078,0.029,0.137
		c0.005,0.06,0.008,0.134,0.008,0.223c0,0.079-0.002,0.146-0.006,0.202c-0.003,0.056-0.009,0.103-0.016,0.142
		c-0.007,0.04-0.018,0.073-0.032,0.1c-0.015,0.027-0.033,0.053-0.057,0.078s-0.087,0.059-0.19,0.102s-0.236,0.086-0.397,0.127
		s-0.346,0.077-0.554,0.107c-0.207,0.03-0.43,0.045-0.666,0.045c-0.426,0-0.799-0.053-1.119-0.16S58.54,9.998,58.325,9.78
		s-0.376-0.494-0.481-0.827s-0.158-0.724-0.158-1.171c0-0.426,0.056-0.811,0.167-1.152c0.11-0.342,0.271-0.632,0.482-0.87
		c0.212-0.238,0.469-0.42,0.771-0.545s0.644-0.188,1.023-0.188c0.4,0,0.743,0.059,1.028,0.177c0.284,0.118,0.519,0.282,0.7,0.491
		c0.184,0.21,0.317,0.458,0.403,0.744s0.129,0.598,0.129,0.935V7.588z M61.08,7.201c0.011-0.38-0.065-0.678-0.229-0.895
		s-0.414-0.325-0.755-0.325c-0.172,0-0.321,0.033-0.448,0.098s-0.232,0.15-0.316,0.26s-0.148,0.238-0.193,0.387
		s-0.071,0.308-0.078,0.476H61.08z"/>
</g>
<g enable-background="new    ">
	<path fill="#17635B" d="M33.153,21.64c0,0.05-0.018,0.089-0.054,0.117c-0.036,0.029-0.092,0.05-0.169,0.063
		c-0.077,0.013-0.191,0.019-0.341,0.019c-0.161,0-0.278-0.006-0.352-0.019c-0.073-0.013-0.125-0.033-0.155-0.063
		c-0.031-0.028-0.046-0.067-0.046-0.117v-0.382c-0.197,0.211-0.422,0.376-0.674,0.494c-0.253,0.118-0.533,0.177-0.841,0.177
		c-0.254,0-0.488-0.032-0.701-0.099c-0.213-0.066-0.397-0.165-0.553-0.296c-0.156-0.131-0.277-0.293-0.363-0.486
		s-0.129-0.418-0.129-0.676c0-0.279,0.055-0.522,0.164-0.729c0.109-0.206,0.272-0.376,0.489-0.51
		c0.216-0.135,0.486-0.234,0.808-0.299s0.696-0.096,1.123-0.096h0.467v-0.291c0-0.15-0.015-0.281-0.045-0.395
		c-0.031-0.112-0.081-0.207-0.15-0.281c-0.07-0.076-0.163-0.131-0.279-0.167c-0.117-0.036-0.261-0.054-0.433-0.054
		c-0.226,0-0.427,0.025-0.604,0.075c-0.177,0.05-0.333,0.105-0.47,0.167c-0.136,0.061-0.25,0.116-0.341,0.166
		c-0.092,0.05-0.166,0.075-0.223,0.075c-0.04,0-0.074-0.013-0.105-0.038c-0.03-0.024-0.055-0.061-0.075-0.107
		c-0.02-0.046-0.035-0.104-0.045-0.172c-0.011-0.067-0.016-0.143-0.016-0.225c0-0.111,0.009-0.199,0.027-0.264
		s0.052-0.123,0.102-0.175s0.138-0.109,0.263-0.172s0.272-0.12,0.44-0.175c0.168-0.053,0.352-0.097,0.55-0.131
		c0.199-0.034,0.404-0.051,0.615-0.051c0.376,0,0.697,0.036,0.964,0.109c0.267,0.073,0.486,0.187,0.658,0.339
		s0.297,0.348,0.376,0.588s0.118,0.524,0.118,0.854V21.64z M31.687,15.71c0.032,0.046,0.052,0.087,0.059,0.123
		s-0.004,0.065-0.035,0.089c-0.03,0.023-0.08,0.04-0.15,0.051c-0.069,0.011-0.167,0.017-0.292,0.017
		c-0.104,0-0.19-0.004-0.258-0.012c-0.068-0.007-0.125-0.018-0.172-0.031c-0.046-0.015-0.085-0.033-0.116-0.057
		c-0.03-0.023-0.06-0.053-0.088-0.089l-1.037-1.246c-0.036-0.039-0.056-0.077-0.059-0.112c-0.003-0.036,0.015-0.067,0.056-0.095
		c0.042-0.026,0.11-0.047,0.207-0.062s0.228-0.021,0.392-0.021c0.118,0,0.217,0.004,0.298,0.011c0.08,0.007,0.147,0.019,0.201,0.035
		c0.054,0.016,0.098,0.038,0.132,0.067c0.034,0.028,0.065,0.063,0.094,0.102L31.687,15.71z M31.827,19.587h-0.516
		c-0.218,0-0.405,0.017-0.559,0.049s-0.279,0.08-0.376,0.145s-0.167,0.143-0.212,0.234c-0.044,0.091-0.067,0.195-0.067,0.314
		c0,0.2,0.063,0.357,0.191,0.473c0.127,0.114,0.303,0.172,0.529,0.172c0.19,0,0.364-0.049,0.524-0.146
		c0.159-0.097,0.321-0.238,0.486-0.425V19.587z"/>
	<path fill="#17635B" d="M41.833,19.179c0,0.408-0.054,0.781-0.161,1.117c-0.107,0.337-0.271,0.627-0.489,0.871
		c-0.218,0.243-0.492,0.431-0.821,0.563s-0.714,0.198-1.155,0.198c-0.426,0-0.796-0.059-1.111-0.177s-0.576-0.29-0.784-0.516
		s-0.361-0.503-0.462-0.833c-0.101-0.329-0.15-0.705-0.15-1.127c0-0.408,0.055-0.782,0.164-1.12c0.109-0.339,0.272-0.629,0.491-0.87
		c0.219-0.242,0.491-0.429,0.819-0.562c0.327-0.133,0.711-0.198,1.152-0.198c0.43,0,0.802,0.058,1.117,0.174
		c0.314,0.116,0.575,0.287,0.781,0.514c0.206,0.225,0.358,0.503,0.459,0.832S41.833,18.753,41.833,19.179z M40.442,19.234
		c0-0.236-0.02-0.454-0.057-0.653c-0.038-0.198-0.102-0.371-0.191-0.519c-0.089-0.146-0.208-0.261-0.356-0.344
		c-0.148-0.082-0.336-0.123-0.562-0.123c-0.2,0-0.376,0.037-0.526,0.11s-0.274,0.181-0.37,0.322c-0.098,0.142-0.17,0.312-0.218,0.51
		c-0.049,0.199-0.073,0.426-0.073,0.68c0,0.236,0.021,0.454,0.06,0.652c0.039,0.199,0.103,0.372,0.19,0.519s0.207,0.261,0.357,0.341
		c0.15,0.081,0.337,0.121,0.559,0.121c0.204,0,0.381-0.037,0.531-0.11s0.274-0.18,0.371-0.319s0.168-0.309,0.215-0.508
		C40.419,19.714,40.442,19.488,40.442,19.234z"/>
	<path fill="#17635B" d="M47.445,21.623c0,0.036-0.009,0.067-0.027,0.094c-0.018,0.027-0.049,0.05-0.094,0.067
		s-0.104,0.031-0.177,0.04s-0.166,0.014-0.276,0.014c-0.119,0-0.215-0.005-0.288-0.014s-0.132-0.022-0.175-0.04
		s-0.073-0.04-0.091-0.067c-0.018-0.026-0.026-0.058-0.026-0.094V21.07c-0.266,0.287-0.535,0.502-0.809,0.645
		c-0.274,0.144-0.558,0.215-0.852,0.215c-0.329,0-0.606-0.053-0.83-0.16s-0.404-0.255-0.542-0.441
		c-0.138-0.186-0.236-0.401-0.296-0.646c-0.059-0.245-0.088-0.551-0.088-0.916v-2.933c0-0.036,0.01-0.067,0.029-0.094
		c0.02-0.027,0.056-0.05,0.107-0.067s0.121-0.031,0.209-0.04s0.196-0.014,0.325-0.014c0.133,0,0.241,0.005,0.327,0.014
		s0.155,0.022,0.207,0.04s0.089,0.04,0.11,0.067c0.021,0.026,0.032,0.058,0.032,0.094v2.707c0,0.251,0.016,0.442,0.049,0.575
		c0.031,0.132,0.081,0.246,0.147,0.341s0.15,0.168,0.252,0.22c0.103,0.052,0.222,0.078,0.357,0.078c0.172,0,0.345-0.063,0.519-0.188
		c0.174-0.126,0.358-0.309,0.556-0.549v-3.185c0-0.036,0.01-0.067,0.029-0.094c0.02-0.027,0.056-0.05,0.107-0.067
		s0.121-0.031,0.207-0.04s0.195-0.014,0.327-0.014c0.133,0,0.242,0.005,0.328,0.014s0.154,0.022,0.204,0.04s0.086,0.04,0.107,0.067
		c0.021,0.026,0.032,0.058,0.032,0.094V21.623z"/>
	<path fill="#17635B" d="M53.483,16.65c0.15,0,0.255,0.032,0.313,0.097c0.06,0.064,0.089,0.157,0.089,0.279v4.598
		c0,0.036-0.011,0.067-0.032,0.094c-0.021,0.027-0.058,0.05-0.107,0.067s-0.119,0.031-0.207,0.04s-0.196,0.014-0.325,0.014
		c-0.132,0-0.242-0.005-0.33-0.014s-0.156-0.022-0.207-0.04c-0.05-0.018-0.086-0.04-0.107-0.067
		c-0.021-0.026-0.031-0.058-0.031-0.094v-3.878h-2.154v2.25c0,0.262,0.041,0.458,0.123,0.589c0.083,0.131,0.229,0.196,0.441,0.196
		c0.071,0,0.136-0.007,0.193-0.02c0.057-0.013,0.107-0.026,0.152-0.043c0.045-0.016,0.083-0.03,0.113-0.043s0.058-0.019,0.083-0.019
		c0.021,0,0.042,0.006,0.062,0.019s0.035,0.038,0.046,0.075c0.011,0.038,0.021,0.089,0.029,0.153s0.014,0.146,0.014,0.247
		c0,0.157-0.009,0.276-0.026,0.357c-0.019,0.08-0.043,0.14-0.076,0.177c-0.031,0.038-0.08,0.07-0.145,0.097
		c-0.064,0.027-0.139,0.051-0.223,0.07s-0.176,0.034-0.274,0.046c-0.099,0.01-0.197,0.016-0.298,0.016
		c-0.269,0-0.501-0.034-0.698-0.102c-0.197-0.068-0.36-0.173-0.489-0.314s-0.224-0.32-0.284-0.535s-0.091-0.469-0.091-0.762v-2.455
		h-0.575c-0.068,0-0.12-0.042-0.155-0.126c-0.036-0.084-0.055-0.225-0.055-0.422c0-0.104,0.005-0.191,0.014-0.263
		c0.009-0.072,0.022-0.129,0.041-0.17c0.018-0.041,0.04-0.07,0.066-0.088c0.027-0.019,0.059-0.027,0.094-0.027h0.57v-1.068
		c0-0.036,0.01-0.068,0.029-0.098c0.02-0.028,0.056-0.053,0.107-0.072s0.121-0.034,0.209-0.043s0.196-0.014,0.325-0.014
		c0.133,0,0.242,0.005,0.33,0.014s0.157,0.023,0.207,0.043s0.086,0.044,0.107,0.072c0.021,0.029,0.032,0.062,0.032,0.098v1.068
		H53.483z M53.993,15.21c0,0.272-0.056,0.46-0.166,0.564c-0.111,0.104-0.317,0.155-0.618,0.155c-0.305,0-0.51-0.05-0.615-0.15
		s-0.158-0.281-0.158-0.542c0-0.272,0.055-0.462,0.164-0.567s0.315-0.158,0.62-0.158c0.301,0,0.505,0.051,0.612,0.153
		C53.939,14.767,53.993,14.948,53.993,15.21z"/>
	<path fill="#17635B" d="M56.599,21.623c0,0.036-0.011,0.067-0.032,0.094c-0.021,0.027-0.059,0.05-0.11,0.067
		s-0.12,0.031-0.206,0.04s-0.195,0.014-0.328,0.014s-0.242-0.005-0.328-0.014s-0.154-0.022-0.206-0.04s-0.089-0.04-0.11-0.067
		c-0.021-0.026-0.032-0.058-0.032-0.094V14.56c0-0.035,0.011-0.067,0.032-0.096c0.021-0.029,0.059-0.054,0.11-0.073
		s0.12-0.034,0.206-0.046c0.086-0.01,0.195-0.016,0.328-0.016s0.242,0.006,0.328,0.016c0.086,0.012,0.154,0.026,0.206,0.046
		s0.089,0.044,0.11,0.073c0.021,0.028,0.032,0.061,0.032,0.096V21.623z"/>
	<path fill="#17635B" d="M61.319,20.27c0,0.272-0.051,0.512-0.153,0.72c-0.102,0.208-0.246,0.381-0.432,0.521
		c-0.187,0.139-0.407,0.244-0.661,0.313c-0.254,0.07-0.53,0.104-0.827,0.104c-0.179,0-0.35-0.013-0.513-0.04
		c-0.163-0.026-0.31-0.061-0.438-0.102s-0.236-0.083-0.322-0.126s-0.148-0.084-0.188-0.121c-0.039-0.038-0.07-0.097-0.092-0.178
		c-0.021-0.08-0.031-0.199-0.031-0.357c0-0.104,0.003-0.187,0.01-0.249c0.008-0.063,0.019-0.113,0.033-0.15
		c0.014-0.038,0.031-0.063,0.053-0.075s0.049-0.02,0.081-0.02c0.039,0,0.098,0.022,0.175,0.067s0.173,0.095,0.287,0.147
		c0.114,0.055,0.248,0.104,0.4,0.15c0.152,0.047,0.324,0.07,0.518,0.07c0.122,0,0.23-0.013,0.325-0.037
		c0.095-0.025,0.178-0.062,0.247-0.107c0.07-0.047,0.123-0.106,0.158-0.178c0.036-0.071,0.055-0.154,0.055-0.247
		c0-0.107-0.033-0.199-0.1-0.276s-0.154-0.145-0.264-0.201c-0.109-0.058-0.232-0.111-0.37-0.162
		c-0.138-0.05-0.279-0.105-0.425-0.166c-0.145-0.061-0.286-0.131-0.424-0.209c-0.138-0.079-0.262-0.176-0.371-0.291
		c-0.109-0.114-0.196-0.252-0.263-0.413s-0.1-0.354-0.1-0.58c0-0.229,0.045-0.439,0.134-0.631c0.09-0.191,0.219-0.355,0.387-0.491
		c0.169-0.137,0.374-0.242,0.615-0.317c0.242-0.075,0.514-0.112,0.814-0.112c0.15,0,0.296,0.01,0.438,0.031s0.27,0.049,0.384,0.081
		s0.211,0.067,0.29,0.104c0.079,0.038,0.135,0.07,0.169,0.097c0.034,0.027,0.059,0.054,0.073,0.081
		c0.014,0.026,0.024,0.059,0.031,0.097c0.008,0.037,0.014,0.084,0.02,0.14c0.005,0.056,0.008,0.124,0.008,0.207
		c0,0.096-0.003,0.175-0.008,0.236c-0.006,0.061-0.015,0.108-0.027,0.145s-0.029,0.06-0.051,0.072s-0.047,0.02-0.075,0.02
		c-0.032,0-0.082-0.02-0.15-0.057c-0.068-0.038-0.153-0.078-0.255-0.121c-0.103-0.043-0.221-0.083-0.354-0.121
		c-0.135-0.037-0.288-0.057-0.46-0.057c-0.121,0-0.227,0.013-0.316,0.038s-0.163,0.061-0.221,0.107
		c-0.057,0.047-0.1,0.102-0.129,0.164c-0.028,0.063-0.043,0.13-0.043,0.201c0,0.111,0.034,0.204,0.103,0.279
		s0.157,0.142,0.269,0.198c0.111,0.058,0.237,0.111,0.379,0.162c0.142,0.05,0.284,0.104,0.43,0.163
		c0.145,0.06,0.288,0.128,0.43,0.207s0.268,0.176,0.379,0.29c0.11,0.114,0.2,0.252,0.268,0.411
		C61.285,19.863,61.319,20.051,61.319,20.27z"/>
</g>
</svg>
