<?xml version="1.0" encoding="utf-8"?>
<!-- Generator: Adobe Illustrator 16.0.0, SVG Export Plug-In . SVG Version: 6.00 Build 0)  -->
<!DOCTYPE svg PUBLIC "-//W3C//DTD SVG 1.1//EN" "http://www.w3.org/Graphics/SVG/1.1/DTD/svg11.dtd">
<svg version="1.1" id="Calque_1" xmlns="http://www.w3.org/2000/svg" xmlns:xlink="http://www.w3.org/1999/xlink" x="0px" y="0px"
	 width="90.5px" height="100.971px" viewBox="0 0 90.5 100.971" enable-background="new 0 0 90.5 100.971" xml:space="preserve">
<path fill="#E3700C" d="M87.732,27.566c-0.248,0.019-0.494,0.046-0.742,0.046c-27.825,0.005-55.651,0.005-83.478,0
	c-0.247,0-0.495-0.027-0.741-0.046c-0.012,0.021-0.022,0.041-0.041,0.061c0.002,0.229,0.006,0.459,0.006,0.688
	c0,20.564,0,41.129-0.002,61.693c0,0.729,0.002,1.457,0.115,2.182c0.428,2.742,1.439,5.179,3.709,6.916
	c1.866,1.435,4.041,1.864,6.34,1.864c21.42-0.003,42.84-0.003,64.261,0.003c0.92,0,1.831-0.068,2.725-0.27
	c3.067-0.691,5.568-2.166,6.958-5.142c0.646-1.383,0.913-2.854,0.917-4.368c0.017-4.94,0.007-9.886,0.007-14.825
	c0.002-16.247,0.004-32.494,0.004-48.741C87.756,27.607,87.743,27.588,87.732,27.566z"/>
<path fill="#E3700C" d="M87.732,27.567c-0.248,0.019-0.494,0.046-0.742,0.046c-27.825,0.005-55.651,0.005-83.478,0
	c-0.247,0-0.495-0.027-0.741-0.046c-0.012,0.021-0.022,0.041-0.041,0.061c0.002,0.229,0.006,0.459,0.006,0.688
	c0,20.564,0,41.129-0.002,61.693c0,0.729,0.002,1.457,0.115,2.182c0.428,2.742,1.439,5.179,3.709,6.916
	c1.866,1.435,4.041,1.864,6.34,1.864c21.42-0.003,42.84-0.003,64.261,0.003c0.92,0,1.831-0.068,2.725-0.27
	c3.067-0.691,5.568-2.166,6.958-5.142c0.646-1.383,0.913-2.854,0.917-4.368c0.017-4.94,0.007-9.886,0.007-14.825
	c0.002-16.247,0.004-32.494,0.004-48.741C87.756,27.608,87.743,27.589,87.732,27.567z"/>
<path opacity="0.1" fill="#EBBD21" enable-background="new    " d="M87.402,7.461c-1.123-4.688-4.495-7.459-9.459-7.457
	C56.799,0.013,35.655,0.007,14.511,0.011c-1.098,0-2.198-0.063-3.293,0.119C9.106,0.483,7.192,1.27,5.59,2.715
	C3.556,4.552,2.786,6.977,2.751,9.6c-0.074,5.649-0.02,11.3-0.018,16.95c0.208,0.008,0.416,0.021,0.623,0.021
	c27.934,0.003,55.867,0.003,83.801,0c0.208,0,0.415-0.015,0.622-0.021c0.003-5.274,0.003-10.55,0.007-15.825
	C87.787,9.621,87.659,8.532,87.402,7.461z"/>
<path fill="#EB6362" d="M2.727,25.521c0.208,0.008,0.416,0.022,0.623,0.022c27.934,0.001,55.867,0.001,83.8,0
	c0.209,0,0.416-0.017,0.623-0.022c0.744,0.012,1.488,0.041,2.23,0.021c0.391-0.011,0.48,0.132,0.489,0.503
	c0.026,1.549,0.039,1.546-1.485,1.55c-0.412,0.001-0.824,0.021-1.236,0.03c-0.019-0.019-0.03-0.036-0.039-0.059
	c0.119-1.059,0.119-1.059-0.883-1.059c-27.732,0-55.467,0-83.199,0c-0.125,0-0.251,0.015-0.374-0.002
	c-0.443-0.063-0.613,0.134-0.555,0.563c0.022,0.163,0.031,0.329,0.046,0.494c-0.01,0.021-0.022,0.041-0.04,0.06
	c-0.743-0.013-1.487-0.042-2.23-0.023c-0.386,0.009-0.486-0.126-0.493-0.5c-0.028-1.552-0.04-1.55,1.482-1.553
	C1.902,25.548,2.314,25.53,2.727,25.521z"/>
<path fill="#E75030" d="M2.769,27.567c-0.015-0.165-0.023-0.331-0.046-0.492c-0.058-0.434,0.112-0.628,0.555-0.565
	C3.4,26.524,3.527,26.51,3.652,26.51c27.732,0,55.465,0,83.198,0c1.002,0,1.002,0,0.883,1.059c-0.248,0.017-0.496,0.047-0.744,0.047
	c-27.824,0.002-55.65,0.002-83.475,0C3.264,27.613,3.017,27.583,2.769,27.567z"/>
<path fill="#EABD26" d="M47.098,49.521c-1.139,0-2.277-0.007-3.415,0.001c-2.107,0.018-2.254-1.104-2.074-2.56
	c0.086-0.692,0.539-1.248,1.254-1.289c2.001-0.115,4.012-0.147,6.008,0.02c0.876,0.073,1.333,0.934,1.297,1.997
	c-0.034,1.048-0.458,1.587-1.395,1.776C48.218,49.579,47.657,49.494,47.098,49.521z"/>
<rect x="8.874" y="2.192" fill="none" width="72.75" height="23.472"/>
<g enable-background="new    ">
	<path fill="#17635B" d="M28.69,8.447c0.043,0.129,0.069,0.231,0.08,0.306c0.011,0.076-0.004,0.132-0.043,0.17
		c-0.039,0.037-0.109,0.061-0.209,0.069C28.418,9,28.28,9.005,28.104,9.005c-0.183,0-0.325-0.003-0.427-0.008
		c-0.103-0.006-0.18-0.017-0.234-0.032c-0.054-0.017-0.091-0.039-0.113-0.067s-0.04-0.066-0.054-0.112L26.81,7.389H24.2l-0.44,1.358
		c-0.014,0.05-0.033,0.092-0.056,0.126c-0.023,0.034-0.061,0.062-0.113,0.081c-0.052,0.02-0.125,0.033-0.22,0.04
		c-0.095,0.007-0.22,0.011-0.374,0.011c-0.165,0-0.293-0.005-0.387-0.017c-0.093-0.01-0.158-0.036-0.193-0.077
		s-0.048-0.1-0.038-0.175s0.038-0.176,0.081-0.301l2.143-6.166c0.021-0.061,0.046-0.11,0.075-0.147
		c0.029-0.038,0.074-0.066,0.137-0.086c0.063-0.02,0.15-0.032,0.261-0.038c0.111-0.005,0.258-0.008,0.44-0.008
		c0.211,0,0.379,0.003,0.505,0.008c0.125,0.006,0.223,0.019,0.293,0.038c0.069,0.02,0.12,0.049,0.15,0.089
		c0.03,0.039,0.056,0.093,0.078,0.16L28.69,8.447z M25.5,3.35h-0.005l-0.983,2.953h1.971L25.5,3.35z"/>
	<path fill="#17635B" d="M34.405,6.33c0,0.426-0.047,0.81-0.14,1.149s-0.228,0.63-0.403,0.87c-0.175,0.24-0.391,0.424-0.646,0.553
		s-0.547,0.193-0.873,0.193c-0.161,0-0.312-0.015-0.451-0.045s-0.273-0.08-0.4-0.148c-0.127-0.067-0.252-0.153-0.376-0.258
		c-0.123-0.104-0.249-0.229-0.378-0.375V8.79c0,0.039-0.011,0.072-0.03,0.1c-0.02,0.026-0.052,0.049-0.097,0.067
		c-0.045,0.018-0.104,0.03-0.18,0.037s-0.166,0.011-0.273,0.011c-0.111,0-0.204-0.004-0.277-0.011s-0.132-0.02-0.177-0.037
		c-0.045-0.019-0.076-0.041-0.095-0.067c-0.018-0.027-0.026-0.061-0.026-0.1V1.727c0-0.035,0.011-0.067,0.032-0.096
		c0.021-0.029,0.059-0.054,0.11-0.073s0.12-0.034,0.206-0.046c0.086-0.01,0.195-0.016,0.328-0.016s0.242,0.006,0.328,0.016
		c0.086,0.012,0.154,0.026,0.206,0.046s0.089,0.044,0.11,0.073c0.021,0.028,0.032,0.061,0.032,0.096v2.648
		c0.122-0.122,0.243-0.226,0.365-0.312s0.243-0.156,0.365-0.212s0.247-0.096,0.376-0.121s0.265-0.037,0.408-0.037
		c0.354,0,0.655,0.07,0.902,0.212s0.448,0.332,0.604,0.571c0.155,0.24,0.27,0.521,0.341,0.841S34.405,5.976,34.405,6.33z
		 M33.003,6.427c0-0.204-0.015-0.401-0.045-0.591S32.874,5.478,32.8,5.331c-0.076-0.146-0.173-0.264-0.293-0.352
		s-0.271-0.132-0.454-0.132c-0.09,0-0.177,0.013-0.263,0.037c-0.086,0.025-0.175,0.068-0.267,0.129
		c-0.091,0.062-0.185,0.141-0.282,0.236c-0.096,0.098-0.198,0.217-0.306,0.36V7.2c0.189,0.243,0.371,0.429,0.545,0.556
		s0.355,0.191,0.546,0.191c0.175,0,0.323-0.045,0.445-0.135s0.223-0.206,0.304-0.35c0.08-0.143,0.139-0.306,0.175-0.488
		C32.985,6.792,33.003,6.61,33.003,6.427z"/>
	<path fill="#17635B" d="M39.91,6.255c0,0.165-0.037,0.286-0.11,0.365s-0.174,0.118-0.303,0.118H36.58
		c0,0.204,0.024,0.39,0.072,0.556c0.049,0.167,0.126,0.309,0.231,0.425s0.241,0.205,0.408,0.266
		c0.166,0.061,0.366,0.092,0.599,0.092c0.236,0,0.444-0.018,0.623-0.052s0.334-0.071,0.465-0.112s0.239-0.079,0.325-0.113
		s0.155-0.051,0.209-0.051c0.032,0,0.059,0.006,0.08,0.019s0.04,0.035,0.055,0.067c0.014,0.032,0.023,0.078,0.029,0.137
		c0.005,0.06,0.008,0.134,0.008,0.223c0,0.079-0.002,0.146-0.006,0.202c-0.003,0.056-0.009,0.103-0.016,0.142
		c-0.007,0.04-0.018,0.073-0.032,0.1c-0.015,0.027-0.033,0.053-0.057,0.078s-0.087,0.059-0.19,0.102s-0.236,0.086-0.397,0.127
		s-0.346,0.077-0.554,0.107c-0.207,0.03-0.43,0.045-0.666,0.045c-0.426,0-0.799-0.053-1.119-0.16s-0.588-0.271-0.803-0.489
		s-0.376-0.494-0.481-0.827s-0.158-0.724-0.158-1.171c0-0.426,0.056-0.811,0.167-1.152c0.11-0.342,0.271-0.632,0.482-0.87
		c0.212-0.238,0.469-0.42,0.771-0.545s0.644-0.188,1.023-0.188c0.4,0,0.743,0.059,1.028,0.177c0.284,0.118,0.519,0.282,0.7,0.491
		c0.184,0.21,0.317,0.458,0.403,0.744S39.91,5.703,39.91,6.04V6.255z M38.6,5.868c0.011-0.38-0.065-0.678-0.229-0.895
		s-0.414-0.325-0.755-0.325c-0.172,0-0.321,0.033-0.448,0.098s-0.232,0.15-0.316,0.26s-0.148,0.238-0.193,0.387
		S36.587,5.7,36.58,5.868H38.6z M37.843,1.647c0.024-0.039,0.055-0.073,0.091-0.102c0.036-0.029,0.081-0.052,0.134-0.067
		c0.055-0.017,0.122-0.028,0.205-0.035c0.082-0.007,0.182-0.011,0.301-0.011c0.164,0,0.294,0.007,0.389,0.021
		s0.163,0.035,0.204,0.062c0.041,0.027,0.061,0.059,0.057,0.095c-0.004,0.035-0.021,0.073-0.054,0.112l-1.042,1.246
		c-0.028,0.036-0.058,0.065-0.086,0.089s-0.065,0.042-0.11,0.057c-0.045,0.014-0.101,0.024-0.169,0.031
		c-0.068,0.008-0.154,0.012-0.258,0.012c-0.125,0-0.225-0.006-0.298-0.017s-0.125-0.027-0.153-0.051S37.013,3.036,37.018,3
		c0.006-0.036,0.024-0.077,0.057-0.123L37.843,1.647z"/>
	<path fill="#17635B" d="M44.647,8.028c0,0.093-0.003,0.171-0.009,0.233c-0.005,0.063-0.013,0.116-0.021,0.159
		s-0.02,0.077-0.032,0.104c-0.013,0.026-0.04,0.061-0.083,0.102s-0.116,0.092-0.22,0.15c-0.104,0.06-0.223,0.112-0.355,0.159
		c-0.132,0.046-0.276,0.084-0.432,0.112c-0.156,0.028-0.316,0.043-0.48,0.043c-0.369,0-0.696-0.058-0.98-0.172
		c-0.285-0.114-0.523-0.284-0.717-0.508s-0.34-0.497-0.438-0.819s-0.147-0.69-0.147-1.105c0-0.48,0.06-0.895,0.18-1.244
		c0.12-0.349,0.287-0.638,0.502-0.867s0.47-0.399,0.764-0.51c0.293-0.111,0.615-0.167,0.967-0.167c0.143,0,0.283,0.013,0.421,0.038
		c0.138,0.024,0.267,0.059,0.387,0.102s0.228,0.092,0.322,0.145c0.095,0.055,0.162,0.101,0.202,0.141
		c0.039,0.039,0.066,0.072,0.083,0.099c0.016,0.027,0.028,0.062,0.037,0.104s0.017,0.097,0.021,0.159
		c0.006,0.063,0.009,0.139,0.009,0.228c0,0.208-0.019,0.354-0.055,0.438c-0.035,0.084-0.082,0.126-0.139,0.126
		c-0.062,0-0.126-0.025-0.193-0.075c-0.068-0.05-0.149-0.105-0.242-0.167c-0.093-0.061-0.204-0.116-0.333-0.166
		s-0.283-0.075-0.462-0.075c-0.351,0-0.619,0.135-0.806,0.405s-0.279,0.667-0.279,1.189c0,0.258,0.023,0.485,0.069,0.683
		c0.047,0.197,0.116,0.361,0.207,0.494c0.092,0.133,0.206,0.231,0.344,0.298s0.299,0.1,0.48,0.1c0.187,0,0.347-0.027,0.481-0.083
		c0.134-0.056,0.251-0.117,0.352-0.186s0.185-0.13,0.253-0.186c0.067-0.056,0.125-0.083,0.172-0.083c0.031,0,0.059,0.009,0.08,0.027
		c0.021,0.018,0.038,0.051,0.051,0.099c0.013,0.049,0.022,0.11,0.029,0.186C44.644,7.813,44.647,7.909,44.647,8.028z"/>
	<path fill="#17635B" d="M50.051,6.255c0,0.165-0.037,0.286-0.11,0.365s-0.174,0.118-0.303,0.118h-2.917
		c0,0.204,0.024,0.39,0.072,0.556c0.049,0.167,0.126,0.309,0.231,0.425s0.241,0.205,0.408,0.266
		c0.166,0.061,0.366,0.092,0.599,0.092c0.236,0,0.444-0.018,0.623-0.052s0.334-0.071,0.465-0.112s0.239-0.079,0.325-0.113
		s0.155-0.051,0.209-0.051c0.032,0,0.059,0.006,0.08,0.019s0.04,0.035,0.055,0.067c0.014,0.032,0.023,0.078,0.029,0.137
		c0.005,0.06,0.008,0.134,0.008,0.223c0,0.079-0.002,0.146-0.006,0.202c-0.003,0.056-0.009,0.103-0.016,0.142
		c-0.007,0.04-0.018,0.073-0.032,0.1c-0.015,0.027-0.033,0.053-0.057,0.078s-0.087,0.059-0.19,0.102s-0.236,0.086-0.397,0.127
		s-0.346,0.077-0.554,0.107c-0.207,0.03-0.43,0.045-0.666,0.045c-0.426,0-0.799-0.053-1.119-0.16S46.2,8.665,45.985,8.447
		s-0.376-0.494-0.481-0.827s-0.158-0.724-0.158-1.171c0-0.426,0.056-0.811,0.167-1.152c0.11-0.342,0.271-0.632,0.482-0.87
		c0.212-0.238,0.469-0.42,0.771-0.545s0.644-0.188,1.023-0.188c0.4,0,0.743,0.059,1.028,0.177c0.284,0.118,0.519,0.282,0.7,0.491
		c0.184,0.21,0.317,0.458,0.403,0.744s0.129,0.598,0.129,0.935V6.255z M48.74,5.868c0.011-0.38-0.065-0.678-0.229-0.895
		s-0.414-0.325-0.755-0.325c-0.172,0-0.321,0.033-0.448,0.098s-0.232,0.15-0.316,0.26s-0.148,0.238-0.193,0.387
		S46.728,5.7,46.721,5.868H48.74z M47.983,1.647c0.024-0.039,0.055-0.073,0.091-0.102c0.036-0.029,0.081-0.052,0.134-0.067
		c0.055-0.017,0.122-0.028,0.205-0.035c0.082-0.007,0.182-0.011,0.301-0.011c0.164,0,0.294,0.007,0.389,0.021
		s0.163,0.035,0.204,0.062c0.041,0.027,0.061,0.059,0.057,0.095c-0.004,0.035-0.021,0.073-0.054,0.112l-1.042,1.246
		c-0.028,0.036-0.058,0.065-0.086,0.089s-0.065,0.042-0.11,0.057c-0.045,0.014-0.101,0.024-0.169,0.031
		c-0.068,0.008-0.154,0.012-0.258,0.012c-0.125,0-0.225-0.006-0.298-0.017s-0.125-0.027-0.153-0.051S47.153,3.036,47.158,3
		c0.006-0.036,0.024-0.077,0.057-0.123L47.983,1.647z"/>
	<path fill="#17635B" d="M55.706,8.79c0,0.039-0.009,0.072-0.027,0.1c-0.018,0.026-0.048,0.049-0.091,0.067
		c-0.043,0.018-0.102,0.03-0.175,0.037s-0.164,0.011-0.271,0.011c-0.114,0-0.207-0.004-0.279-0.011
		c-0.071-0.007-0.129-0.02-0.174-0.037c-0.045-0.019-0.077-0.041-0.097-0.067c-0.02-0.027-0.03-0.061-0.03-0.1V8.258
		c-0.246,0.266-0.505,0.472-0.775,0.618s-0.57,0.22-0.9,0.22c-0.365,0-0.674-0.07-0.926-0.212c-0.253-0.142-0.459-0.332-0.618-0.571
		c-0.159-0.24-0.274-0.521-0.347-0.841c-0.071-0.32-0.107-0.658-0.107-1.013c0-0.426,0.046-0.81,0.138-1.149
		c0.091-0.34,0.225-0.63,0.399-0.87c0.176-0.24,0.395-0.424,0.656-0.553c0.261-0.129,0.562-0.193,0.902-0.193
		c0.268,0,0.512,0.054,0.73,0.163c0.218,0.109,0.435,0.27,0.649,0.481V1.743c0-0.036,0.01-0.068,0.029-0.097
		s0.056-0.053,0.107-0.072s0.121-0.035,0.207-0.046s0.195-0.017,0.327-0.017c0.133,0,0.242,0.006,0.328,0.017
		s0.154,0.026,0.204,0.046s0.086,0.044,0.107,0.072s0.032,0.061,0.032,0.097V8.79z M54.363,5.589
		c-0.193-0.243-0.379-0.43-0.556-0.559c-0.178-0.129-0.363-0.193-0.557-0.193c-0.175,0-0.326,0.044-0.453,0.132
		s-0.229,0.205-0.307,0.352s-0.134,0.311-0.172,0.491c-0.037,0.181-0.057,0.366-0.057,0.556c0,0.201,0.017,0.396,0.049,0.586
		s0.085,0.359,0.158,0.508s0.171,0.268,0.293,0.357c0.122,0.089,0.275,0.134,0.462,0.134c0.093,0,0.184-0.014,0.271-0.04
		c0.088-0.027,0.177-0.071,0.269-0.132c0.091-0.061,0.186-0.141,0.281-0.239c0.098-0.099,0.203-0.219,0.317-0.362V5.589z"/>
	<path fill="#17635B" d="M61.147,8.807c0,0.05-0.018,0.089-0.054,0.117c-0.036,0.029-0.092,0.05-0.169,0.063
		s-0.19,0.019-0.341,0.019c-0.162,0-0.279-0.006-0.353-0.019s-0.125-0.033-0.155-0.063c-0.03-0.028-0.046-0.067-0.046-0.117V8.425
		c-0.197,0.211-0.422,0.376-0.674,0.494c-0.253,0.118-0.533,0.177-0.841,0.177c-0.254,0-0.488-0.032-0.701-0.099
		s-0.397-0.165-0.553-0.296c-0.156-0.131-0.277-0.293-0.363-0.486S56.77,7.797,56.77,7.539c0-0.279,0.055-0.522,0.164-0.729
		s0.272-0.376,0.489-0.51c0.217-0.135,0.485-0.234,0.808-0.299s0.697-0.096,1.123-0.096h0.467V5.615c0-0.15-0.015-0.281-0.045-0.395
		c-0.03-0.112-0.081-0.207-0.15-0.281c-0.07-0.076-0.163-0.131-0.279-0.167s-0.261-0.054-0.433-0.054
		c-0.226,0-0.427,0.025-0.604,0.075c-0.177,0.05-0.334,0.105-0.47,0.167c-0.136,0.061-0.25,0.116-0.341,0.166
		c-0.092,0.05-0.166,0.075-0.223,0.075c-0.04,0-0.075-0.013-0.105-0.038c-0.03-0.024-0.056-0.061-0.075-0.107
		c-0.02-0.046-0.034-0.104-0.046-0.172c-0.01-0.067-0.016-0.143-0.016-0.225c0-0.111,0.009-0.199,0.027-0.264
		c0.018-0.064,0.052-0.123,0.102-0.175S57.3,4.113,57.426,4.05c0.125-0.063,0.271-0.12,0.439-0.175
		c0.169-0.053,0.353-0.097,0.551-0.131c0.199-0.034,0.404-0.051,0.615-0.051c0.376,0,0.697,0.036,0.964,0.109
		s0.486,0.187,0.658,0.339S60.95,4.49,61.029,4.73s0.118,0.524,0.118,0.854V8.807z M59.82,6.754h-0.516
		c-0.218,0-0.404,0.017-0.559,0.049c-0.153,0.032-0.279,0.08-0.375,0.145c-0.098,0.064-0.168,0.143-0.213,0.234
		c-0.045,0.091-0.066,0.195-0.066,0.314c0,0.2,0.063,0.357,0.19,0.473c0.127,0.114,0.304,0.172,0.528,0.172
		c0.19,0,0.365-0.049,0.524-0.146s0.321-0.238,0.485-0.425V6.754z"/>
	<path fill="#17635B" d="M63.952,2.377c0,0.272-0.056,0.46-0.167,0.564c-0.111,0.104-0.317,0.155-0.618,0.155
		c-0.304,0-0.509-0.05-0.614-0.15s-0.159-0.281-0.159-0.542c0-0.272,0.055-0.462,0.164-0.567s0.316-0.158,0.621-0.158
		c0.301,0,0.504,0.051,0.611,0.153C63.897,1.934,63.952,2.115,63.952,2.377z M63.85,8.79c0,0.036-0.011,0.067-0.032,0.094
		c-0.021,0.027-0.059,0.05-0.11,0.067s-0.12,0.031-0.206,0.04s-0.195,0.014-0.328,0.014S62.931,9,62.845,8.991
		s-0.154-0.022-0.206-0.04s-0.089-0.04-0.11-0.067c-0.021-0.026-0.032-0.058-0.032-0.094V4.01c0-0.036,0.011-0.067,0.032-0.094
		c0.021-0.027,0.059-0.051,0.11-0.07s0.12-0.035,0.206-0.045c0.086-0.012,0.195-0.017,0.328-0.017s0.242,0.005,0.328,0.017
		c0.086,0.01,0.154,0.025,0.206,0.045s0.089,0.043,0.11,0.07c0.021,0.026,0.032,0.058,0.032,0.094V8.79z"/>
	<path fill="#17635B" d="M68.274,4.446c0,0.129-0.003,0.234-0.01,0.316c-0.008,0.082-0.019,0.146-0.033,0.193
		c-0.014,0.047-0.032,0.079-0.056,0.097s-0.053,0.026-0.089,0.026c-0.028,0-0.061-0.006-0.097-0.019s-0.076-0.025-0.121-0.04
		s-0.094-0.027-0.147-0.04s-0.113-0.019-0.178-0.019c-0.074,0-0.15,0.015-0.225,0.045c-0.076,0.03-0.153,0.078-0.234,0.143
		c-0.08,0.064-0.164,0.15-0.252,0.258s-0.182,0.24-0.282,0.397V8.79c0,0.036-0.011,0.067-0.032,0.094
		c-0.021,0.027-0.059,0.05-0.11,0.067s-0.12,0.031-0.206,0.04s-0.195,0.014-0.328,0.014S65.632,9,65.546,8.991
		s-0.154-0.022-0.206-0.04s-0.089-0.04-0.11-0.067c-0.021-0.026-0.032-0.058-0.032-0.094V3.999c0-0.036,0.009-0.067,0.026-0.094
		c0.019-0.027,0.051-0.05,0.098-0.067c0.046-0.018,0.106-0.031,0.18-0.04s0.165-0.014,0.276-0.014c0.114,0,0.21,0.005,0.284,0.014
		c0.076,0.009,0.134,0.022,0.175,0.04s0.071,0.04,0.089,0.067c0.018,0.026,0.027,0.058,0.027,0.094v0.597
		c0.125-0.18,0.243-0.327,0.354-0.443c0.111-0.116,0.217-0.209,0.317-0.277c0.101-0.067,0.2-0.115,0.301-0.142
		c0.101-0.027,0.2-0.04,0.301-0.04c0.047,0,0.097,0.002,0.15,0.008c0.054,0.005,0.109,0.014,0.167,0.026
		c0.057,0.013,0.107,0.027,0.15,0.043c0.043,0.017,0.074,0.033,0.094,0.052c0.02,0.018,0.034,0.037,0.043,0.059
		s0.017,0.051,0.023,0.089c0.008,0.037,0.013,0.094,0.017,0.169S68.274,4.317,68.274,4.446z"/>
	<path fill="#17635B" d="M73.41,6.255c0,0.165-0.037,0.286-0.11,0.365s-0.174,0.118-0.303,0.118H70.08
		c0,0.204,0.024,0.39,0.072,0.556c0.049,0.167,0.126,0.309,0.231,0.425s0.241,0.205,0.408,0.266
		c0.166,0.061,0.366,0.092,0.599,0.092c0.236,0,0.444-0.018,0.623-0.052s0.334-0.071,0.465-0.112s0.239-0.079,0.325-0.113
		s0.155-0.051,0.209-0.051c0.032,0,0.059,0.006,0.08,0.019s0.04,0.035,0.055,0.067c0.014,0.032,0.023,0.078,0.029,0.137
		c0.005,0.06,0.008,0.134,0.008,0.223c0,0.079-0.002,0.146-0.006,0.202c-0.003,0.056-0.009,0.103-0.016,0.142
		c-0.007,0.04-0.018,0.073-0.032,0.1c-0.015,0.027-0.033,0.053-0.057,0.078s-0.087,0.059-0.19,0.102s-0.236,0.086-0.397,0.127
		s-0.346,0.077-0.554,0.107c-0.207,0.03-0.43,0.045-0.666,0.045c-0.426,0-0.799-0.053-1.119-0.16s-0.588-0.271-0.803-0.489
		s-0.376-0.494-0.481-0.827s-0.158-0.724-0.158-1.171c0-0.426,0.056-0.811,0.167-1.152c0.11-0.342,0.271-0.632,0.482-0.87
		c0.212-0.238,0.469-0.42,0.771-0.545s0.644-0.188,1.023-0.188c0.4,0,0.743,0.059,1.028,0.177c0.284,0.118,0.519,0.282,0.7,0.491
		c0.184,0.21,0.317,0.458,0.403,0.744S73.41,5.703,73.41,6.04V6.255z M72.1,5.868c0.011-0.38-0.065-0.678-0.229-0.895
		s-0.414-0.325-0.755-0.325c-0.172,0-0.321,0.033-0.448,0.098s-0.232,0.15-0.316,0.26s-0.148,0.238-0.193,0.387
		S70.087,5.7,70.08,5.868H72.1z"/>
</g>
<g enable-background="new    ">
	<path fill="#17635B" d="M34.156,21.382c0,0.107-0.004,0.198-0.014,0.271c-0.009,0.073-0.022,0.134-0.04,0.183
		c-0.018,0.048-0.04,0.083-0.067,0.104c-0.026,0.021-0.058,0.032-0.094,0.032h-3.185c-0.118,0-0.217-0.035-0.298-0.104
		c-0.08-0.07-0.121-0.184-0.121-0.341v-6.312c0-0.036,0.012-0.068,0.035-0.097c0.023-0.028,0.062-0.052,0.116-0.07
		c0.054-0.018,0.126-0.031,0.217-0.043c0.092-0.01,0.205-0.016,0.341-0.016c0.14,0,0.254,0.006,0.344,0.016
		c0.089,0.012,0.161,0.025,0.215,0.043c0.054,0.019,0.092,0.042,0.116,0.07c0.023,0.028,0.035,0.061,0.035,0.097v5.591h2.186
		c0.036,0,0.067,0.011,0.094,0.03c0.027,0.02,0.049,0.052,0.067,0.097s0.031,0.104,0.04,0.177
		C34.152,21.184,34.156,21.275,34.156,21.382z"/>
	<path fill="#17635B" d="M39.108,21.42c0,0.104-0.005,0.19-0.014,0.26c-0.009,0.07-0.022,0.127-0.04,0.17s-0.04,0.074-0.067,0.094
		c-0.026,0.02-0.057,0.029-0.088,0.029h-3.492c-0.118,0-0.217-0.035-0.298-0.104c-0.08-0.07-0.121-0.184-0.121-0.341v-6.059
		c0-0.158,0.041-0.271,0.121-0.342c0.081-0.069,0.18-0.104,0.298-0.104h3.47c0.031,0,0.061,0.009,0.086,0.026
		c0.024,0.019,0.046,0.05,0.064,0.095c0.018,0.045,0.031,0.102,0.04,0.172c0.009,0.069,0.013,0.158,0.013,0.266
		c0,0.101-0.004,0.186-0.013,0.255c-0.009,0.07-0.022,0.127-0.04,0.17c-0.019,0.043-0.04,0.074-0.064,0.094
		c-0.025,0.02-0.055,0.029-0.086,0.029h-2.482v1.697h2.101c0.032,0,0.062,0.01,0.089,0.029c0.026,0.02,0.049,0.051,0.066,0.092
		c0.019,0.041,0.032,0.097,0.041,0.166c0.009,0.07,0.014,0.155,0.014,0.256c0,0.104-0.005,0.189-0.014,0.258
		c-0.009,0.067-0.022,0.122-0.041,0.163c-0.018,0.041-0.04,0.071-0.066,0.089c-0.027,0.018-0.057,0.027-0.089,0.027h-2.101v1.96
		h2.504c0.031,0,0.062,0.01,0.088,0.029c0.027,0.02,0.05,0.052,0.067,0.095s0.031,0.099,0.04,0.169
		C39.104,21.229,39.108,21.316,39.108,21.42z"/>
	<path fill="#17635B" d="M45.914,21.447c0.043,0.129,0.069,0.231,0.08,0.306c0.011,0.076-0.004,0.132-0.043,0.17
		c-0.039,0.037-0.109,0.061-0.209,0.069c-0.101,0.009-0.238,0.014-0.414,0.014c-0.183,0-0.325-0.003-0.427-0.008
		c-0.103-0.006-0.181-0.017-0.233-0.032c-0.055-0.017-0.092-0.039-0.113-0.067s-0.039-0.066-0.054-0.112l-0.468-1.396h-2.609
		l-0.441,1.358c-0.014,0.05-0.032,0.092-0.056,0.126s-0.062,0.062-0.113,0.081s-0.125,0.033-0.22,0.04s-0.22,0.011-0.373,0.011
		c-0.165,0-0.294-0.005-0.387-0.017c-0.094-0.01-0.158-0.036-0.193-0.077c-0.036-0.041-0.049-0.1-0.038-0.175
		s0.038-0.176,0.081-0.301l2.143-6.166c0.021-0.061,0.047-0.11,0.075-0.147c0.028-0.038,0.074-0.066,0.137-0.086
		s0.149-0.032,0.261-0.038c0.111-0.005,0.258-0.008,0.44-0.008c0.211,0,0.38,0.003,0.505,0.008c0.125,0.006,0.223,0.019,0.293,0.038
		c0.069,0.02,0.12,0.049,0.15,0.089c0.03,0.039,0.057,0.093,0.078,0.16L45.914,21.447z M42.723,16.35h-0.005l-0.983,2.953h1.972
		L42.723,16.35z"/>
	<path fill="#17635B" d="M52.66,18.396c0,0.638-0.083,1.183-0.25,1.636c-0.166,0.453-0.405,0.822-0.717,1.109
		c-0.312,0.286-0.69,0.496-1.136,0.631c-0.446,0.134-0.977,0.201-1.593,0.201h-1.66c-0.117,0-0.217-0.035-0.298-0.104
		c-0.08-0.07-0.12-0.184-0.12-0.341v-6.059c0-0.158,0.04-0.271,0.12-0.342c0.081-0.069,0.181-0.104,0.298-0.104h1.783
		c0.62,0,1.146,0.072,1.577,0.218c0.432,0.145,0.795,0.359,1.09,0.645c0.296,0.284,0.521,0.637,0.675,1.055
		C52.583,17.36,52.66,17.844,52.66,18.396z M51.199,18.444c0-0.329-0.038-0.635-0.115-0.918s-0.201-0.528-0.371-0.736
		c-0.17-0.207-0.389-0.369-0.655-0.485s-0.616-0.175-1.05-0.175h-0.715v4.727h0.736c0.387,0,0.713-0.05,0.978-0.15
		s0.486-0.252,0.663-0.454c0.178-0.202,0.31-0.454,0.397-0.755S51.199,18.845,51.199,18.444z"/>
	<path fill="#17635B" d="M57.939,21.42c0,0.104-0.005,0.19-0.014,0.26c-0.009,0.07-0.022,0.127-0.04,0.17s-0.04,0.074-0.067,0.094
		c-0.026,0.02-0.057,0.029-0.088,0.029h-3.492c-0.117,0-0.217-0.035-0.298-0.104c-0.08-0.07-0.12-0.184-0.12-0.341v-6.059
		c0-0.158,0.04-0.271,0.12-0.342c0.081-0.069,0.181-0.104,0.298-0.104h3.471c0.031,0,0.061,0.009,0.086,0.026
		c0.024,0.019,0.046,0.05,0.064,0.095c0.018,0.045,0.031,0.102,0.04,0.172c0.009,0.069,0.013,0.158,0.013,0.266
		c0,0.101-0.004,0.186-0.013,0.255c-0.009,0.07-0.022,0.127-0.04,0.17c-0.019,0.043-0.04,0.074-0.064,0.094
		c-0.025,0.02-0.055,0.029-0.086,0.029h-2.482v1.697h2.101c0.032,0,0.062,0.01,0.089,0.029c0.026,0.02,0.049,0.051,0.066,0.092
		c0.019,0.041,0.032,0.097,0.041,0.166c0.009,0.07,0.014,0.155,0.014,0.256c0,0.104-0.005,0.189-0.014,0.258
		c-0.009,0.067-0.022,0.122-0.041,0.163c-0.018,0.041-0.04,0.071-0.066,0.089c-0.027,0.018-0.057,0.027-0.089,0.027h-2.101v1.96
		h2.504c0.031,0,0.062,0.01,0.088,0.029c0.027,0.02,0.05,0.052,0.067,0.095s0.031,0.099,0.04,0.169
		C57.935,21.229,57.939,21.316,57.939,21.42z"/>
	<path fill="#17635B" d="M64.342,21.79c0,0.039-0.008,0.072-0.021,0.1c-0.015,0.026-0.049,0.049-0.103,0.067
		c-0.054,0.018-0.133,0.03-0.236,0.037s-0.245,0.011-0.425,0.011c-0.15,0-0.27-0.004-0.359-0.011s-0.16-0.021-0.212-0.04
		s-0.089-0.045-0.11-0.075s-0.039-0.067-0.054-0.11l-0.623-1.552c-0.075-0.176-0.148-0.332-0.22-0.468
		c-0.072-0.136-0.151-0.25-0.239-0.341c-0.088-0.092-0.189-0.16-0.304-0.207s-0.247-0.07-0.397-0.07h-0.44v2.648
		c0,0.036-0.012,0.068-0.035,0.097s-0.062,0.052-0.115,0.069c-0.054,0.019-0.125,0.033-0.215,0.043
		c-0.09,0.012-0.204,0.017-0.344,0.017c-0.136,0-0.25-0.005-0.341-0.017c-0.092-0.01-0.164-0.024-0.218-0.043
		c-0.054-0.018-0.092-0.041-0.113-0.069s-0.031-0.061-0.031-0.097v-6.311c0-0.158,0.04-0.271,0.12-0.342
		c0.081-0.069,0.181-0.104,0.298-0.104h1.8c0.183,0,0.333,0.004,0.451,0.011s0.226,0.016,0.322,0.027
		c0.279,0.039,0.531,0.107,0.755,0.203c0.224,0.098,0.413,0.224,0.569,0.379c0.155,0.156,0.274,0.341,0.356,0.554
		c0.083,0.213,0.124,0.457,0.124,0.733c0,0.232-0.029,0.444-0.089,0.636c-0.059,0.191-0.146,0.362-0.26,0.513
		c-0.115,0.15-0.257,0.281-0.425,0.393s-0.36,0.2-0.575,0.269c0.104,0.05,0.202,0.111,0.293,0.183
		c0.092,0.071,0.178,0.158,0.258,0.261c0.081,0.102,0.157,0.218,0.229,0.349s0.142,0.278,0.209,0.443l0.586,1.369
		c0.054,0.137,0.09,0.236,0.107,0.299S64.342,21.754,64.342,21.79z M62.521,17.074c0-0.229-0.052-0.423-0.155-0.58
		c-0.104-0.157-0.274-0.269-0.511-0.333c-0.071-0.018-0.153-0.032-0.244-0.043c-0.092-0.011-0.218-0.017-0.379-0.017h-0.634v1.972
		h0.72c0.2,0,0.376-0.024,0.526-0.072c0.15-0.049,0.275-0.116,0.376-0.204s0.176-0.192,0.226-0.314S62.521,17.225,62.521,17.074z"/>
</g>
<path fill="#FFFFFF" d="M36.167,36.206c3.562,3.086,7.893,4.88,12.052,6.878c5.801,2.786,8.451,7.388,8.525,13.534
	c0.131,10.664,0.145,21.332,0,31.993c-0.09,6.613-2.54,7.894-8.506,4.804c-16.299-8.444-16.301-8.444-16.3-26.714
	c0-7.833,0.026-15.665,0.002-23.498c-0.009-3.143,0.539-5.98,3.546-7.713C35.699,35.742,35.926,35.98,36.167,36.206z M50.096,78.188
	c0.379-0.267,0.758-0.534,1.137-0.801c-2.318-6.462-4.64-12.924-7.291-20.304c-2.381,3.861-4.097,6.646-6.196,10.054
	C45.714,66.716,44.987,75.591,50.096,78.188z"/>
<path fill="#FFFFFF" d="M36.878,34.919c8.479-2.219,17.086-1.317,25.582-0.518c3.501,0.331,5.464,3.701,5.489,7.419
	c0.076,11.314,0.042,22.633,0.027,33.947c-0.002,1.875-0.463,3.599-2.14,4.87c-1.651-0.799-0.851-2.304-0.854-3.402
	c-0.076-10.315-0.17-20.638,0.012-30.95c0.081-4.537-1.807-6.656-6.225-7.314c-7.215-1.074-14.38-2.479-21.568-3.751
	C37.198,35.218,36.878,34.919,36.878,34.919z"/>
<path fill="#FFFFFF" d="M35.485,35.49c0.464-0.19,0.929-0.382,1.393-0.57c0,0,0.319,0.298,0.322,0.3
	c-0.343,0.33-0.689,0.658-1.034,0.986C35.926,35.98,35.699,35.742,35.485,35.49z"/>
</svg>
