<?xml version="1.0" encoding="utf-8"?>
<!-- Generator: Adobe Illustrator 16.0.0, SVG Export Plug-In . SVG Version: 6.00 Build 0)  -->
<!DOCTYPE svg PUBLIC "-//W3C//DTD SVG 1.1//EN" "http://www.w3.org/Graphics/SVG/1.1/DTD/svg11.dtd">
<svg version="1.1" id="Calque_1" xmlns="http://www.w3.org/2000/svg" xmlns:xlink="http://www.w3.org/1999/xlink" x="0px" y="0px"
	 width="90.5px" height="100.971px" viewBox="0 0 90.5 100.971" enable-background="new 0 0 90.5 100.971" xml:space="preserve">
<path fill="#E3700C" d="M87.73,27.567c-0.248,0.019-0.494,0.046-0.742,0.046c-27.825,0.005-55.651,0.005-83.479,0
	c-0.247,0-0.495-0.027-0.741-0.046c-0.012,0.021-0.022,0.041-0.041,0.061c0.002,0.229,0.006,0.459,0.006,0.688
	c0,20.564,0,41.129-0.002,61.693c0,0.729,0.002,1.457,0.115,2.182c0.428,2.742,1.439,5.179,3.709,6.916
	c1.866,1.435,4.041,1.864,6.34,1.864c21.42-0.003,42.84-0.003,64.261,0.003c0.92,0,1.831-0.068,2.725-0.27
	c3.067-0.691,5.568-2.166,6.958-5.142c0.646-1.383,0.913-2.854,0.917-4.368c0.017-4.94,0.007-9.886,0.007-14.825
	c0.002-16.247,0.004-32.494,0.004-48.741C87.754,27.608,87.741,27.589,87.73,27.567z"/>
<path opacity="0.1" fill="#EBBD21" enable-background="new    " d="M87.402,7.461c-1.123-4.688-4.495-7.459-9.459-7.457
	C56.799,0.013,35.655,0.007,14.511,0.011c-1.098,0-2.198-0.063-3.293,0.119C9.106,0.483,7.192,1.27,5.59,2.715
	C3.556,4.552,2.786,6.977,2.751,9.6c-0.074,5.649-0.02,11.3-0.018,16.95c0.208,0.008,0.416,0.021,0.623,0.021
	c27.934,0.003,55.867,0.003,83.801,0c0.208,0,0.415-0.015,0.622-0.021c0.003-5.274,0.003-10.55,0.007-15.825
	C87.787,9.621,87.659,8.532,87.402,7.461z"/>
<path fill="#EB6362" d="M2.727,25.521c0.208,0.008,0.416,0.022,0.623,0.022c27.934,0.001,55.867,0.001,83.8,0
	c0.209,0,0.416-0.017,0.623-0.022c0.744,0.012,1.488,0.041,2.23,0.021c0.391-0.011,0.48,0.132,0.489,0.503
	c0.026,1.549,0.039,1.546-1.485,1.55c-0.412,0.001-0.824,0.021-1.236,0.03c-0.019-0.019-0.03-0.036-0.039-0.059
	c0.119-1.059,0.119-1.059-0.883-1.059c-27.732,0-55.467,0-83.199,0c-0.125,0-0.251,0.015-0.374-0.002
	c-0.443-0.063-0.613,0.134-0.555,0.563c0.022,0.163,0.031,0.329,0.046,0.494c-0.01,0.021-0.022,0.041-0.04,0.06
	c-0.743-0.013-1.487-0.042-2.23-0.023c-0.386,0.009-0.486-0.126-0.493-0.5c-0.028-1.552-0.04-1.55,1.482-1.553
	C1.902,25.548,2.314,25.53,2.727,25.521z"/>
<path fill="#E75030" d="M2.769,27.567c-0.015-0.165-0.023-0.331-0.046-0.492c-0.058-0.434,0.112-0.628,0.555-0.565
	C3.4,26.524,3.527,26.51,3.652,26.51c27.732,0,55.465,0,83.198,0c1.002,0,1.002,0,0.883,1.059c-0.248,0.017-0.496,0.047-0.744,0.047
	c-27.824,0.002-55.65,0.002-83.475,0C3.264,27.613,3.017,27.583,2.769,27.567z"/>
<path fill="#EABD26" d="M47.098,49.521c-1.139,0-2.277-0.007-3.415,0.001c-2.107,0.018-2.254-1.104-2.074-2.56
	c0.086-0.692,0.539-1.248,1.254-1.289c2.001-0.115,4.012-0.147,6.008,0.02c0.876,0.073,1.333,0.934,1.297,1.997
	c-0.034,1.048-0.458,1.587-1.395,1.776C48.218,49.579,47.657,49.494,47.098,49.521z"/>
<rect x="8.874" y="7.859" fill="none" width="72.75" height="17.805"/>
<g enable-background="new    ">
	<path fill="#17635B" d="M34.316,14.114c0.043,0.129,0.069,0.231,0.08,0.306c0.011,0.076-0.004,0.132-0.043,0.17
		c-0.039,0.037-0.109,0.061-0.209,0.069c-0.101,0.009-0.238,0.014-0.414,0.014c-0.183,0-0.325-0.003-0.427-0.008
		c-0.103-0.006-0.18-0.017-0.234-0.032c-0.054-0.017-0.091-0.039-0.113-0.067s-0.04-0.066-0.054-0.112l-0.467-1.396h-2.61
		l-0.44,1.358c-0.014,0.05-0.033,0.092-0.056,0.126c-0.023,0.034-0.061,0.062-0.113,0.081c-0.052,0.02-0.125,0.033-0.22,0.04
		c-0.095,0.007-0.22,0.011-0.374,0.011c-0.165,0-0.293-0.005-0.387-0.017c-0.093-0.01-0.158-0.036-0.193-0.077
		s-0.048-0.1-0.038-0.175s0.038-0.176,0.081-0.301l2.143-6.166c0.021-0.061,0.046-0.11,0.075-0.147
		c0.029-0.038,0.074-0.066,0.137-0.086c0.063-0.02,0.15-0.032,0.261-0.038c0.111-0.005,0.258-0.008,0.44-0.008
		c0.211,0,0.379,0.003,0.505,0.008c0.125,0.006,0.223,0.019,0.293,0.038c0.069,0.02,0.12,0.049,0.15,0.089
		c0.03,0.039,0.056,0.093,0.078,0.16L34.316,14.114z M31.125,9.017H31.12l-0.983,2.953h1.971L31.125,9.017z"/>
	<path fill="#17635B" d="M39.526,9.999c0,0.172-0.02,0.299-0.06,0.381c-0.039,0.083-0.087,0.124-0.145,0.124h-0.564
		c0.079,0.086,0.136,0.184,0.17,0.293s0.051,0.223,0.051,0.341c0,0.279-0.047,0.527-0.14,0.744s-0.227,0.399-0.4,0.548
		s-0.383,0.261-0.628,0.338s-0.519,0.116-0.819,0.116c-0.154,0-0.301-0.02-0.44-0.057c-0.14-0.038-0.247-0.082-0.322-0.132
		c-0.043,0.047-0.081,0.103-0.115,0.167s-0.051,0.136-0.051,0.215c0,0.104,0.045,0.188,0.137,0.255
		c0.091,0.066,0.219,0.103,0.384,0.11l1.165,0.043c0.272,0.01,0.516,0.049,0.729,0.115s0.392,0.159,0.537,0.279
		c0.145,0.12,0.256,0.264,0.333,0.432c0.077,0.169,0.115,0.36,0.115,0.575c0,0.236-0.052,0.459-0.155,0.669
		c-0.104,0.209-0.26,0.391-0.468,0.545s-0.468,0.275-0.781,0.365s-0.68,0.135-1.099,0.135c-0.408,0-0.757-0.033-1.045-0.098
		s-0.524-0.153-0.709-0.268c-0.185-0.115-0.318-0.252-0.402-0.411s-0.127-0.334-0.127-0.524c0-0.117,0.016-0.23,0.046-0.338
		s0.075-0.21,0.135-0.309c0.059-0.099,0.132-0.192,0.218-0.282s0.184-0.176,0.295-0.258c-0.154-0.082-0.273-0.194-0.357-0.336
		s-0.126-0.296-0.126-0.464c0-0.212,0.048-0.404,0.146-0.578c0.096-0.174,0.222-0.33,0.375-0.47
		c-0.125-0.125-0.225-0.275-0.301-0.451c-0.074-0.176-0.112-0.394-0.112-0.655c0-0.279,0.049-0.529,0.147-0.749
		c0.099-0.221,0.235-0.406,0.411-0.559s0.385-0.269,0.628-0.35c0.244-0.08,0.513-0.12,0.807-0.12c0.15,0,0.294,0.009,0.432,0.026
		s0.266,0.043,0.385,0.075h1.52c0.061,0,0.11,0.039,0.147,0.118C39.508,9.681,39.526,9.813,39.526,9.999z M38.108,14.956
		c0-0.16-0.064-0.284-0.193-0.37s-0.306-0.133-0.532-0.14l-0.961-0.027c-0.093,0.068-0.167,0.134-0.223,0.196
		s-0.101,0.123-0.135,0.181c-0.034,0.057-0.057,0.112-0.066,0.166c-0.012,0.054-0.017,0.109-0.017,0.166
		c0,0.18,0.091,0.315,0.271,0.408c0.181,0.094,0.436,0.141,0.765,0.141c0.205,0,0.377-0.021,0.516-0.063
		c0.141-0.041,0.253-0.096,0.339-0.164c0.086-0.067,0.146-0.144,0.183-0.228S38.108,15.05,38.108,14.956z M37.791,11.132
		c0-0.258-0.071-0.458-0.215-0.602c-0.143-0.143-0.345-0.215-0.606-0.215c-0.133,0-0.249,0.022-0.349,0.067
		c-0.101,0.045-0.184,0.105-0.25,0.183s-0.115,0.167-0.148,0.269c-0.031,0.103-0.048,0.209-0.048,0.319
		c0,0.244,0.071,0.437,0.215,0.578s0.342,0.212,0.597,0.212c0.136,0,0.254-0.021,0.354-0.064c0.101-0.043,0.184-0.103,0.25-0.177
		c0.066-0.076,0.116-0.162,0.15-0.261S37.791,11.24,37.791,11.132z"/>
	<path fill="#17635B" d="M44.73,11.922c0,0.165-0.037,0.286-0.11,0.365s-0.174,0.118-0.303,0.118H41.4
		c0,0.204,0.024,0.39,0.072,0.556c0.049,0.167,0.126,0.309,0.231,0.425s0.241,0.205,0.408,0.266
		c0.166,0.061,0.366,0.092,0.599,0.092c0.236,0,0.444-0.018,0.623-0.052s0.334-0.071,0.465-0.112s0.239-0.079,0.325-0.113
		s0.155-0.051,0.209-0.051c0.032,0,0.059,0.006,0.08,0.019s0.04,0.035,0.055,0.067c0.014,0.032,0.023,0.078,0.029,0.137
		c0.005,0.06,0.008,0.134,0.008,0.223c0,0.079-0.002,0.146-0.006,0.202c-0.003,0.056-0.009,0.103-0.016,0.142
		c-0.007,0.04-0.018,0.073-0.032,0.1c-0.015,0.027-0.033,0.053-0.057,0.078s-0.087,0.059-0.19,0.102s-0.236,0.086-0.397,0.127
		s-0.346,0.077-0.554,0.107c-0.207,0.03-0.43,0.045-0.666,0.045c-0.426,0-0.799-0.053-1.119-0.16s-0.588-0.271-0.803-0.489
		s-0.376-0.494-0.481-0.827s-0.158-0.724-0.158-1.171c0-0.426,0.056-0.811,0.167-1.152c0.11-0.342,0.271-0.632,0.482-0.87
		c0.212-0.238,0.469-0.42,0.771-0.545s0.644-0.188,1.023-0.188c0.4,0,0.743,0.059,1.028,0.177c0.284,0.118,0.519,0.282,0.7,0.491
		c0.184,0.21,0.317,0.458,0.403,0.744s0.129,0.598,0.129,0.935V11.922z M43.42,11.535c0.011-0.38-0.065-0.678-0.229-0.895
		s-0.414-0.325-0.755-0.325c-0.172,0-0.321,0.033-0.448,0.098s-0.232,0.15-0.316,0.26s-0.148,0.238-0.193,0.387
		s-0.071,0.308-0.078,0.476H43.42z"/>
	<path fill="#17635B" d="M50.419,14.457c0,0.036-0.011,0.067-0.032,0.094c-0.021,0.027-0.058,0.05-0.107,0.067
		s-0.119,0.031-0.207,0.04s-0.195,0.014-0.324,0.014c-0.133,0-0.243-0.005-0.331-0.014s-0.156-0.022-0.206-0.04
		c-0.051-0.018-0.086-0.04-0.107-0.067c-0.021-0.026-0.033-0.058-0.033-0.094v-2.733c0-0.233-0.017-0.416-0.051-0.549
		c-0.034-0.132-0.083-0.246-0.147-0.341s-0.147-0.168-0.25-0.22c-0.102-0.052-0.221-0.078-0.356-0.078
		c-0.172,0-0.346,0.063-0.521,0.188c-0.176,0.126-0.358,0.309-0.548,0.549v3.185c0,0.036-0.011,0.067-0.032,0.094
		c-0.021,0.027-0.059,0.05-0.11,0.067s-0.12,0.031-0.206,0.04s-0.195,0.014-0.328,0.014s-0.242-0.005-0.328-0.014
		s-0.154-0.022-0.206-0.04s-0.089-0.04-0.11-0.067c-0.021-0.026-0.032-0.058-0.032-0.094V9.666c0-0.036,0.009-0.067,0.026-0.094
		c0.019-0.027,0.051-0.05,0.098-0.067c0.046-0.018,0.106-0.031,0.18-0.04s0.165-0.014,0.276-0.014c0.114,0,0.21,0.005,0.284,0.014
		c0.076,0.009,0.134,0.022,0.175,0.04s0.071,0.04,0.089,0.067c0.018,0.026,0.027,0.058,0.027,0.094v0.554
		c0.265-0.287,0.534-0.502,0.808-0.645c0.274-0.144,0.56-0.215,0.856-0.215c0.326,0,0.602,0.053,0.825,0.16s0.404,0.254,0.542,0.438
		s0.237,0.399,0.299,0.647c0.061,0.246,0.091,0.544,0.091,0.891V14.457z"/>
	<path fill="#17635B" d="M56.289,14.457c0,0.039-0.009,0.072-0.027,0.1c-0.018,0.026-0.048,0.049-0.091,0.067
		c-0.043,0.018-0.102,0.03-0.175,0.037s-0.164,0.011-0.271,0.011c-0.114,0-0.207-0.004-0.279-0.011
		c-0.071-0.007-0.129-0.02-0.174-0.037c-0.045-0.019-0.077-0.041-0.097-0.067c-0.02-0.027-0.03-0.061-0.03-0.1v-0.532
		c-0.246,0.266-0.505,0.472-0.775,0.618s-0.57,0.22-0.9,0.22c-0.365,0-0.674-0.07-0.926-0.212c-0.253-0.142-0.459-0.332-0.618-0.571
		c-0.159-0.24-0.274-0.521-0.347-0.841c-0.071-0.32-0.107-0.658-0.107-1.013c0-0.426,0.046-0.81,0.138-1.149
		c0.091-0.34,0.225-0.63,0.399-0.87c0.176-0.24,0.395-0.424,0.656-0.553c0.261-0.129,0.562-0.193,0.902-0.193
		c0.268,0,0.512,0.054,0.73,0.163c0.218,0.109,0.435,0.27,0.649,0.481V7.41c0-0.036,0.01-0.068,0.029-0.097s0.056-0.053,0.107-0.072
		s0.121-0.035,0.207-0.046s0.195-0.017,0.327-0.017c0.133,0,0.242,0.006,0.328,0.017s0.154,0.026,0.204,0.046
		s0.086,0.044,0.107,0.072s0.032,0.061,0.032,0.097V14.457z M54.946,11.256c-0.193-0.243-0.379-0.43-0.556-0.559
		c-0.178-0.129-0.363-0.193-0.557-0.193c-0.175,0-0.326,0.044-0.453,0.132s-0.229,0.205-0.307,0.352s-0.134,0.311-0.172,0.491
		c-0.037,0.181-0.057,0.366-0.057,0.556c0,0.201,0.017,0.396,0.049,0.586s0.085,0.359,0.158,0.508s0.171,0.268,0.293,0.357
		c0.122,0.089,0.275,0.134,0.462,0.134c0.093,0,0.184-0.014,0.271-0.04c0.088-0.027,0.177-0.071,0.269-0.132
		c0.091-0.061,0.186-0.141,0.281-0.239c0.098-0.099,0.203-0.219,0.317-0.362V11.256z"/>
	<path fill="#17635B" d="M61.729,14.474c0,0.05-0.018,0.089-0.054,0.117c-0.036,0.029-0.092,0.05-0.169,0.063
		s-0.19,0.019-0.341,0.019c-0.162,0-0.279-0.006-0.353-0.019s-0.125-0.033-0.155-0.063c-0.03-0.028-0.046-0.067-0.046-0.117v-0.382
		c-0.197,0.211-0.422,0.376-0.674,0.494c-0.253,0.118-0.533,0.177-0.841,0.177c-0.254,0-0.488-0.032-0.701-0.099
		s-0.397-0.165-0.553-0.296c-0.156-0.131-0.277-0.293-0.363-0.486s-0.129-0.418-0.129-0.676c0-0.279,0.055-0.522,0.164-0.729
		s0.272-0.376,0.489-0.51c0.217-0.135,0.485-0.234,0.808-0.299s0.697-0.096,1.123-0.096h0.467v-0.291
		c0-0.15-0.015-0.281-0.045-0.395c-0.03-0.112-0.081-0.207-0.15-0.281c-0.07-0.076-0.163-0.131-0.279-0.167
		s-0.261-0.054-0.433-0.054c-0.226,0-0.427,0.025-0.604,0.075c-0.177,0.05-0.334,0.105-0.47,0.167
		c-0.136,0.061-0.25,0.116-0.341,0.166c-0.092,0.05-0.166,0.075-0.223,0.075c-0.04,0-0.075-0.013-0.105-0.038
		c-0.03-0.024-0.056-0.061-0.075-0.107c-0.02-0.046-0.034-0.104-0.046-0.172c-0.01-0.067-0.016-0.143-0.016-0.225
		c0-0.111,0.009-0.199,0.027-0.264c0.018-0.064,0.052-0.123,0.102-0.175s0.138-0.109,0.264-0.172
		c0.125-0.063,0.271-0.12,0.439-0.175c0.169-0.053,0.353-0.097,0.551-0.131c0.199-0.034,0.404-0.051,0.615-0.051
		c0.376,0,0.697,0.036,0.964,0.109s0.486,0.187,0.658,0.339s0.297,0.348,0.376,0.588s0.118,0.524,0.118,0.854V14.474z
		 M60.402,12.421h-0.516c-0.218,0-0.404,0.017-0.559,0.049c-0.153,0.032-0.279,0.08-0.375,0.145
		c-0.098,0.064-0.168,0.143-0.213,0.234c-0.045,0.091-0.066,0.195-0.066,0.314c0,0.2,0.063,0.357,0.19,0.473
		c0.127,0.114,0.304,0.172,0.528,0.172c0.19,0,0.365-0.049,0.524-0.146s0.321-0.238,0.485-0.425V12.421z"/>
</g>
<path fill="#FFFFFF" d="M73.666,59.794c1.695,7.557,0.566,15.211,0.68,22.813c0.219,14.519,0.063,14.521-14.584,14.521
	c-11.324,0-22.646,0.014-33.97-0.005c-6.507-0.013-8.127-1.503-8.113-7.815c0.023-9.813,0.187-19.624,0.291-29.438
	C36.535,59.843,55.102,59.818,73.666,59.794z M63.652,92.582c3.406,0.495,6.779,0.497,6.195-5.862
	c-0.674-7.31,0.479-6.369-6.563-6.361c-8.267,0.011-7.484-1.042-7.505,5.766C55.762,93.594,55.193,92.476,63.652,92.582z
	 M44.86,92.447c4.768,0.332,8.632,1.06,8.033-5.555c-0.688-7.599,0.469-6.461-6.851-6.555c-1.494-0.021-2.988-0.012-4.482,0.004
	c-0.991,0.01-2.357-0.032-2.424,1.144c-0.185,3.3-0.763,6.828,0.157,9.859C40.091,93.978,43.455,91.953,44.86,92.447z
	 M29.196,80.336c-7.958,0.107-6.81-1.072-7.338,6.043c-0.376,5.065,1.131,6.648,6.271,6.308c8.295-0.553,7.671,1.06,7.72-6.223
	C35.89,80.337,35.86,80.337,29.196,80.336z M63.673,64.344c-7.901,0-7.901,0-7.905,5.771c-0.006,6.458-0.004,6.503,6.397,6.447
	c8.125-0.065,7.008,1.117,7.685-6.291C70.416,64.08,67.374,63.68,63.673,64.344z M46.605,76.569
	c3.396,0.442,6.888,0.586,6.313-5.801c-0.388-4.327-0.267-7.032-6.021-6.565c-8.652,0.697-7.948-1.019-8.004,5.88
	C38.842,76.567,38.877,76.567,46.605,76.569z M29.193,64.344c-7.992,0.095-6.811-0.99-7.335,6.044
	c-0.378,5.07,1.138,6.641,6.268,6.305c8.323-0.545,7.677,1.017,7.724-6.214C35.889,64.345,35.86,64.345,29.193,64.344z"/>
<path fill="#FFFFFF" d="M17.879,57.143c-1.238-4.077-0.644-8.248-0.461-12.36c0.184-4.125,2.464-6.465,6.796-6.161
	c3.142,0.219,5.616,0.027,5.132-4.252c-0.175-1.551,0.854-2.952,2.7-2.96c1.866-0.01,2.414,1.358,2.729,2.966
	c0.265,1.345-0.818,3.06,1.025,3.997c5.27,0.071,10.552-0.033,15.808,0.279c3.67,0.222,4.281-1.464,3.615-4.466
	c0.688-1.585,1.512-3.146,3.586-2.7c2.09,0.448,2.258,2.274,2.125,3.954c-0.192,2.479,1.021,2.992,3.229,3.146
	c9.751,0.676,9.793,0.771,9.771,10.528c-0.007,2.646-0.144,5.293-0.22,7.938C55.104,57.083,36.49,57.113,17.879,57.143z
	 M35.323,41.928c-0.973,2.901,0.478,6.176-2.8,6.606c-4.622,0.606-1.875-4.369-4.041-6.104c-2.269,2.861-2.225,5.479,0.307,7.881
	c2.143,2.033,4.567,1.948,6.618-0.073C37.795,47.884,38.052,45.268,35.323,41.928z M55.072,41.951
	c-2.754,3.601-2.454,6.313,0.382,8.636c2.545,2.085,5.062,1.35,6.871-1.05c1.815-2.407,2.103-4.93-1.002-7.129
	c-0.857,2.44,0.704,6.152-3.005,6.152C54.607,48.563,56.176,44.85,55.072,41.951z"/>
</svg>
