<?xml version="1.0" encoding="utf-8"?>
<!-- Generator: Adobe Illustrator 16.0.0, SVG Export Plug-In . SVG Version: 6.00 Build 0)  -->
<!DOCTYPE svg PUBLIC "-//W3C//DTD SVG 1.1//EN" "http://www.w3.org/Graphics/SVG/1.1/DTD/svg11.dtd">
<svg version="1.1" id="Calque_1" xmlns="http://www.w3.org/2000/svg" xmlns:xlink="http://www.w3.org/1999/xlink" x="0px" y="0px"
	 width="90.5px" height="100.971px" viewBox="0 0 90.5 100.971" enable-background="new 0 0 90.5 100.971" xml:space="preserve">
<path fill="#E3700C" d="M87.73,27.566c-0.248,0.018-0.494,0.046-0.742,0.046c-27.825,0.004-55.651,0.004-83.478,0
	c-0.247,0-0.495-0.028-0.741-0.046c-0.012,0.021-0.022,0.041-0.041,0.06c0.002,0.229,0.006,0.459,0.006,0.688
	c0,20.564,0,41.129-0.002,61.694c0,0.729,0.002,1.457,0.115,2.182c0.428,2.742,1.439,5.178,3.709,6.916
	c1.866,1.434,4.041,1.863,6.34,1.863c21.42-0.002,42.84-0.002,64.261,0.004c0.92,0,1.831-0.068,2.725-0.27
	c3.067-0.691,5.568-2.166,6.958-5.141c0.646-1.383,0.913-2.855,0.917-4.369c0.017-4.941,0.007-9.885,0.007-14.826
	c0.002-16.246,0.004-32.494,0.004-48.741C87.754,27.607,87.741,27.589,87.73,27.566z"/>
<path opacity="0.1" fill="#EBBD21" enable-background="new    " d="M87.402,7.461c-1.123-4.687-4.495-7.459-9.459-7.457
	C56.799,0.013,35.655,0.007,14.511,0.011c-1.098,0-2.198-0.063-3.293,0.119C9.106,0.483,7.192,1.27,5.59,2.715
	C3.556,4.552,2.786,6.977,2.751,9.6c-0.074,5.649-0.02,11.3-0.018,16.95c0.208,0.008,0.416,0.021,0.623,0.021
	c27.934,0.002,55.867,0.002,83.801,0c0.208,0,0.415-0.015,0.622-0.021c0.003-5.274,0.003-10.55,0.007-15.825
	C87.787,9.621,87.659,8.532,87.402,7.461z"/>
<path fill="#EB6362" d="M2.727,25.521c0.208,0.008,0.416,0.022,0.623,0.022c27.934,0.001,55.867,0.001,83.8,0
	c0.209,0,0.416-0.016,0.623-0.022c0.744,0.011,1.488,0.041,2.231,0.021c0.39-0.011,0.481,0.132,0.489,0.503
	c0.027,1.549,0.039,1.546-1.485,1.55c-0.413,0.001-0.825,0.021-1.237,0.03c-0.018-0.018-0.03-0.036-0.039-0.058
	c0.119-1.059,0.119-1.059-0.883-1.059c-27.732,0-55.466,0-83.198,0c-0.125,0-0.251,0.015-0.374-0.002
	c-0.443-0.062-0.613,0.134-0.555,0.564c0.022,0.163,0.031,0.329,0.046,0.494c-0.01,0.021-0.022,0.041-0.04,0.059
	c-0.743-0.012-1.487-0.042-2.23-0.023c-0.386,0.009-0.486-0.126-0.493-0.5c-0.028-1.552-0.04-1.55,1.482-1.553
	C1.902,25.548,2.314,25.53,2.727,25.521z"/>
<path fill="#E75030" d="M2.769,27.567c-0.015-0.165-0.023-0.331-0.046-0.493c-0.058-0.433,0.112-0.627,0.555-0.565
	C3.4,26.524,3.527,26.51,3.652,26.51c27.732,0,55.465,0,83.198,0c1.002,0,1.002,0,0.883,1.059c-0.248,0.016-0.496,0.046-0.744,0.046
	c-27.825,0.002-55.651,0.002-83.476,0C3.264,27.613,3.017,27.583,2.769,27.567z"/>
<rect x="8.874" y="2.025" fill="none" width="72.75" height="23.638"/>
<g enable-background="new    ">
	<path fill="#17635B" d="M26.942,8.215c0,0.107-0.004,0.198-0.014,0.271c-0.009,0.073-0.022,0.134-0.04,0.183
		c-0.018,0.048-0.04,0.083-0.067,0.104c-0.026,0.021-0.058,0.032-0.094,0.032h-3.185c-0.118,0-0.217-0.035-0.298-0.104
		c-0.08-0.07-0.121-0.184-0.121-0.341V2.049c0-0.036,0.012-0.068,0.035-0.097c0.023-0.028,0.062-0.052,0.116-0.07
		c0.054-0.018,0.126-0.031,0.217-0.043c0.092-0.01,0.205-0.016,0.341-0.016c0.14,0,0.254,0.006,0.344,0.016
		c0.089,0.012,0.161,0.025,0.215,0.043c0.054,0.019,0.092,0.042,0.116,0.07c0.023,0.028,0.035,0.061,0.035,0.097V7.64h2.186
		c0.036,0,0.067,0.011,0.094,0.03c0.027,0.02,0.049,0.052,0.067,0.097s0.031,0.104,0.04,0.177
		C26.938,8.017,26.942,8.108,26.942,8.215z"/>
	<path fill="#17635B" d="M32.12,6.088c0,0.165-0.037,0.286-0.11,0.365s-0.174,0.118-0.303,0.118H28.79
		c0,0.204,0.024,0.39,0.072,0.556c0.049,0.167,0.125,0.309,0.231,0.425c0.105,0.116,0.241,0.205,0.408,0.266
		c0.166,0.061,0.366,0.092,0.599,0.092c0.236,0,0.444-0.018,0.623-0.052s0.334-0.071,0.465-0.112s0.239-0.079,0.325-0.113
		s0.155-0.051,0.209-0.051c0.032,0,0.059,0.006,0.08,0.019s0.04,0.035,0.055,0.067c0.014,0.032,0.023,0.078,0.029,0.137
		c0.005,0.06,0.008,0.134,0.008,0.223c0,0.079-0.002,0.146-0.006,0.202c-0.003,0.056-0.009,0.103-0.016,0.142
		c-0.007,0.04-0.018,0.073-0.032,0.1c-0.015,0.027-0.033,0.053-0.057,0.078s-0.087,0.059-0.19,0.102s-0.236,0.086-0.397,0.127
		s-0.346,0.077-0.554,0.107c-0.207,0.03-0.43,0.045-0.666,0.045c-0.426,0-0.799-0.053-1.119-0.16
		c-0.321-0.107-0.588-0.271-0.803-0.489s-0.375-0.494-0.481-0.827c-0.105-0.333-0.158-0.724-0.158-1.171
		c0-0.426,0.056-0.811,0.167-1.152s0.272-0.632,0.483-0.87s0.468-0.42,0.771-0.545s0.644-0.188,1.023-0.188
		c0.4,0,0.743,0.059,1.028,0.177c0.284,0.118,0.519,0.282,0.7,0.491c0.184,0.21,0.317,0.458,0.403,0.744s0.129,0.598,0.129,0.935
		V6.088z M30.81,5.701c0.011-0.38-0.065-0.678-0.229-0.895s-0.414-0.325-0.755-0.325c-0.172,0-0.321,0.033-0.448,0.098
		s-0.232,0.15-0.316,0.26s-0.148,0.238-0.193,0.387s-0.07,0.308-0.078,0.476H30.81z"/>
	<path fill="#17635B" d="M36.605,7.27c0,0.272-0.051,0.512-0.153,0.72c-0.102,0.208-0.246,0.381-0.432,0.521
		c-0.187,0.139-0.407,0.244-0.661,0.313c-0.254,0.07-0.53,0.104-0.827,0.104c-0.179,0-0.35-0.013-0.513-0.04
		c-0.163-0.026-0.31-0.061-0.438-0.102s-0.236-0.083-0.322-0.126S33.11,8.577,33.071,8.54c-0.039-0.038-0.07-0.097-0.092-0.178
		c-0.021-0.08-0.031-0.199-0.031-0.357c0-0.104,0.003-0.187,0.01-0.249c0.008-0.063,0.019-0.113,0.033-0.15
		c0.014-0.038,0.031-0.063,0.053-0.075s0.049-0.02,0.081-0.02c0.039,0,0.098,0.022,0.175,0.067s0.173,0.095,0.287,0.147
		c0.114,0.055,0.248,0.104,0.4,0.15c0.152,0.047,0.324,0.07,0.518,0.07c0.122,0,0.23-0.013,0.325-0.037
		c0.095-0.025,0.178-0.062,0.247-0.107c0.07-0.047,0.123-0.106,0.158-0.178c0.036-0.071,0.055-0.154,0.055-0.247
		c0-0.107-0.033-0.199-0.1-0.276S35.036,6.956,34.927,6.9c-0.109-0.058-0.232-0.111-0.37-0.162c-0.138-0.05-0.279-0.105-0.425-0.166
		c-0.145-0.061-0.286-0.131-0.424-0.209c-0.138-0.079-0.262-0.176-0.371-0.291c-0.109-0.114-0.196-0.252-0.263-0.413
		s-0.1-0.354-0.1-0.58c0-0.229,0.045-0.439,0.134-0.631c0.09-0.191,0.219-0.355,0.387-0.491c0.169-0.137,0.374-0.242,0.615-0.317
		c0.242-0.075,0.514-0.112,0.814-0.112c0.15,0,0.296,0.01,0.438,0.031s0.27,0.049,0.384,0.081s0.211,0.067,0.29,0.104
		c0.079,0.038,0.135,0.07,0.169,0.097c0.034,0.027,0.059,0.054,0.073,0.081c0.014,0.026,0.024,0.059,0.031,0.097
		c0.008,0.037,0.014,0.084,0.02,0.14c0.005,0.056,0.008,0.124,0.008,0.207c0,0.096-0.003,0.175-0.008,0.236
		c-0.006,0.061-0.015,0.108-0.027,0.145s-0.029,0.06-0.051,0.072s-0.047,0.02-0.075,0.02c-0.032,0-0.082-0.02-0.15-0.057
		c-0.068-0.038-0.153-0.078-0.255-0.121c-0.103-0.043-0.221-0.083-0.354-0.121c-0.135-0.037-0.288-0.057-0.46-0.057
		c-0.121,0-0.227,0.013-0.316,0.038s-0.163,0.061-0.221,0.107c-0.057,0.047-0.1,0.102-0.129,0.164
		c-0.028,0.063-0.043,0.13-0.043,0.201c0,0.111,0.034,0.204,0.103,0.279s0.157,0.142,0.269,0.198
		c0.111,0.058,0.237,0.111,0.379,0.162c0.142,0.05,0.284,0.104,0.43,0.163c0.145,0.06,0.288,0.128,0.43,0.207
		s0.268,0.176,0.379,0.29c0.11,0.114,0.2,0.252,0.268,0.411C36.571,6.863,36.605,7.051,36.605,7.27z"/>
	<path fill="#17635B" d="M44.189,8.64c0,0.05-0.018,0.089-0.054,0.117c-0.036,0.029-0.092,0.05-0.169,0.063s-0.19,0.019-0.341,0.019
		c-0.162,0-0.279-0.006-0.353-0.019s-0.125-0.033-0.155-0.063c-0.03-0.028-0.046-0.067-0.046-0.117V8.258
		c-0.197,0.211-0.422,0.376-0.674,0.494c-0.253,0.118-0.533,0.177-0.841,0.177c-0.254,0-0.488-0.032-0.701-0.099
		s-0.397-0.165-0.553-0.296c-0.156-0.131-0.277-0.293-0.363-0.486s-0.129-0.418-0.129-0.676c0-0.279,0.055-0.522,0.164-0.729
		s0.272-0.376,0.489-0.51c0.217-0.135,0.485-0.234,0.808-0.299S41.97,5.74,42.396,5.74h0.467V5.448c0-0.15-0.015-0.281-0.045-0.395
		c-0.03-0.112-0.081-0.207-0.15-0.281c-0.07-0.076-0.163-0.131-0.279-0.167s-0.261-0.054-0.433-0.054
		c-0.226,0-0.427,0.025-0.604,0.075c-0.177,0.05-0.334,0.105-0.47,0.167c-0.136,0.061-0.25,0.116-0.341,0.166
		c-0.092,0.05-0.166,0.075-0.223,0.075c-0.04,0-0.075-0.013-0.105-0.038c-0.03-0.024-0.056-0.061-0.075-0.107
		c-0.02-0.046-0.034-0.104-0.046-0.172c-0.01-0.067-0.016-0.143-0.016-0.225c0-0.111,0.009-0.199,0.027-0.264
		c0.018-0.064,0.052-0.123,0.102-0.175s0.138-0.109,0.264-0.172c0.125-0.063,0.271-0.12,0.439-0.175
		c0.169-0.053,0.353-0.097,0.551-0.131c0.199-0.034,0.404-0.051,0.615-0.051c0.376,0,0.697,0.036,0.964,0.109
		s0.486,0.187,0.658,0.339s0.297,0.348,0.376,0.588s0.118,0.524,0.118,0.854V8.64z M42.862,6.587h-0.516
		c-0.218,0-0.404,0.017-0.559,0.049c-0.153,0.032-0.279,0.08-0.375,0.145c-0.098,0.064-0.168,0.143-0.213,0.234
		c-0.045,0.091-0.066,0.195-0.066,0.314c0,0.2,0.063,0.357,0.19,0.473c0.127,0.114,0.304,0.172,0.528,0.172
		c0.19,0,0.365-0.049,0.524-0.146s0.321-0.238,0.485-0.425V6.587z"/>
	<path fill="#17635B" d="M50.36,6.157c0,0.427-0.046,0.811-0.137,1.152c-0.092,0.342-0.225,0.633-0.4,0.873
		s-0.394,0.424-0.655,0.553s-0.561,0.193-0.897,0.193c-0.139,0-0.268-0.013-0.384-0.04c-0.116-0.026-0.229-0.067-0.338-0.123
		s-0.218-0.125-0.325-0.207s-0.219-0.179-0.333-0.29v2.256c0,0.036-0.011,0.068-0.032,0.097s-0.059,0.053-0.11,0.072
		s-0.12,0.035-0.206,0.046s-0.195,0.016-0.328,0.016s-0.242-0.005-0.328-0.016s-0.154-0.026-0.206-0.046s-0.089-0.044-0.11-0.072
		s-0.032-0.061-0.032-0.097V3.832c0-0.036,0.009-0.067,0.026-0.094c0.019-0.027,0.05-0.05,0.095-0.067s0.104-0.031,0.177-0.04
		s0.166-0.014,0.277-0.014c0.107,0,0.197,0.005,0.271,0.014s0.133,0.022,0.178,0.04s0.076,0.04,0.094,0.067
		c0.018,0.026,0.026,0.058,0.026,0.094v0.563c0.141-0.143,0.277-0.269,0.411-0.378c0.135-0.109,0.271-0.201,0.411-0.274
		s0.284-0.128,0.433-0.164c0.148-0.035,0.307-0.053,0.476-0.053c0.351,0,0.649,0.068,0.896,0.206S49.756,4.06,49.912,4.3
		c0.155,0.239,0.27,0.519,0.341,0.838C50.324,5.456,50.36,5.796,50.36,6.157z M48.953,6.255c0-0.205-0.016-0.4-0.046-0.589
		c-0.03-0.188-0.082-0.355-0.155-0.502s-0.17-0.264-0.29-0.352s-0.27-0.132-0.449-0.132c-0.089,0-0.178,0.014-0.266,0.04
		c-0.088,0.027-0.177,0.071-0.269,0.132c-0.091,0.061-0.185,0.14-0.282,0.236c-0.096,0.097-0.198,0.217-0.306,0.359v1.58
		c0.189,0.239,0.37,0.425,0.542,0.556s0.352,0.196,0.537,0.196c0.176,0,0.325-0.045,0.449-0.135c0.123-0.09,0.225-0.207,0.303-0.352
		c0.079-0.146,0.138-0.309,0.175-0.492C48.935,6.62,48.953,6.437,48.953,6.255z"/>
	<path fill="#17635B" d="M56.263,6.157c0,0.427-0.046,0.811-0.137,1.152c-0.092,0.342-0.225,0.633-0.4,0.873
		s-0.394,0.424-0.655,0.553s-0.561,0.193-0.897,0.193c-0.139,0-0.268-0.013-0.384-0.04c-0.116-0.026-0.229-0.067-0.338-0.123
		s-0.218-0.125-0.325-0.207s-0.219-0.179-0.333-0.29v2.256c0,0.036-0.011,0.068-0.032,0.097s-0.059,0.053-0.11,0.072
		s-0.12,0.035-0.206,0.046s-0.195,0.016-0.328,0.016s-0.242-0.005-0.328-0.016s-0.154-0.026-0.206-0.046s-0.089-0.044-0.11-0.072
		s-0.032-0.061-0.032-0.097V3.832c0-0.036,0.009-0.067,0.026-0.094c0.019-0.027,0.05-0.05,0.095-0.067s0.104-0.031,0.177-0.04
		s0.166-0.014,0.277-0.014c0.107,0,0.197,0.005,0.271,0.014s0.133,0.022,0.178,0.04s0.076,0.04,0.094,0.067
		c0.018,0.026,0.026,0.058,0.026,0.094v0.563c0.141-0.143,0.277-0.269,0.411-0.378c0.135-0.109,0.271-0.201,0.411-0.274
		s0.284-0.128,0.433-0.164c0.148-0.035,0.307-0.053,0.476-0.053c0.351,0,0.649,0.068,0.896,0.206S55.658,4.06,55.814,4.3
		c0.155,0.239,0.27,0.519,0.341,0.838C56.227,5.456,56.263,5.796,56.263,6.157z M54.855,6.255c0-0.205-0.016-0.4-0.046-0.589
		c-0.03-0.188-0.082-0.355-0.155-0.502s-0.17-0.264-0.29-0.352s-0.27-0.132-0.449-0.132c-0.089,0-0.178,0.014-0.266,0.04
		c-0.088,0.027-0.177,0.071-0.269,0.132c-0.091,0.061-0.185,0.14-0.282,0.236c-0.096,0.097-0.198,0.217-0.306,0.359v1.58
		c0.189,0.239,0.37,0.425,0.542,0.556s0.352,0.196,0.537,0.196c0.176,0,0.325-0.045,0.449-0.135c0.123-0.09,0.225-0.207,0.303-0.352
		c0.079-0.146,0.138-0.309,0.175-0.492C54.837,6.62,54.855,6.437,54.855,6.255z"/>
	<path fill="#17635B" d="M61.769,6.088c0,0.165-0.037,0.286-0.11,0.365s-0.174,0.118-0.303,0.118h-2.917
		c0,0.204,0.024,0.39,0.072,0.556c0.049,0.167,0.126,0.309,0.231,0.425s0.241,0.205,0.408,0.266
		c0.166,0.061,0.366,0.092,0.599,0.092c0.236,0,0.444-0.018,0.623-0.052s0.334-0.071,0.465-0.112s0.239-0.079,0.325-0.113
		s0.155-0.051,0.209-0.051c0.032,0,0.059,0.006,0.08,0.019s0.04,0.035,0.055,0.067c0.014,0.032,0.023,0.078,0.029,0.137
		c0.005,0.06,0.008,0.134,0.008,0.223c0,0.079-0.002,0.146-0.006,0.202c-0.003,0.056-0.009,0.103-0.016,0.142
		c-0.007,0.04-0.018,0.073-0.032,0.1c-0.015,0.027-0.033,0.053-0.057,0.078s-0.087,0.059-0.19,0.102s-0.236,0.086-0.397,0.127
		s-0.346,0.077-0.554,0.107c-0.207,0.03-0.43,0.045-0.666,0.045c-0.426,0-0.799-0.053-1.119-0.16s-0.588-0.271-0.803-0.489
		s-0.376-0.494-0.481-0.827s-0.158-0.724-0.158-1.171c0-0.426,0.056-0.811,0.167-1.152c0.11-0.342,0.271-0.632,0.482-0.87
		c0.212-0.238,0.469-0.42,0.771-0.545s0.644-0.188,1.023-0.188c0.4,0,0.743,0.059,1.028,0.177c0.284,0.118,0.519,0.282,0.7,0.491
		c0.184,0.21,0.317,0.458,0.403,0.744s0.129,0.598,0.129,0.935V6.088z M60.458,5.701c0.011-0.38-0.065-0.678-0.229-0.895
		s-0.414-0.325-0.755-0.325c-0.172,0-0.321,0.033-0.448,0.098s-0.232,0.15-0.316,0.26s-0.148,0.238-0.193,0.387
		s-0.071,0.308-0.078,0.476H60.458z"/>
	<path fill="#17635B" d="M64.234,8.623c0,0.036-0.011,0.067-0.032,0.094c-0.021,0.027-0.059,0.05-0.11,0.067s-0.12,0.031-0.206,0.04
		s-0.195,0.014-0.328,0.014s-0.242-0.005-0.328-0.014s-0.154-0.022-0.206-0.04s-0.089-0.04-0.11-0.067
		c-0.021-0.026-0.032-0.058-0.032-0.094V1.56c0-0.035,0.011-0.067,0.032-0.096c0.021-0.029,0.059-0.054,0.11-0.073
		s0.12-0.034,0.206-0.046c0.086-0.01,0.195-0.016,0.328-0.016s0.242,0.006,0.328,0.016c0.086,0.012,0.154,0.026,0.206,0.046
		s0.089,0.044,0.11,0.073c0.021,0.028,0.032,0.061,0.032,0.096V8.623z"/>
	<path fill="#17635B" d="M68.955,7.27c0,0.272-0.051,0.512-0.153,0.72C68.7,8.198,68.556,8.37,68.37,8.511
		c-0.187,0.139-0.407,0.244-0.661,0.313c-0.254,0.07-0.53,0.104-0.827,0.104c-0.179,0-0.35-0.013-0.513-0.04
		c-0.163-0.026-0.31-0.061-0.438-0.102s-0.236-0.083-0.322-0.126S65.46,8.577,65.421,8.54c-0.039-0.038-0.07-0.097-0.092-0.178
		c-0.021-0.08-0.031-0.199-0.031-0.357c0-0.104,0.003-0.187,0.01-0.249c0.008-0.063,0.019-0.113,0.033-0.15
		c0.014-0.038,0.031-0.063,0.053-0.075s0.049-0.02,0.081-0.02c0.039,0,0.098,0.022,0.175,0.067s0.173,0.095,0.287,0.147
		c0.114,0.055,0.248,0.104,0.4,0.15c0.152,0.047,0.324,0.07,0.518,0.07c0.122,0,0.23-0.013,0.325-0.037
		c0.095-0.025,0.178-0.062,0.247-0.107c0.07-0.047,0.123-0.106,0.158-0.178c0.036-0.071,0.055-0.154,0.055-0.247
		c0-0.107-0.033-0.199-0.1-0.276S67.386,6.956,67.276,6.9c-0.109-0.058-0.232-0.111-0.37-0.162c-0.138-0.05-0.279-0.105-0.425-0.166
		c-0.145-0.061-0.286-0.131-0.424-0.209c-0.138-0.079-0.262-0.176-0.371-0.291c-0.109-0.114-0.196-0.252-0.263-0.413
		s-0.1-0.354-0.1-0.58c0-0.229,0.045-0.439,0.134-0.631c0.09-0.191,0.219-0.355,0.387-0.491c0.169-0.137,0.374-0.242,0.615-0.317
		c0.242-0.075,0.514-0.112,0.814-0.112c0.15,0,0.296,0.01,0.438,0.031s0.27,0.049,0.384,0.081s0.211,0.067,0.29,0.104
		c0.079,0.038,0.135,0.07,0.169,0.097c0.034,0.027,0.059,0.054,0.073,0.081c0.014,0.026,0.024,0.059,0.031,0.097
		c0.008,0.037,0.014,0.084,0.02,0.14c0.005,0.056,0.008,0.124,0.008,0.207c0,0.096-0.003,0.175-0.008,0.236
		c-0.006,0.061-0.015,0.108-0.027,0.145s-0.029,0.06-0.051,0.072s-0.047,0.02-0.075,0.02c-0.032,0-0.082-0.02-0.15-0.057
		c-0.068-0.038-0.153-0.078-0.255-0.121c-0.103-0.043-0.221-0.083-0.354-0.121c-0.135-0.037-0.288-0.057-0.46-0.057
		c-0.121,0-0.227,0.013-0.316,0.038s-0.163,0.061-0.221,0.107c-0.057,0.047-0.1,0.102-0.129,0.164
		c-0.028,0.063-0.043,0.13-0.043,0.201c0,0.111,0.034,0.204,0.103,0.279s0.157,0.142,0.269,0.198
		c0.111,0.058,0.237,0.111,0.379,0.162c0.142,0.05,0.284,0.104,0.43,0.163c0.145,0.06,0.288,0.128,0.43,0.207
		s0.268,0.176,0.379,0.29c0.11,0.114,0.2,0.252,0.268,0.411C68.921,6.863,68.955,7.051,68.955,7.27z"/>
</g>
<g enable-background="new    ">
	<path fill="#17635B" d="M31.063,19.088c0,0.165-0.037,0.286-0.11,0.365c-0.073,0.079-0.174,0.118-0.303,0.118h-2.917
		c0,0.204,0.024,0.39,0.072,0.556c0.049,0.167,0.125,0.309,0.231,0.425c0.105,0.116,0.241,0.205,0.408,0.266
		c0.166,0.061,0.366,0.092,0.599,0.092c0.236,0,0.444-0.018,0.623-0.052s0.334-0.071,0.465-0.112
		c0.13-0.041,0.239-0.079,0.325-0.113s0.156-0.051,0.209-0.051c0.032,0,0.059,0.006,0.081,0.019s0.04,0.035,0.054,0.067
		s0.024,0.078,0.03,0.137c0.005,0.06,0.008,0.134,0.008,0.223c0,0.079-0.002,0.146-0.005,0.202s-0.009,0.103-0.016,0.142
		c-0.007,0.04-0.018,0.073-0.032,0.1c-0.014,0.027-0.033,0.053-0.057,0.078c-0.023,0.025-0.086,0.059-0.19,0.102
		s-0.236,0.086-0.397,0.127s-0.346,0.077-0.553,0.107s-0.43,0.045-0.666,0.045c-0.426,0-0.799-0.053-1.12-0.16
		c-0.321-0.107-0.588-0.271-0.803-0.489s-0.375-0.494-0.481-0.827c-0.105-0.333-0.158-0.724-0.158-1.171
		c0-0.426,0.056-0.811,0.167-1.152s0.272-0.632,0.483-0.87s0.468-0.42,0.771-0.545c0.302-0.125,0.644-0.188,1.023-0.188
		c0.401,0,0.744,0.059,1.029,0.177c0.284,0.118,0.518,0.282,0.701,0.491c0.183,0.21,0.317,0.458,0.403,0.744
		s0.129,0.598,0.129,0.935V19.088z M29.752,18.701c0.011-0.38-0.065-0.678-0.229-0.895c-0.163-0.217-0.414-0.325-0.754-0.325
		c-0.172,0-0.321,0.033-0.449,0.098c-0.127,0.064-0.232,0.15-0.316,0.26c-0.084,0.109-0.149,0.238-0.193,0.387
		c-0.045,0.148-0.071,0.308-0.078,0.476H29.752z"/>
	<path fill="#17635B" d="M36.751,21.623c0,0.036-0.012,0.067-0.033,0.094c-0.021,0.027-0.057,0.05-0.107,0.067
		c-0.049,0.018-0.119,0.031-0.207,0.04s-0.195,0.014-0.324,0.014c-0.133,0-0.242-0.005-0.33-0.014s-0.156-0.022-0.207-0.04
		s-0.086-0.04-0.107-0.067c-0.021-0.026-0.033-0.058-0.033-0.094V18.89c0-0.233-0.016-0.416-0.051-0.549
		c-0.033-0.132-0.082-0.246-0.146-0.341s-0.148-0.168-0.25-0.22s-0.221-0.078-0.357-0.078c-0.172,0-0.346,0.063-0.521,0.188
		c-0.176,0.126-0.357,0.309-0.547,0.549v3.185c0,0.036-0.012,0.067-0.033,0.094c-0.021,0.027-0.059,0.05-0.109,0.067
		c-0.053,0.018-0.121,0.031-0.207,0.04s-0.195,0.014-0.328,0.014s-0.242-0.005-0.328-0.014c-0.085-0.009-0.154-0.022-0.205-0.04
		c-0.053-0.018-0.09-0.04-0.111-0.067c-0.021-0.026-0.031-0.058-0.031-0.094v-4.791c0-0.036,0.008-0.067,0.026-0.094
		c0.019-0.027,0.05-0.05,0.097-0.067s0.106-0.031,0.18-0.04c0.074-0.009,0.166-0.014,0.277-0.014c0.113,0,0.209,0.005,0.283,0.014
		c0.076,0.009,0.135,0.022,0.176,0.04s0.07,0.04,0.088,0.067c0.018,0.026,0.027,0.058,0.027,0.094v0.554
		c0.266-0.287,0.535-0.502,0.809-0.645c0.273-0.144,0.559-0.215,0.855-0.215c0.326,0,0.602,0.053,0.826,0.16
		c0.223,0.107,0.404,0.254,0.541,0.438c0.139,0.185,0.238,0.399,0.299,0.647c0.061,0.246,0.092,0.544,0.092,0.891V21.623z"/>
	<path fill="#17635B" d="M44.19,20.861c0,0.093-0.003,0.171-0.009,0.233c-0.005,0.063-0.013,0.116-0.021,0.159
		s-0.02,0.077-0.032,0.104c-0.013,0.026-0.04,0.061-0.083,0.102s-0.116,0.092-0.22,0.15c-0.104,0.06-0.223,0.112-0.355,0.159
		c-0.132,0.046-0.276,0.084-0.432,0.112c-0.156,0.028-0.316,0.043-0.48,0.043c-0.369,0-0.696-0.058-0.98-0.172
		c-0.285-0.114-0.523-0.284-0.717-0.508s-0.34-0.497-0.438-0.819s-0.147-0.69-0.147-1.105c0-0.48,0.06-0.895,0.18-1.244
		c0.12-0.349,0.287-0.638,0.502-0.867s0.47-0.399,0.764-0.51c0.293-0.111,0.615-0.167,0.967-0.167c0.143,0,0.283,0.013,0.421,0.038
		c0.138,0.024,0.267,0.059,0.387,0.102s0.228,0.092,0.322,0.145c0.095,0.055,0.162,0.101,0.202,0.141
		c0.039,0.039,0.066,0.072,0.083,0.099c0.016,0.027,0.028,0.062,0.037,0.104s0.017,0.097,0.021,0.159
		c0.006,0.063,0.009,0.139,0.009,0.228c0,0.208-0.019,0.354-0.055,0.438c-0.035,0.084-0.082,0.126-0.139,0.126
		c-0.062,0-0.126-0.025-0.193-0.075c-0.068-0.05-0.149-0.105-0.242-0.167c-0.093-0.061-0.204-0.116-0.333-0.166
		s-0.283-0.075-0.462-0.075c-0.351,0-0.619,0.135-0.806,0.405s-0.279,0.667-0.279,1.189c0,0.258,0.023,0.485,0.069,0.683
		c0.047,0.197,0.116,0.361,0.207,0.494c0.092,0.133,0.206,0.231,0.344,0.298s0.299,0.1,0.48,0.1c0.187,0,0.347-0.027,0.481-0.083
		c0.134-0.056,0.251-0.117,0.352-0.186s0.185-0.13,0.253-0.186c0.067-0.056,0.125-0.083,0.172-0.083c0.031,0,0.059,0.009,0.08,0.027
		c0.021,0.018,0.038,0.051,0.051,0.099c0.013,0.049,0.022,0.11,0.029,0.186C44.187,20.646,44.19,20.742,44.19,20.861z"/>
	<path fill="#17635B" d="M49.958,19.179c0,0.408-0.054,0.781-0.161,1.117c-0.107,0.337-0.271,0.627-0.489,0.871
		c-0.218,0.243-0.492,0.431-0.821,0.563s-0.714,0.198-1.155,0.198c-0.426,0-0.796-0.059-1.111-0.177s-0.576-0.29-0.784-0.516
		s-0.361-0.503-0.462-0.833c-0.101-0.329-0.15-0.705-0.15-1.127c0-0.408,0.055-0.782,0.164-1.12c0.109-0.339,0.272-0.629,0.491-0.87
		c0.219-0.242,0.491-0.429,0.819-0.562c0.327-0.133,0.711-0.198,1.152-0.198c0.43,0,0.802,0.058,1.117,0.174
		c0.314,0.116,0.575,0.287,0.781,0.514c0.206,0.225,0.358,0.503,0.459,0.832S49.958,18.753,49.958,19.179z M48.567,19.234
		c0-0.236-0.02-0.454-0.057-0.653c-0.038-0.198-0.102-0.371-0.191-0.519c-0.089-0.146-0.208-0.261-0.356-0.344
		c-0.148-0.082-0.336-0.123-0.562-0.123c-0.2,0-0.376,0.037-0.526,0.11s-0.274,0.181-0.37,0.322c-0.098,0.142-0.17,0.312-0.218,0.51
		c-0.049,0.199-0.073,0.426-0.073,0.68c0,0.236,0.021,0.454,0.06,0.652c0.039,0.199,0.103,0.372,0.19,0.519s0.207,0.261,0.357,0.341
		c0.15,0.081,0.337,0.121,0.559,0.121c0.204,0,0.381-0.037,0.531-0.11s0.274-0.18,0.371-0.319s0.168-0.309,0.215-0.508
		C48.544,19.714,48.567,19.488,48.567,19.234z"/>
	<path fill="#17635B" d="M55.571,21.623c0,0.036-0.009,0.067-0.027,0.094c-0.018,0.027-0.049,0.05-0.094,0.067
		s-0.104,0.031-0.177,0.04s-0.166,0.014-0.276,0.014c-0.119,0-0.215-0.005-0.288-0.014s-0.132-0.022-0.175-0.04
		s-0.073-0.04-0.091-0.067c-0.018-0.026-0.026-0.058-0.026-0.094V21.07c-0.266,0.287-0.535,0.502-0.809,0.645
		c-0.274,0.144-0.558,0.215-0.852,0.215c-0.329,0-0.606-0.053-0.83-0.16s-0.404-0.255-0.542-0.441
		c-0.138-0.186-0.236-0.401-0.296-0.646c-0.059-0.245-0.088-0.551-0.088-0.916v-2.933c0-0.036,0.01-0.067,0.029-0.094
		c0.02-0.027,0.056-0.05,0.107-0.067s0.121-0.031,0.209-0.04s0.196-0.014,0.325-0.014c0.133,0,0.241,0.005,0.327,0.014
		s0.155,0.022,0.207,0.04s0.089,0.04,0.11,0.067c0.021,0.026,0.032,0.058,0.032,0.094v2.707c0,0.251,0.016,0.442,0.049,0.575
		c0.031,0.132,0.081,0.246,0.147,0.341s0.15,0.168,0.252,0.22c0.103,0.052,0.222,0.078,0.357,0.078c0.172,0,0.345-0.063,0.519-0.188
		c0.174-0.126,0.358-0.309,0.556-0.549v-3.185c0-0.036,0.01-0.067,0.029-0.094c0.02-0.027,0.056-0.05,0.107-0.067
		s0.121-0.031,0.207-0.04s0.195-0.014,0.327-0.014c0.133,0,0.242,0.005,0.328,0.014s0.154,0.022,0.204,0.04s0.086,0.04,0.107,0.067
		c0.021,0.026,0.032,0.058,0.032,0.094V21.623z"/>
	<path fill="#17635B" d="M60.007,17.279c0,0.129-0.003,0.234-0.01,0.316c-0.008,0.082-0.019,0.146-0.033,0.193
		c-0.014,0.047-0.032,0.079-0.056,0.097s-0.053,0.026-0.089,0.026c-0.028,0-0.061-0.006-0.097-0.019s-0.076-0.025-0.121-0.04
		s-0.094-0.027-0.147-0.04s-0.113-0.019-0.178-0.019c-0.074,0-0.15,0.015-0.225,0.045c-0.076,0.03-0.153,0.078-0.234,0.143
		c-0.08,0.064-0.164,0.15-0.252,0.258s-0.182,0.24-0.282,0.397v2.986c0,0.036-0.011,0.067-0.032,0.094
		c-0.021,0.027-0.059,0.05-0.11,0.067s-0.12,0.031-0.206,0.04s-0.195,0.014-0.328,0.014s-0.242-0.005-0.328-0.014
		s-0.154-0.022-0.206-0.04s-0.089-0.04-0.11-0.067c-0.021-0.026-0.032-0.058-0.032-0.094v-4.791c0-0.036,0.009-0.067,0.026-0.094
		c0.019-0.027,0.051-0.05,0.098-0.067c0.046-0.018,0.106-0.031,0.18-0.04s0.165-0.014,0.276-0.014c0.114,0,0.21,0.005,0.284,0.014
		c0.076,0.009,0.134,0.022,0.175,0.04s0.071,0.04,0.089,0.067c0.018,0.026,0.027,0.058,0.027,0.094v0.597
		c0.125-0.18,0.243-0.327,0.354-0.443c0.111-0.116,0.217-0.209,0.317-0.277c0.101-0.067,0.2-0.115,0.301-0.142
		c0.101-0.027,0.2-0.04,0.301-0.04c0.047,0,0.097,0.002,0.15,0.008c0.054,0.005,0.109,0.014,0.167,0.026
		c0.057,0.013,0.107,0.027,0.15,0.043c0.043,0.017,0.074,0.033,0.094,0.052c0.02,0.018,0.034,0.037,0.043,0.059
		s0.017,0.051,0.023,0.089c0.008,0.037,0.013,0.094,0.017,0.169S60.007,17.15,60.007,17.279z"/>
	<path fill="#17635B" d="M64.078,20.27c0,0.272-0.051,0.512-0.153,0.72c-0.102,0.208-0.246,0.381-0.432,0.521
		c-0.187,0.139-0.407,0.244-0.661,0.313c-0.254,0.07-0.53,0.104-0.827,0.104c-0.179,0-0.35-0.013-0.513-0.04
		c-0.163-0.026-0.31-0.061-0.438-0.102s-0.236-0.083-0.322-0.126s-0.148-0.084-0.188-0.121c-0.039-0.038-0.07-0.097-0.092-0.178
		c-0.021-0.08-0.031-0.199-0.031-0.357c0-0.104,0.003-0.187,0.01-0.249c0.008-0.063,0.019-0.113,0.033-0.15
		c0.014-0.038,0.031-0.063,0.053-0.075s0.049-0.02,0.081-0.02c0.039,0,0.098,0.022,0.175,0.067s0.173,0.095,0.287,0.147
		c0.114,0.055,0.248,0.104,0.4,0.15c0.152,0.047,0.324,0.07,0.518,0.07c0.122,0,0.23-0.013,0.325-0.037
		c0.095-0.025,0.178-0.062,0.247-0.107c0.07-0.047,0.123-0.106,0.158-0.178c0.036-0.071,0.055-0.154,0.055-0.247
		c0-0.107-0.033-0.199-0.1-0.276s-0.154-0.145-0.264-0.201c-0.109-0.058-0.232-0.111-0.37-0.162
		c-0.138-0.05-0.279-0.105-0.425-0.166c-0.145-0.061-0.286-0.131-0.424-0.209c-0.138-0.079-0.262-0.176-0.371-0.291
		c-0.109-0.114-0.196-0.252-0.263-0.413s-0.1-0.354-0.1-0.58c0-0.229,0.045-0.439,0.134-0.631c0.09-0.191,0.219-0.355,0.387-0.491
		c0.169-0.137,0.374-0.242,0.615-0.317c0.242-0.075,0.514-0.112,0.814-0.112c0.15,0,0.296,0.01,0.438,0.031s0.27,0.049,0.384,0.081
		s0.211,0.067,0.29,0.104c0.079,0.038,0.135,0.07,0.169,0.097c0.034,0.027,0.059,0.054,0.073,0.081
		c0.014,0.026,0.024,0.059,0.031,0.097c0.008,0.037,0.014,0.084,0.02,0.14c0.005,0.056,0.008,0.124,0.008,0.207
		c0,0.096-0.003,0.175-0.008,0.236c-0.006,0.061-0.015,0.108-0.027,0.145s-0.029,0.06-0.051,0.072s-0.047,0.02-0.075,0.02
		c-0.032,0-0.082-0.02-0.15-0.057c-0.068-0.038-0.153-0.078-0.255-0.121c-0.103-0.043-0.221-0.083-0.354-0.121
		c-0.135-0.037-0.288-0.057-0.46-0.057c-0.121,0-0.227,0.013-0.316,0.038s-0.163,0.061-0.221,0.107
		c-0.057,0.047-0.1,0.102-0.129,0.164c-0.028,0.063-0.043,0.13-0.043,0.201c0,0.111,0.034,0.204,0.103,0.279
		s0.157,0.142,0.269,0.198c0.111,0.058,0.237,0.111,0.379,0.162c0.142,0.05,0.284,0.104,0.43,0.163
		c0.145,0.06,0.288,0.128,0.43,0.207s0.268,0.176,0.379,0.29c0.11,0.114,0.2,0.252,0.268,0.411
		C64.044,19.863,64.078,20.051,64.078,20.27z"/>
</g>
<path fill="#FFFFFF" d="M53.092,42.427c-0.188,3.493-3.611,6.559-7.074,6.333c-3.586-0.234-6.576-3.57-6.137-7.134
	c0.475-3.856,2.888-5.931,6.721-6.016C50.217,35.531,53.283,38.904,53.092,42.427z"/>
<path fill="#FFFFFF" d="M24.163,48.544c0.595-3.521,2.502-5.725,6.281-5.561c3.738,0.163,5.854,2.395,5.71,6.073
	c-0.145,3.688-2.583,5.85-6.174,5.699C26.42,54.607,24.35,52.342,24.163,48.544z"/>
<path fill="#FFFFFF" d="M23.13,70.162c-3.087-0.308-4.995-2.029-4.918-5.421c0.077-3.431,2.238-5.2,5.432-5.137
	c3.235,0.065,5.368,2.123,5.218,5.405C28.718,68.174,26.753,70.109,23.13,70.162z"/>
<path fill="#FFFFFF" d="M30.515,85.89c-2.933-0.357-4.909-1.806-5.096-4.642c-0.19-2.874,1.599-4.799,4.397-5.02
	c3.099-0.244,5.104,1.636,5.198,4.707C35.101,83.813,33.068,85.275,30.515,85.89z"/>
<path fill="#FFFFFF" d="M50.449,85.78c0.109,2.972-1.283,4.492-3.731,4.677c-2.419,0.183-4.187-1.08-4.411-3.642
	c-0.242-2.768,1.298-4.479,3.985-4.601C48.757,82.104,50.201,83.634,50.449,85.78z"/>
<path fill="#FFFFFF" d="M62.852,77.312c1.989,0.5,3.442,1.561,3.34,3.745c-0.113,2.395-1.639,3.694-3.961,3.437
	c-2.058-0.229-3.25-1.65-3.054-3.841C59.375,78.461,60.846,77.559,62.852,77.312z"/>
<path fill="#FFFFFF" d="M72.289,65.187c-0.229,1.671-1.246,2.711-2.926,2.689c-1.934-0.024-3.121-1.248-2.99-3.172
	c0.133-1.943,1.463-2.906,3.417-2.668C71.548,62.25,72.292,63.428,72.289,65.187z"/>
<path fill="#FFFFFF" d="M65.234,48.315c-0.006,1.604-0.816,2.553-2.307,2.616c-1.521,0.064-2.449-0.951-2.482-2.396
	c-0.025-1.234,0.844-2.141,2.091-2.303C64.064,46.032,64.916,46.918,65.234,48.315z"/>
</svg>
