<?xml version="1.0" encoding="utf-8"?>
<!-- Generator: Adobe Illustrator 16.0.0, SVG Export Plug-In . SVG Version: 6.00 Build 0)  -->
<!DOCTYPE svg PUBLIC "-//W3C//DTD SVG 1.1//EN" "http://www.w3.org/Graphics/SVG/1.1/DTD/svg11.dtd">
<svg version="1.1" id="Calque_1" xmlns="http://www.w3.org/2000/svg" xmlns:xlink="http://www.w3.org/1999/xlink" x="0px" y="0px"
	 width="90.5px" height="100.971px" viewBox="0 0 90.5 100.971" enable-background="new 0 0 90.5 100.971" xml:space="preserve">
<path fill="#E3700C" d="M87.73,27.566c-0.248,0.018-0.494,0.046-0.742,0.046c-27.825,0.004-55.651,0.004-83.478,0
	c-0.247,0-0.495-0.028-0.741-0.046c-0.012,0.021-0.022,0.041-0.041,0.06c0.002,0.229,0.006,0.459,0.006,0.688
	c0,20.564,0,41.129-0.002,61.693c0,0.729,0.002,1.457,0.115,2.182c0.428,2.742,1.439,5.178,3.709,6.916
	c1.866,1.434,4.041,1.864,6.34,1.864c21.42-0.003,42.84-0.003,64.261,0.003c0.92,0,1.831-0.068,2.725-0.27
	c3.067-0.691,5.568-2.166,6.958-5.141c0.646-1.383,0.913-2.854,0.917-4.368c0.017-4.941,0.007-9.886,0.007-14.826
	c0.002-16.247,0.004-32.494,0.004-48.741C87.754,27.607,87.741,27.588,87.73,27.566z"/>
<path opacity="0.1" fill="#EBBD21" enable-background="new    " d="M87.402,7.461c-1.123-4.687-4.495-7.459-9.459-7.457
	C56.799,0.013,35.655,0.007,14.511,0.011c-1.098,0-2.198-0.063-3.293,0.119C9.106,0.483,7.192,1.27,5.59,2.715
	C3.556,4.552,2.786,6.977,2.751,9.6c-0.074,5.649-0.02,11.3-0.018,16.95c0.208,0.008,0.416,0.021,0.623,0.021
	c27.934,0.002,55.867,0.002,83.801,0c0.208,0,0.415-0.015,0.622-0.021c0.003-5.274,0.003-10.55,0.007-15.825
	C87.787,9.621,87.659,8.532,87.402,7.461z"/>
<path fill="#EB6362" d="M2.727,25.521c0.208,0.008,0.416,0.022,0.623,0.022c27.934,0.001,55.867,0.001,83.8,0
	c0.209,0,0.416-0.016,0.623-0.022c0.744,0.011,1.488,0.041,2.231,0.021c0.39-0.011,0.481,0.132,0.489,0.503
	c0.027,1.549,0.039,1.546-1.485,1.55c-0.413,0.001-0.825,0.021-1.237,0.03c-0.018-0.018-0.03-0.036-0.039-0.058
	c0.119-1.059,0.119-1.059-0.883-1.059c-27.732,0-55.466,0-83.198,0c-0.125,0-0.251,0.015-0.374-0.002
	c-0.443-0.062-0.613,0.134-0.555,0.564c0.022,0.163,0.031,0.329,0.046,0.494c-0.01,0.021-0.022,0.041-0.04,0.059
	c-0.743-0.012-1.487-0.042-2.23-0.023c-0.386,0.009-0.486-0.126-0.493-0.5c-0.028-1.552-0.04-1.55,1.482-1.553
	C1.902,25.548,2.314,25.53,2.727,25.521z"/>
<path fill="#E75030" d="M2.769,27.567c-0.015-0.165-0.023-0.331-0.046-0.493c-0.058-0.433,0.112-0.627,0.555-0.565
	C3.4,26.524,3.527,26.51,3.652,26.51c27.732,0,55.465,0,83.198,0c1.002,0,1.002,0,0.883,1.059c-0.248,0.016-0.496,0.046-0.744,0.046
	c-27.825,0.002-55.651,0.002-83.476,0C3.264,27.613,3.017,27.583,2.769,27.567z"/>
<path fill="#EABD26" d="M47.098,49.521c-1.139,0-2.277-0.007-3.415,0.001c-2.107,0.017-2.254-1.104-2.074-2.56
	c0.086-0.692,0.539-1.248,1.254-1.289c2.001-0.115,4.012-0.147,6.008,0.02c0.876,0.073,1.333,0.933,1.297,1.997
	c-0.034,1.048-0.458,1.587-1.395,1.776C48.218,49.579,47.657,49.494,47.098,49.521z"/>
<rect x="8.874" y="2.025" fill="none" width="72.75" height="23.638"/>
<g enable-background="new    ">
	<path fill="#17635B" d="M34.326,6.872c0,0.315-0.03,0.599-0.088,0.852c-0.06,0.252-0.16,0.467-0.301,0.645
		c-0.142,0.177-0.327,0.313-0.556,0.405s-0.512,0.14-0.849,0.14c-0.107,0-0.214-0.008-0.32-0.024
		c-0.105-0.016-0.202-0.036-0.29-0.062c-0.087-0.025-0.164-0.052-0.228-0.08c-0.064-0.029-0.107-0.055-0.129-0.078
		s-0.04-0.048-0.054-0.072c-0.014-0.025-0.027-0.059-0.038-0.1s-0.018-0.093-0.021-0.153s-0.005-0.138-0.005-0.231
		c0-0.121,0.002-0.225,0.008-0.309c0.005-0.084,0.014-0.15,0.026-0.198c0.013-0.049,0.031-0.083,0.054-0.103
		c0.023-0.02,0.053-0.029,0.089-0.029c0.032,0,0.07,0.012,0.113,0.035s0.091,0.047,0.145,0.072s0.116,0.049,0.188,0.072
		s0.156,0.035,0.252,0.035s0.182-0.014,0.255-0.04c0.074-0.027,0.135-0.073,0.183-0.14c0.049-0.066,0.085-0.155,0.11-0.266
		c0.025-0.111,0.038-0.255,0.038-0.43V2.038c0-0.036,0.012-0.067,0.035-0.094c0.023-0.027,0.061-0.05,0.113-0.067
		c0.052-0.018,0.124-0.031,0.217-0.04s0.208-0.014,0.344-0.014s0.249,0.005,0.338,0.014s0.162,0.022,0.218,0.04
		c0.055,0.018,0.095,0.04,0.118,0.067c0.023,0.026,0.035,0.058,0.035,0.094V6.872z"/>
	<path fill="#17635B" d="M40.175,6.088c0,0.165-0.037,0.286-0.11,0.365s-0.174,0.118-0.303,0.118h-2.917
		c0,0.204,0.024,0.39,0.072,0.556c0.049,0.167,0.125,0.309,0.231,0.425c0.105,0.116,0.241,0.205,0.408,0.266
		c0.166,0.061,0.366,0.092,0.599,0.092c0.236,0,0.444-0.018,0.623-0.052s0.334-0.071,0.465-0.112s0.239-0.079,0.325-0.113
		s0.155-0.051,0.209-0.051c0.032,0,0.059,0.006,0.08,0.019s0.04,0.035,0.055,0.067c0.014,0.032,0.023,0.078,0.029,0.137
		c0.005,0.06,0.008,0.134,0.008,0.223c0,0.079-0.002,0.146-0.006,0.202c-0.003,0.056-0.009,0.103-0.016,0.142
		c-0.007,0.04-0.018,0.073-0.032,0.1c-0.015,0.027-0.033,0.053-0.057,0.078s-0.087,0.059-0.19,0.102s-0.236,0.086-0.397,0.127
		s-0.346,0.077-0.554,0.107c-0.207,0.03-0.43,0.045-0.665,0.045c-0.427,0-0.8-0.053-1.12-0.16c-0.321-0.107-0.588-0.271-0.803-0.489
		s-0.375-0.494-0.481-0.827c-0.105-0.333-0.158-0.724-0.158-1.171c0-0.426,0.056-0.811,0.167-1.152s0.272-0.632,0.483-0.87
		s0.468-0.42,0.771-0.545c0.302-0.125,0.644-0.188,1.022-0.188c0.401,0,0.744,0.059,1.029,0.177c0.284,0.118,0.519,0.282,0.7,0.491
		c0.184,0.21,0.317,0.458,0.403,0.744s0.129,0.598,0.129,0.935V6.088z M38.864,5.701c0.011-0.38-0.065-0.678-0.229-0.895
		s-0.414-0.325-0.754-0.325c-0.172,0-0.322,0.033-0.449,0.098s-0.232,0.15-0.316,0.26c-0.084,0.109-0.149,0.238-0.193,0.387
		c-0.045,0.148-0.071,0.308-0.078,0.476H38.864z"/>
	<path fill="#17635B" d="M47.146,7.27c0,0.272-0.051,0.512-0.153,0.72c-0.102,0.208-0.246,0.381-0.432,0.521
		C46.375,8.65,46.154,8.755,45.9,8.824c-0.254,0.07-0.53,0.104-0.827,0.104c-0.179,0-0.35-0.013-0.513-0.04
		c-0.163-0.026-0.31-0.061-0.438-0.102S43.886,8.704,43.8,8.661s-0.148-0.084-0.188-0.121c-0.039-0.038-0.07-0.097-0.092-0.178
		c-0.021-0.08-0.031-0.199-0.031-0.357c0-0.104,0.003-0.187,0.01-0.249c0.008-0.063,0.019-0.113,0.033-0.15
		c0.014-0.038,0.031-0.063,0.053-0.075s0.049-0.02,0.081-0.02c0.039,0,0.098,0.022,0.175,0.067s0.173,0.095,0.287,0.147
		c0.114,0.055,0.248,0.104,0.4,0.15c0.152,0.047,0.324,0.07,0.518,0.07c0.122,0,0.23-0.013,0.325-0.037
		c0.095-0.025,0.178-0.062,0.247-0.107c0.07-0.047,0.123-0.106,0.158-0.178c0.036-0.071,0.055-0.154,0.055-0.247
		c0-0.107-0.033-0.199-0.1-0.276S45.577,6.956,45.468,6.9c-0.109-0.058-0.232-0.111-0.37-0.162c-0.138-0.05-0.279-0.105-0.425-0.166
		c-0.145-0.061-0.286-0.131-0.424-0.209c-0.138-0.079-0.262-0.176-0.371-0.291c-0.109-0.114-0.196-0.252-0.263-0.413
		s-0.1-0.354-0.1-0.58c0-0.229,0.045-0.439,0.134-0.631c0.09-0.191,0.219-0.355,0.387-0.491c0.169-0.137,0.374-0.242,0.615-0.317
		c0.242-0.075,0.514-0.112,0.814-0.112c0.15,0,0.296,0.01,0.438,0.031s0.27,0.049,0.384,0.081s0.211,0.067,0.29,0.104
		c0.079,0.038,0.135,0.07,0.169,0.097c0.034,0.027,0.059,0.054,0.073,0.081c0.014,0.026,0.024,0.059,0.031,0.097
		c0.008,0.037,0.014,0.084,0.02,0.14c0.005,0.056,0.008,0.124,0.008,0.207c0,0.096-0.003,0.175-0.008,0.236
		c-0.006,0.061-0.015,0.108-0.027,0.145s-0.029,0.06-0.051,0.072s-0.047,0.02-0.075,0.02c-0.032,0-0.082-0.02-0.15-0.057
		c-0.068-0.038-0.153-0.078-0.255-0.121c-0.103-0.043-0.221-0.083-0.354-0.121c-0.135-0.037-0.288-0.057-0.46-0.057
		c-0.121,0-0.227,0.013-0.316,0.038S45.018,4.58,44.96,4.627c-0.057,0.047-0.1,0.102-0.129,0.164
		c-0.028,0.063-0.043,0.13-0.043,0.201c0,0.111,0.034,0.204,0.103,0.279s0.157,0.142,0.269,0.198
		c0.111,0.058,0.237,0.111,0.379,0.162c0.142,0.05,0.284,0.104,0.43,0.163c0.145,0.06,0.288,0.128,0.43,0.207
		s0.268,0.176,0.379,0.29c0.11,0.114,0.2,0.252,0.268,0.411C47.112,6.863,47.146,7.051,47.146,7.27z"/>
	<path fill="#17635B" d="M52.706,8.623c0,0.036-0.009,0.067-0.027,0.094c-0.018,0.027-0.049,0.05-0.094,0.067
		s-0.104,0.031-0.177,0.04s-0.166,0.014-0.276,0.014c-0.119,0-0.215-0.005-0.288-0.014s-0.132-0.022-0.175-0.04
		s-0.073-0.04-0.091-0.067c-0.018-0.026-0.026-0.058-0.026-0.094V8.07c-0.266,0.287-0.535,0.502-0.809,0.645
		c-0.274,0.144-0.558,0.215-0.852,0.215c-0.329,0-0.606-0.053-0.83-0.16s-0.404-0.255-0.542-0.441
		c-0.138-0.186-0.236-0.401-0.296-0.646c-0.059-0.245-0.088-0.551-0.088-0.916V3.832c0-0.036,0.01-0.067,0.029-0.094
		c0.02-0.027,0.056-0.05,0.107-0.067s0.121-0.031,0.209-0.04s0.196-0.014,0.325-0.014c0.133,0,0.241,0.005,0.327,0.014
		s0.155,0.022,0.207,0.04s0.089,0.04,0.11,0.067c0.021,0.026,0.032,0.058,0.032,0.094v2.707c0,0.251,0.016,0.442,0.049,0.575
		c0.031,0.132,0.081,0.246,0.147,0.341s0.15,0.168,0.252,0.22c0.103,0.052,0.222,0.078,0.357,0.078c0.172,0,0.345-0.063,0.519-0.188
		c0.174-0.126,0.358-0.309,0.556-0.549V3.832c0-0.036,0.01-0.067,0.029-0.094c0.02-0.027,0.056-0.05,0.107-0.067
		s0.121-0.031,0.207-0.04s0.195-0.014,0.327-0.014c0.133,0,0.242,0.005,0.328,0.014s0.154,0.022,0.204,0.04s0.086,0.04,0.107,0.067
		c0.021,0.026,0.032,0.058,0.032,0.094V8.623z"/>
	<path fill="#17635B" d="M55.521,2.21c0,0.272-0.056,0.46-0.167,0.564c-0.111,0.104-0.317,0.155-0.618,0.155
		c-0.304,0-0.509-0.05-0.614-0.15s-0.159-0.281-0.159-0.542c0-0.272,0.055-0.462,0.164-0.567s0.316-0.158,0.621-0.158
		c0.301,0,0.504,0.051,0.611,0.153C55.466,1.767,55.521,1.948,55.521,2.21z M55.418,8.623c0,0.036-0.011,0.067-0.032,0.094
		c-0.021,0.027-0.059,0.05-0.11,0.067s-0.12,0.031-0.206,0.04s-0.195,0.014-0.328,0.014s-0.242-0.005-0.328-0.014
		s-0.154-0.022-0.206-0.04s-0.089-0.04-0.11-0.067c-0.021-0.026-0.032-0.058-0.032-0.094v-4.78c0-0.036,0.011-0.067,0.032-0.094
		c0.021-0.027,0.059-0.051,0.11-0.07s0.12-0.035,0.206-0.045c0.086-0.012,0.195-0.017,0.328-0.017s0.242,0.005,0.328,0.017
		c0.086,0.01,0.154,0.025,0.206,0.045s0.089,0.043,0.11,0.07c0.021,0.026,0.032,0.058,0.032,0.094V8.623z"/>
	<path fill="#17635B" d="M60.139,7.27c0,0.272-0.051,0.512-0.153,0.72c-0.102,0.208-0.246,0.381-0.432,0.521
		c-0.187,0.139-0.407,0.244-0.661,0.313c-0.254,0.07-0.53,0.104-0.827,0.104c-0.179,0-0.35-0.013-0.513-0.04
		c-0.163-0.026-0.31-0.061-0.438-0.102s-0.236-0.083-0.322-0.126s-0.148-0.084-0.188-0.121c-0.039-0.038-0.07-0.097-0.092-0.178
		c-0.021-0.08-0.031-0.199-0.031-0.357c0-0.104,0.003-0.187,0.01-0.249c0.008-0.063,0.019-0.113,0.033-0.15
		c0.014-0.038,0.031-0.063,0.053-0.075s0.049-0.02,0.081-0.02c0.039,0,0.098,0.022,0.175,0.067s0.173,0.095,0.287,0.147
		c0.114,0.055,0.248,0.104,0.4,0.15c0.152,0.047,0.324,0.07,0.518,0.07c0.122,0,0.23-0.013,0.325-0.037
		c0.095-0.025,0.178-0.062,0.247-0.107c0.07-0.047,0.123-0.106,0.158-0.178c0.036-0.071,0.055-0.154,0.055-0.247
		c0-0.107-0.033-0.199-0.1-0.276S58.569,6.956,58.46,6.9c-0.109-0.058-0.232-0.111-0.37-0.162c-0.138-0.05-0.279-0.105-0.425-0.166
		c-0.145-0.061-0.286-0.131-0.424-0.209c-0.138-0.079-0.262-0.176-0.371-0.291c-0.109-0.114-0.196-0.252-0.263-0.413
		s-0.1-0.354-0.1-0.58c0-0.229,0.045-0.439,0.134-0.631c0.09-0.191,0.219-0.355,0.387-0.491c0.169-0.137,0.374-0.242,0.615-0.317
		c0.242-0.075,0.514-0.112,0.814-0.112c0.15,0,0.296,0.01,0.438,0.031s0.27,0.049,0.384,0.081s0.211,0.067,0.29,0.104
		c0.079,0.038,0.135,0.07,0.169,0.097c0.034,0.027,0.059,0.054,0.073,0.081c0.014,0.026,0.024,0.059,0.031,0.097
		c0.008,0.037,0.014,0.084,0.02,0.14c0.005,0.056,0.008,0.124,0.008,0.207c0,0.096-0.003,0.175-0.008,0.236
		c-0.006,0.061-0.015,0.108-0.027,0.145s-0.029,0.06-0.051,0.072s-0.047,0.02-0.075,0.02c-0.032,0-0.082-0.02-0.15-0.057
		c-0.068-0.038-0.153-0.078-0.255-0.121c-0.103-0.043-0.221-0.083-0.354-0.121c-0.135-0.037-0.288-0.057-0.46-0.057
		c-0.121,0-0.227,0.013-0.316,0.038S58.01,4.58,57.952,4.627c-0.057,0.047-0.1,0.102-0.129,0.164
		c-0.028,0.063-0.043,0.13-0.043,0.201c0,0.111,0.034,0.204,0.103,0.279s0.157,0.142,0.269,0.198
		c0.111,0.058,0.237,0.111,0.379,0.162c0.142,0.05,0.284,0.104,0.43,0.163c0.145,0.06,0.288,0.128,0.43,0.207
		s0.268,0.176,0.379,0.29c0.11,0.114,0.2,0.252,0.268,0.411C60.104,6.863,60.139,7.051,60.139,7.27z"/>
</g>
<g enable-background="new    ">
	<path fill="#17635B" d="M25.917,19.163c0,0.426-0.046,0.81-0.14,1.149s-0.228,0.63-0.403,0.87s-0.391,0.424-0.647,0.553
		c-0.256,0.129-0.547,0.193-0.873,0.193c-0.161,0-0.312-0.015-0.451-0.045s-0.273-0.08-0.4-0.148
		c-0.127-0.067-0.252-0.153-0.376-0.258c-0.123-0.104-0.25-0.229-0.378-0.375v0.521c0,0.039-0.01,0.072-0.03,0.1
		c-0.02,0.026-0.052,0.049-0.097,0.067c-0.044,0.018-0.104,0.03-0.18,0.037s-0.167,0.011-0.274,0.011
		c-0.111,0-0.203-0.004-0.277-0.011c-0.073-0.007-0.132-0.02-0.177-0.037c-0.045-0.019-0.076-0.041-0.094-0.067
		c-0.018-0.027-0.027-0.061-0.027-0.1V14.56c0-0.035,0.011-0.067,0.032-0.096c0.021-0.029,0.058-0.054,0.11-0.073
		c0.052-0.02,0.121-0.034,0.207-0.046c0.086-0.01,0.195-0.016,0.328-0.016s0.242,0.006,0.328,0.016
		c0.086,0.012,0.155,0.026,0.207,0.046c0.052,0.02,0.089,0.044,0.11,0.073c0.021,0.028,0.032,0.061,0.032,0.096v2.648
		c0.122-0.122,0.244-0.226,0.365-0.312s0.244-0.156,0.365-0.212s0.247-0.096,0.376-0.121s0.265-0.037,0.408-0.037
		c0.354,0,0.655,0.07,0.902,0.212s0.448,0.332,0.604,0.571c0.155,0.24,0.269,0.521,0.341,0.841S25.917,18.809,25.917,19.163z
		 M24.515,19.26c0-0.204-0.015-0.401-0.045-0.591c-0.031-0.189-0.083-0.358-0.159-0.505s-0.173-0.264-0.292-0.352
		c-0.12-0.088-0.271-0.132-0.454-0.132c-0.089,0-0.177,0.013-0.263,0.037c-0.086,0.025-0.174,0.068-0.266,0.129
		c-0.091,0.062-0.185,0.141-0.282,0.236c-0.097,0.098-0.199,0.217-0.306,0.36v1.59c0.19,0.243,0.372,0.429,0.545,0.556
		c0.174,0.127,0.355,0.191,0.545,0.191c0.175,0,0.324-0.045,0.446-0.135s0.223-0.206,0.304-0.35c0.08-0.143,0.139-0.306,0.174-0.488
		S24.515,19.443,24.515,19.26z"/>
	<path fill="#17635B" d="M31.423,19.088c0,0.165-0.037,0.286-0.111,0.365c-0.072,0.079-0.174,0.118-0.303,0.118h-2.916
		c0,0.204,0.023,0.39,0.072,0.556c0.049,0.167,0.125,0.309,0.23,0.425s0.242,0.205,0.408,0.266s0.367,0.092,0.6,0.092
		c0.236,0,0.443-0.018,0.623-0.052c0.178-0.034,0.334-0.071,0.465-0.112s0.238-0.079,0.324-0.113s0.156-0.051,0.209-0.051
		c0.033,0,0.059,0.006,0.08,0.019s0.041,0.035,0.055,0.067s0.023,0.078,0.029,0.137c0.006,0.06,0.008,0.134,0.008,0.223
		c0,0.079-0.002,0.146-0.006,0.202c-0.002,0.056-0.008,0.103-0.016,0.142c-0.006,0.04-0.018,0.073-0.031,0.1
		c-0.016,0.027-0.033,0.053-0.057,0.078s-0.088,0.059-0.191,0.102s-0.236,0.086-0.396,0.127c-0.162,0.041-0.346,0.077-0.555,0.107
		c-0.207,0.03-0.43,0.045-0.666,0.045c-0.426,0-0.799-0.053-1.119-0.16s-0.588-0.271-0.803-0.489s-0.375-0.494-0.48-0.827
		s-0.158-0.724-0.158-1.171c0-0.426,0.055-0.811,0.166-1.152s0.271-0.632,0.482-0.87c0.213-0.238,0.469-0.42,0.771-0.545
		s0.645-0.188,1.023-0.188c0.4,0,0.744,0.059,1.029,0.177c0.283,0.118,0.518,0.282,0.699,0.491c0.184,0.21,0.318,0.458,0.404,0.744
		s0.129,0.598,0.129,0.935V19.088z M30.112,18.701c0.01-0.38-0.066-0.678-0.229-0.895c-0.164-0.217-0.414-0.325-0.756-0.325
		c-0.172,0-0.32,0.033-0.447,0.098s-0.232,0.15-0.316,0.26s-0.148,0.238-0.193,0.387s-0.072,0.308-0.078,0.476H30.112z
		 M29.354,14.48c0.025-0.039,0.055-0.073,0.092-0.102c0.035-0.029,0.08-0.052,0.133-0.067c0.055-0.017,0.123-0.028,0.205-0.035
		s0.182-0.011,0.301-0.011c0.164,0,0.295,0.007,0.389,0.021c0.096,0.015,0.164,0.035,0.205,0.062
		c0.041,0.027,0.061,0.059,0.057,0.095c-0.004,0.035-0.021,0.073-0.055,0.112l-1.041,1.246c-0.029,0.036-0.059,0.065-0.086,0.089
		c-0.029,0.023-0.066,0.042-0.111,0.057c-0.045,0.014-0.1,0.024-0.168,0.031c-0.068,0.008-0.154,0.012-0.258,0.012
		c-0.125,0-0.225-0.006-0.299-0.017c-0.072-0.011-0.125-0.027-0.152-0.051c-0.029-0.023-0.041-0.053-0.035-0.089
		s0.023-0.077,0.057-0.123L29.354,14.48z"/>
	<path fill="#17635B" d="M37.11,21.623c0,0.036-0.011,0.067-0.032,0.094c-0.021,0.027-0.058,0.05-0.107,0.067
		s-0.119,0.031-0.207,0.04s-0.195,0.014-0.324,0.014c-0.133,0-0.243-0.005-0.331-0.014s-0.156-0.022-0.206-0.04
		c-0.051-0.018-0.086-0.04-0.107-0.067c-0.021-0.026-0.033-0.058-0.033-0.094V18.89c0-0.233-0.017-0.416-0.051-0.549
		c-0.034-0.132-0.083-0.246-0.147-0.341s-0.147-0.168-0.25-0.22c-0.102-0.052-0.221-0.078-0.356-0.078
		c-0.172,0-0.346,0.063-0.521,0.188c-0.176,0.126-0.358,0.309-0.548,0.549v3.185c0,0.036-0.011,0.067-0.032,0.094
		c-0.021,0.027-0.059,0.05-0.11,0.067s-0.12,0.031-0.206,0.04s-0.195,0.014-0.328,0.014s-0.242-0.005-0.328-0.014
		s-0.154-0.022-0.206-0.04s-0.089-0.04-0.11-0.067c-0.021-0.026-0.032-0.058-0.032-0.094v-4.791c0-0.036,0.009-0.067,0.026-0.094
		c0.019-0.027,0.051-0.05,0.098-0.067c0.046-0.018,0.106-0.031,0.18-0.04s0.165-0.014,0.276-0.014c0.114,0,0.21,0.005,0.284,0.014
		c0.076,0.009,0.134,0.022,0.175,0.04s0.071,0.04,0.089,0.067c0.018,0.026,0.027,0.058,0.027,0.094v0.554
		c0.265-0.287,0.534-0.502,0.808-0.645c0.274-0.144,0.56-0.215,0.856-0.215c0.326,0,0.602,0.053,0.825,0.16s0.404,0.254,0.542,0.438
		s0.237,0.399,0.299,0.647c0.061,0.246,0.091,0.544,0.091,0.891V21.623z"/>
	<path fill="#17635B" d="M42.863,19.088c0,0.165-0.037,0.286-0.11,0.365s-0.174,0.118-0.303,0.118h-2.917
		c0,0.204,0.024,0.39,0.072,0.556c0.049,0.167,0.126,0.309,0.231,0.425s0.241,0.205,0.408,0.266
		c0.166,0.061,0.366,0.092,0.599,0.092c0.236,0,0.444-0.018,0.623-0.052s0.334-0.071,0.465-0.112s0.239-0.079,0.325-0.113
		s0.155-0.051,0.209-0.051c0.032,0,0.059,0.006,0.08,0.019s0.04,0.035,0.055,0.067c0.014,0.032,0.023,0.078,0.029,0.137
		c0.005,0.06,0.008,0.134,0.008,0.223c0,0.079-0.002,0.146-0.006,0.202c-0.003,0.056-0.009,0.103-0.016,0.142
		c-0.007,0.04-0.018,0.073-0.032,0.1c-0.015,0.027-0.033,0.053-0.057,0.078s-0.087,0.059-0.19,0.102s-0.236,0.086-0.397,0.127
		s-0.346,0.077-0.554,0.107c-0.207,0.03-0.43,0.045-0.666,0.045c-0.426,0-0.799-0.053-1.119-0.16s-0.588-0.271-0.803-0.489
		s-0.376-0.494-0.481-0.827s-0.158-0.724-0.158-1.171c0-0.426,0.056-0.811,0.167-1.152c0.11-0.342,0.271-0.632,0.482-0.87
		c0.212-0.238,0.469-0.42,0.771-0.545s0.644-0.188,1.023-0.188c0.4,0,0.743,0.059,1.028,0.177c0.284,0.118,0.519,0.282,0.7,0.491
		c0.184,0.21,0.317,0.458,0.403,0.744s0.129,0.598,0.129,0.935V19.088z M41.553,18.701c0.011-0.38-0.065-0.678-0.229-0.895
		s-0.414-0.325-0.755-0.325c-0.172,0-0.321,0.033-0.448,0.098s-0.232,0.15-0.316,0.26s-0.148,0.238-0.193,0.387
		s-0.071,0.308-0.078,0.476H41.553z M40.796,14.48c0.024-0.039,0.055-0.073,0.091-0.102c0.036-0.029,0.081-0.052,0.134-0.067
		c0.055-0.017,0.122-0.028,0.205-0.035c0.082-0.007,0.182-0.011,0.301-0.011c0.164,0,0.294,0.007,0.389,0.021
		s0.163,0.035,0.204,0.062c0.041,0.027,0.061,0.059,0.057,0.095c-0.004,0.035-0.021,0.073-0.054,0.112l-1.042,1.246
		c-0.028,0.036-0.058,0.065-0.086,0.089s-0.065,0.042-0.11,0.057c-0.045,0.014-0.101,0.024-0.169,0.031
		c-0.068,0.008-0.154,0.012-0.258,0.012c-0.125,0-0.225-0.006-0.298-0.017s-0.125-0.027-0.153-0.051s-0.04-0.053-0.035-0.089
		c0.006-0.036,0.024-0.077,0.057-0.123L40.796,14.48z"/>
	<path fill="#17635B" d="M48.632,21.623c0,0.036-0.011,0.067-0.032,0.094c-0.021,0.027-0.058,0.05-0.107,0.067
		s-0.119,0.031-0.207,0.04s-0.196,0.014-0.325,0.014c-0.132,0-0.242-0.005-0.33-0.014s-0.156-0.022-0.207-0.04
		c-0.05-0.018-0.086-0.04-0.107-0.067c-0.021-0.026-0.031-0.058-0.031-0.094v-3.878h-1.778v3.878c0,0.036-0.011,0.067-0.032,0.094
		c-0.021,0.027-0.058,0.05-0.107,0.067s-0.119,0.031-0.207,0.04s-0.197,0.014-0.33,0.014c-0.129,0-0.237-0.005-0.325-0.014
		s-0.157-0.022-0.209-0.04s-0.088-0.04-0.107-0.067c-0.02-0.026-0.03-0.058-0.03-0.094v-3.878h-0.602
		c-0.067,0-0.118-0.042-0.152-0.126s-0.051-0.225-0.051-0.422c0-0.104,0.004-0.191,0.013-0.263c0.009-0.072,0.021-0.129,0.038-0.17
		c0.016-0.041,0.037-0.07,0.064-0.088c0.026-0.019,0.058-0.027,0.094-0.027h0.596v-0.424c0-0.326,0.033-0.611,0.1-0.854
		s0.168-0.446,0.304-0.609s0.308-0.285,0.516-0.365c0.208-0.081,0.453-0.121,0.735-0.121c0.079,0,0.159,0.004,0.239,0.011
		c0.081,0.007,0.157,0.018,0.229,0.032s0.134,0.03,0.188,0.048c0.053,0.019,0.09,0.037,0.109,0.057s0.036,0.042,0.049,0.067
		s0.023,0.058,0.032,0.097s0.015,0.091,0.019,0.153s0.006,0.141,0.006,0.233c0,0.172-0.011,0.293-0.03,0.362
		c-0.02,0.07-0.058,0.104-0.115,0.104c-0.021,0-0.046-0.003-0.072-0.01c-0.027-0.008-0.06-0.017-0.097-0.027
		c-0.038-0.011-0.082-0.021-0.132-0.029s-0.112-0.014-0.188-0.014c-0.189,0-0.327,0.064-0.413,0.193s-0.129,0.342-0.129,0.639v0.457
		h2.718c0.136,0,0.238,0.029,0.307,0.089c0.067,0.059,0.102,0.153,0.102,0.282V21.623z M48.733,15.221
		c0,0.133-0.011,0.244-0.034,0.336c-0.023,0.091-0.063,0.164-0.121,0.22s-0.135,0.095-0.233,0.118s-0.222,0.035-0.368,0.035
		s-0.271-0.012-0.37-0.035c-0.101-0.023-0.181-0.063-0.239-0.118c-0.06-0.056-0.101-0.129-0.124-0.22
		c-0.023-0.092-0.035-0.203-0.035-0.336c0-0.129,0.012-0.238,0.035-0.327c0.023-0.09,0.064-0.163,0.124-0.221
		c0.059-0.058,0.139-0.099,0.239-0.123c0.1-0.025,0.224-0.038,0.37-0.038s0.27,0.013,0.368,0.038
		c0.099,0.024,0.176,0.065,0.233,0.123s0.098,0.131,0.121,0.221C48.723,14.983,48.733,15.092,48.733,15.221z"/>
	<path fill="#17635B" d="M53.616,20.861c0,0.093-0.003,0.171-0.009,0.233c-0.005,0.063-0.013,0.116-0.021,0.159
		s-0.02,0.077-0.032,0.104c-0.013,0.026-0.04,0.061-0.083,0.102s-0.116,0.092-0.22,0.15c-0.104,0.06-0.223,0.112-0.355,0.159
		c-0.132,0.046-0.276,0.084-0.432,0.112c-0.156,0.028-0.316,0.043-0.48,0.043c-0.369,0-0.696-0.058-0.98-0.172
		c-0.285-0.114-0.523-0.284-0.717-0.508s-0.34-0.497-0.438-0.819S49.7,19.735,49.7,19.32c0-0.48,0.06-0.895,0.18-1.244
		c0.12-0.349,0.287-0.638,0.502-0.867s0.47-0.399,0.764-0.51c0.293-0.111,0.615-0.167,0.967-0.167c0.143,0,0.283,0.013,0.421,0.038
		c0.138,0.024,0.267,0.059,0.387,0.102s0.228,0.092,0.322,0.145c0.095,0.055,0.162,0.101,0.202,0.141
		c0.039,0.039,0.066,0.072,0.083,0.099c0.016,0.027,0.028,0.062,0.037,0.104s0.017,0.097,0.021,0.159
		c0.006,0.063,0.009,0.139,0.009,0.228c0,0.208-0.019,0.354-0.055,0.438c-0.035,0.084-0.082,0.126-0.139,0.126
		c-0.062,0-0.126-0.025-0.193-0.075c-0.068-0.05-0.149-0.105-0.242-0.167c-0.093-0.061-0.204-0.116-0.333-0.166
		s-0.283-0.075-0.462-0.075c-0.351,0-0.619,0.135-0.806,0.405s-0.279,0.667-0.279,1.189c0,0.258,0.023,0.485,0.069,0.683
		c0.047,0.197,0.116,0.361,0.207,0.494c0.092,0.133,0.206,0.231,0.344,0.298s0.299,0.1,0.48,0.1c0.187,0,0.347-0.027,0.481-0.083
		c0.134-0.056,0.251-0.117,0.352-0.186s0.185-0.13,0.253-0.186c0.067-0.056,0.125-0.083,0.172-0.083c0.031,0,0.059,0.009,0.08,0.027
		c0.021,0.018,0.038,0.051,0.051,0.099c0.013,0.049,0.022,0.11,0.029,0.186C53.612,20.646,53.616,20.742,53.616,20.861z"/>
	<path fill="#17635B" d="M56.05,15.21c0,0.272-0.056,0.46-0.167,0.564c-0.111,0.104-0.317,0.155-0.618,0.155
		c-0.304,0-0.509-0.05-0.614-0.15s-0.159-0.281-0.159-0.542c0-0.272,0.055-0.462,0.164-0.567s0.316-0.158,0.621-0.158
		c0.301,0,0.504,0.051,0.611,0.153C55.995,14.767,56.05,14.948,56.05,15.21z M55.947,21.623c0,0.036-0.011,0.067-0.032,0.094
		c-0.021,0.027-0.059,0.05-0.11,0.067s-0.12,0.031-0.206,0.04s-0.195,0.014-0.328,0.014s-0.242-0.005-0.328-0.014
		s-0.154-0.022-0.206-0.04s-0.089-0.04-0.11-0.067c-0.021-0.026-0.032-0.058-0.032-0.094v-4.78c0-0.036,0.011-0.067,0.032-0.094
		c0.021-0.027,0.059-0.051,0.11-0.07s0.12-0.035,0.206-0.045c0.086-0.012,0.195-0.017,0.328-0.017s0.242,0.005,0.328,0.017
		c0.086,0.01,0.154,0.025,0.206,0.045s0.089,0.043,0.11,0.07c0.021,0.026,0.032,0.058,0.032,0.094V21.623z"/>
	<path fill="#17635B" d="M61.377,21.64c0,0.05-0.018,0.089-0.054,0.117c-0.036,0.029-0.092,0.05-0.169,0.063
		s-0.19,0.019-0.341,0.019c-0.162,0-0.279-0.006-0.353-0.019s-0.125-0.033-0.155-0.063c-0.03-0.028-0.046-0.067-0.046-0.117v-0.382
		c-0.197,0.211-0.422,0.376-0.674,0.494c-0.253,0.118-0.533,0.177-0.841,0.177c-0.254,0-0.488-0.032-0.701-0.099
		s-0.397-0.165-0.553-0.296c-0.156-0.131-0.277-0.293-0.363-0.486s-0.129-0.418-0.129-0.676c0-0.279,0.055-0.522,0.164-0.729
		s0.272-0.376,0.489-0.51c0.217-0.135,0.485-0.234,0.808-0.299s0.697-0.096,1.123-0.096h0.467v-0.291
		c0-0.15-0.015-0.281-0.045-0.395c-0.03-0.112-0.081-0.207-0.15-0.281c-0.07-0.076-0.163-0.131-0.279-0.167
		s-0.261-0.054-0.433-0.054c-0.226,0-0.427,0.025-0.604,0.075c-0.177,0.05-0.334,0.105-0.47,0.167
		c-0.136,0.061-0.25,0.116-0.341,0.166c-0.092,0.05-0.166,0.075-0.223,0.075c-0.04,0-0.075-0.013-0.105-0.038
		c-0.03-0.024-0.056-0.061-0.075-0.107c-0.02-0.046-0.034-0.104-0.046-0.172c-0.01-0.067-0.016-0.143-0.016-0.225
		c0-0.111,0.009-0.199,0.027-0.264c0.018-0.064,0.052-0.123,0.102-0.175s0.138-0.109,0.264-0.172
		c0.125-0.063,0.271-0.12,0.439-0.175c0.169-0.053,0.353-0.097,0.551-0.131c0.199-0.034,0.404-0.051,0.615-0.051
		c0.376,0,0.697,0.036,0.964,0.109s0.486,0.187,0.658,0.339s0.297,0.348,0.376,0.588s0.118,0.524,0.118,0.854V21.64z M60.05,19.587
		h-0.516c-0.218,0-0.404,0.017-0.559,0.049c-0.153,0.032-0.279,0.08-0.375,0.145c-0.098,0.064-0.168,0.143-0.213,0.234
		c-0.045,0.091-0.066,0.195-0.066,0.314c0,0.2,0.063,0.357,0.19,0.473c0.127,0.114,0.304,0.172,0.528,0.172
		c0.19,0,0.365-0.049,0.524-0.146s0.321-0.238,0.485-0.425V19.587z"/>
	<path fill="#17635B" d="M64.181,15.21c0,0.272-0.056,0.46-0.167,0.564c-0.111,0.104-0.317,0.155-0.618,0.155
		c-0.304,0-0.509-0.05-0.614-0.15s-0.159-0.281-0.159-0.542c0-0.272,0.055-0.462,0.164-0.567s0.316-0.158,0.621-0.158
		c0.301,0,0.504,0.051,0.611,0.153C64.126,14.767,64.181,14.948,64.181,15.21z M64.078,21.623c0,0.036-0.011,0.067-0.032,0.094
		c-0.021,0.027-0.059,0.05-0.11,0.067s-0.12,0.031-0.206,0.04s-0.195,0.014-0.328,0.014s-0.242-0.005-0.328-0.014
		s-0.154-0.022-0.206-0.04s-0.089-0.04-0.11-0.067c-0.021-0.026-0.032-0.058-0.032-0.094v-4.78c0-0.036,0.011-0.067,0.032-0.094
		c0.021-0.027,0.059-0.051,0.11-0.07s0.12-0.035,0.206-0.045c0.086-0.012,0.195-0.017,0.328-0.017s0.242,0.005,0.328,0.017
		c0.086,0.01,0.154,0.025,0.206,0.045s0.089,0.043,0.11,0.07c0.021,0.026,0.032,0.058,0.032,0.094V21.623z"/>
	<path fill="#17635B" d="M68.504,17.279c0,0.129-0.003,0.234-0.01,0.316c-0.008,0.082-0.019,0.146-0.033,0.193
		c-0.014,0.047-0.032,0.079-0.056,0.097s-0.053,0.026-0.089,0.026c-0.028,0-0.061-0.006-0.097-0.019s-0.076-0.025-0.121-0.04
		s-0.094-0.027-0.147-0.04s-0.113-0.019-0.178-0.019c-0.074,0-0.15,0.015-0.225,0.045c-0.076,0.03-0.153,0.078-0.234,0.143
		c-0.08,0.064-0.164,0.15-0.252,0.258s-0.182,0.24-0.282,0.397v2.986c0,0.036-0.011,0.067-0.032,0.094
		c-0.021,0.027-0.059,0.05-0.11,0.067s-0.12,0.031-0.206,0.04s-0.195,0.014-0.328,0.014s-0.242-0.005-0.328-0.014
		s-0.154-0.022-0.206-0.04s-0.089-0.04-0.11-0.067c-0.021-0.026-0.032-0.058-0.032-0.094v-4.791c0-0.036,0.009-0.067,0.026-0.094
		c0.019-0.027,0.051-0.05,0.098-0.067c0.046-0.018,0.106-0.031,0.18-0.04s0.165-0.014,0.276-0.014c0.114,0,0.21,0.005,0.284,0.014
		c0.076,0.009,0.134,0.022,0.175,0.04s0.071,0.04,0.089,0.067c0.018,0.026,0.027,0.058,0.027,0.094v0.597
		c0.125-0.18,0.243-0.327,0.354-0.443c0.111-0.116,0.217-0.209,0.317-0.277c0.101-0.067,0.2-0.115,0.301-0.142
		c0.101-0.027,0.2-0.04,0.301-0.04c0.047,0,0.097,0.002,0.15,0.008c0.054,0.005,0.109,0.014,0.167,0.026
		c0.057,0.013,0.107,0.027,0.15,0.043c0.043,0.017,0.074,0.033,0.094,0.052c0.02,0.018,0.034,0.037,0.043,0.059
		s0.017,0.051,0.023,0.089c0.008,0.037,0.013,0.094,0.017,0.169S68.504,17.15,68.504,17.279z"/>
	<path fill="#17635B" d="M73.639,19.088c0,0.165-0.037,0.286-0.11,0.365s-0.174,0.118-0.303,0.118h-2.917
		c0,0.204,0.024,0.39,0.072,0.556c0.049,0.167,0.126,0.309,0.231,0.425s0.241,0.205,0.408,0.266
		c0.166,0.061,0.366,0.092,0.599,0.092c0.236,0,0.444-0.018,0.623-0.052s0.334-0.071,0.465-0.112s0.239-0.079,0.325-0.113
		s0.155-0.051,0.209-0.051c0.032,0,0.059,0.006,0.08,0.019s0.04,0.035,0.055,0.067c0.014,0.032,0.023,0.078,0.029,0.137
		c0.005,0.06,0.008,0.134,0.008,0.223c0,0.079-0.002,0.146-0.006,0.202c-0.003,0.056-0.009,0.103-0.016,0.142
		c-0.007,0.04-0.018,0.073-0.032,0.1c-0.015,0.027-0.033,0.053-0.057,0.078s-0.087,0.059-0.19,0.102s-0.236,0.086-0.397,0.127
		s-0.346,0.077-0.554,0.107c-0.207,0.03-0.43,0.045-0.666,0.045c-0.426,0-0.799-0.053-1.119-0.16s-0.588-0.271-0.803-0.489
		s-0.376-0.494-0.481-0.827s-0.158-0.724-0.158-1.171c0-0.426,0.056-0.811,0.167-1.152c0.11-0.342,0.271-0.632,0.482-0.87
		c0.212-0.238,0.469-0.42,0.771-0.545s0.644-0.188,1.023-0.188c0.4,0,0.743,0.059,1.028,0.177c0.284,0.118,0.519,0.282,0.7,0.491
		c0.184,0.21,0.317,0.458,0.403,0.744s0.129,0.598,0.129,0.935V19.088z M72.328,18.701c0.011-0.38-0.065-0.678-0.229-0.895
		s-0.414-0.325-0.755-0.325c-0.172,0-0.321,0.033-0.448,0.098s-0.232,0.15-0.316,0.26s-0.148,0.238-0.193,0.387
		s-0.071,0.308-0.078,0.476H72.328z"/>
</g>
<path fill="#FFFFFF" d="M50.082,63.432c0.666,0.001,1.332,0.003,1.997,0.004c0.997,0.09,1.993,0.18,2.991,0.269
	c6.787,2.653,9.673,7.624,9.021,14.852c-0.399,4.428,1.813,10.129-0.862,12.992c-2.744,2.934-8.498,0.817-12.927,0.944
	c-6.303,0.18-12.636-0.273-18.916,0.15c-4.605,0.313-5.851-1.382-5.364-5.63c0.319-2.786,0.263-5.655,0.021-8.456
	c-0.623-7.226,2.244-12.201,9.036-14.854C40.081,63.613,45.082,63.522,50.082,63.432z"/>
<path fill="#FFFFFF" d="M41.417,60.684c-5.784-2.897-9.649-7.142-8.854-14.043c0.697-6.052,5.649-10.567,11.628-11.155
	c5.499-0.54,10.93,2.787,13.052,7.995c2.228,5.465,0.562,11.209-4.405,15.021c-0.911,0.7-1.947,1.238-2.928,1.852
	C47.104,61.094,44.259,60.861,41.417,60.684z"/>
</svg>
