<?xml version="1.0" encoding="utf-8"?>
<!-- Generator: Adobe Illustrator 16.0.0, SVG Export Plug-In . SVG Version: 6.00 Build 0)  -->
<!DOCTYPE svg PUBLIC "-//W3C//DTD SVG 1.1//EN" "http://www.w3.org/Graphics/SVG/1.1/DTD/svg11.dtd">
<svg version="1.1" id="Calque_1" xmlns="http://www.w3.org/2000/svg" xmlns:xlink="http://www.w3.org/1999/xlink" x="0px" y="0px"
	 width="90.5px" height="100.971px" viewBox="0 0 90.5 100.971" enable-background="new 0 0 90.5 100.971" xml:space="preserve">
<path fill="#E3700C" d="M87.73,27.566c-0.248,0.019-0.494,0.046-0.742,0.046c-27.825,0.005-55.651,0.005-83.479,0
	c-0.247,0-0.495-0.027-0.741-0.046c-0.012,0.021-0.022,0.041-0.041,0.061c0.002,0.229,0.006,0.459,0.006,0.688
	c0,20.564,0,41.129-0.002,61.693c0,0.729,0.002,1.457,0.115,2.182c0.428,2.742,1.439,5.179,3.709,6.916
	c1.866,1.435,4.041,1.864,6.34,1.864c21.42-0.003,42.84-0.003,64.261,0.003c0.92,0,1.831-0.068,2.725-0.27
	c3.067-0.691,5.568-2.166,6.958-5.142c0.646-1.383,0.913-2.854,0.917-4.368c0.017-4.94,0.007-9.886,0.007-14.825
	c0.002-16.247,0.004-32.494,0.004-48.741C87.754,27.607,87.741,27.588,87.73,27.566z"/>
<path opacity="0.1" fill="#EBBD21" enable-background="new    " d="M87.402,7.461c-1.123-4.688-4.495-7.459-9.459-7.457
	C56.799,0.013,35.655,0.007,14.511,0.011c-1.098,0-2.198-0.063-3.293,0.119C9.106,0.483,7.192,1.27,5.59,2.715
	C3.556,4.552,2.786,6.977,2.751,9.6c-0.074,5.649-0.02,11.3-0.018,16.95c0.208,0.008,0.416,0.021,0.623,0.021
	c27.934,0.003,55.867,0.003,83.801,0c0.208,0,0.415-0.015,0.622-0.021c0.003-5.274,0.003-10.55,0.007-15.825
	C87.787,9.621,87.659,8.532,87.402,7.461z"/>
<path fill="#EB6362" d="M2.727,25.521c0.208,0.008,0.416,0.022,0.623,0.022c27.934,0.001,55.867,0.001,83.8,0
	c0.209,0,0.416-0.017,0.623-0.022c0.744,0.012,1.488,0.041,2.23,0.021c0.391-0.011,0.48,0.132,0.489,0.503
	c0.026,1.549,0.039,1.546-1.485,1.55c-0.412,0.001-0.824,0.021-1.236,0.03c-0.019-0.019-0.03-0.036-0.039-0.059
	c0.119-1.059,0.119-1.059-0.883-1.059c-27.732,0-55.467,0-83.199,0c-0.125,0-0.251,0.015-0.374-0.002
	c-0.443-0.063-0.613,0.134-0.555,0.563c0.022,0.163,0.031,0.329,0.046,0.494c-0.01,0.021-0.022,0.041-0.04,0.06
	c-0.743-0.013-1.487-0.042-2.23-0.023c-0.386,0.009-0.486-0.126-0.493-0.5c-0.028-1.552-0.04-1.55,1.482-1.553
	C1.902,25.548,2.314,25.53,2.727,25.521z"/>
<path fill="#E75030" d="M2.769,27.567c-0.015-0.165-0.023-0.331-0.046-0.492c-0.058-0.434,0.112-0.628,0.555-0.565
	C3.4,26.524,3.527,26.51,3.652,26.51c27.732,0,55.465,0,83.198,0c1.002,0,1.002,0,0.883,1.059c-0.248,0.017-0.496,0.047-0.744,0.047
	c-27.824,0.002-55.65,0.002-83.475,0C3.264,27.613,3.017,27.583,2.769,27.567z"/>
<path fill="#EABD26" d="M47.098,49.521c-1.139,0-2.277-0.007-3.415,0.001c-2.107,0.018-2.254-1.104-2.074-2.56
	c0.086-0.692,0.539-1.248,1.254-1.289c2.001-0.115,4.012-0.147,6.008,0.02c0.876,0.073,1.333,0.934,1.297,1.997
	c-0.034,1.048-0.458,1.587-1.395,1.776C48.218,49.579,47.657,49.494,47.098,49.521z"/>
<rect x="3.35" y="7.859" fill="none" width="81.208" height="17.686"/>
<g enable-background="new    ">
	<path fill="#17635B" d="M19.252,12.706c0,0.315-0.03,0.599-0.088,0.852c-0.06,0.252-0.16,0.467-0.301,0.645
		c-0.142,0.177-0.327,0.313-0.556,0.405s-0.512,0.14-0.849,0.14c-0.107,0-0.214-0.008-0.32-0.024
		c-0.105-0.016-0.202-0.036-0.29-0.062c-0.087-0.025-0.164-0.052-0.228-0.08c-0.064-0.029-0.107-0.055-0.129-0.078
		s-0.04-0.048-0.054-0.072c-0.014-0.025-0.027-0.059-0.038-0.1s-0.018-0.093-0.021-0.153s-0.005-0.138-0.005-0.231
		c0-0.121,0.002-0.225,0.008-0.309c0.005-0.084,0.014-0.15,0.026-0.198c0.013-0.049,0.031-0.083,0.054-0.103
		c0.023-0.02,0.053-0.029,0.089-0.029c0.032,0,0.07,0.012,0.113,0.035s0.091,0.047,0.145,0.072s0.116,0.049,0.188,0.072
		s0.156,0.035,0.252,0.035s0.182-0.014,0.255-0.04c0.074-0.027,0.135-0.073,0.183-0.14c0.049-0.066,0.085-0.155,0.11-0.266
		c0.025-0.111,0.038-0.255,0.038-0.43V7.872c0-0.036,0.012-0.067,0.035-0.094c0.023-0.027,0.061-0.05,0.113-0.067
		c0.052-0.018,0.124-0.031,0.217-0.04s0.208-0.014,0.344-0.014s0.249,0.005,0.338,0.014s0.162,0.022,0.218,0.04
		c0.055,0.018,0.095,0.04,0.118,0.067c0.023,0.026,0.035,0.058,0.035,0.094V12.706z"/>
	<path fill="#17635B" d="M22.266,7.69c0,0.14-0.007,0.268-0.021,0.384s-0.038,0.227-0.07,0.33c-0.032,0.104-0.073,0.205-0.124,0.304
		s-0.113,0.2-0.188,0.304l-0.72,1.031c-0.025,0.036-0.053,0.066-0.083,0.092c-0.03,0.024-0.067,0.045-0.11,0.062
		c-0.043,0.016-0.095,0.027-0.156,0.034c-0.061,0.008-0.138,0.012-0.231,0.012c-0.104,0-0.188-0.004-0.252-0.012
		c-0.064-0.007-0.111-0.02-0.14-0.037s-0.044-0.042-0.046-0.072c-0.001-0.03,0.006-0.065,0.024-0.105l0.655-1.482V7.69
		c0-0.122,0.014-0.22,0.043-0.296c0.029-0.074,0.073-0.133,0.134-0.174s0.138-0.068,0.231-0.081s0.206-0.019,0.338-0.019
		c0.125,0,0.233,0.006,0.322,0.019s0.164,0.04,0.223,0.081c0.059,0.041,0.102,0.1,0.129,0.174C22.252,7.47,22.266,7.568,22.266,7.69
		z"/>
	<path fill="#17635B" d="M26.917,14.474c0,0.05-0.018,0.089-0.054,0.117c-0.036,0.029-0.092,0.05-0.169,0.063
		s-0.19,0.019-0.341,0.019c-0.162,0-0.279-0.006-0.353-0.019s-0.125-0.033-0.155-0.063c-0.03-0.028-0.046-0.067-0.046-0.117v-0.382
		c-0.197,0.211-0.422,0.376-0.674,0.494c-0.253,0.118-0.533,0.177-0.841,0.177c-0.254,0-0.488-0.032-0.701-0.099
		s-0.397-0.165-0.553-0.296c-0.156-0.131-0.277-0.293-0.363-0.486s-0.129-0.418-0.129-0.676c0-0.279,0.055-0.522,0.164-0.729
		s0.272-0.376,0.489-0.51c0.217-0.135,0.485-0.234,0.808-0.299s0.697-0.096,1.123-0.096h0.467v-0.291
		c0-0.15-0.015-0.281-0.045-0.395c-0.03-0.112-0.081-0.207-0.15-0.281c-0.07-0.076-0.163-0.131-0.279-0.167
		s-0.261-0.054-0.433-0.054c-0.226,0-0.427,0.025-0.604,0.075c-0.177,0.05-0.334,0.105-0.47,0.167
		c-0.136,0.061-0.25,0.116-0.341,0.166c-0.092,0.05-0.166,0.075-0.223,0.075c-0.04,0-0.074-0.013-0.105-0.038
		c-0.03-0.024-0.055-0.061-0.075-0.107c-0.02-0.046-0.034-0.104-0.046-0.172c-0.01-0.067-0.016-0.143-0.016-0.225
		c0-0.111,0.009-0.199,0.027-0.264c0.018-0.064,0.051-0.123,0.102-0.175s0.138-0.109,0.264-0.172
		c0.125-0.063,0.271-0.12,0.439-0.175c0.169-0.053,0.353-0.097,0.551-0.131c0.199-0.034,0.404-0.051,0.615-0.051
		c0.376,0,0.697,0.036,0.964,0.109s0.486,0.187,0.658,0.339s0.297,0.348,0.376,0.588s0.118,0.524,0.118,0.854V14.474z M25.59,12.421
		h-0.516c-0.218,0-0.404,0.017-0.559,0.049c-0.153,0.032-0.279,0.08-0.375,0.145c-0.098,0.064-0.168,0.143-0.213,0.234
		c-0.045,0.091-0.066,0.195-0.066,0.314c0,0.2,0.063,0.357,0.19,0.473c0.127,0.114,0.304,0.172,0.528,0.172
		c0.19,0,0.365-0.049,0.524-0.146s0.321-0.238,0.485-0.425V12.421z"/>
	<path fill="#17635B" d="M29.721,8.044c0,0.272-0.056,0.46-0.167,0.564c-0.111,0.104-0.317,0.155-0.618,0.155
		c-0.304,0-0.509-0.05-0.614-0.15s-0.159-0.281-0.159-0.542c0-0.272,0.055-0.462,0.164-0.567s0.316-0.158,0.621-0.158
		c0.301,0,0.504,0.051,0.611,0.153C29.666,7.601,29.721,7.782,29.721,8.044z M29.618,14.457c0,0.036-0.011,0.067-0.032,0.094
		c-0.021,0.027-0.059,0.05-0.11,0.067s-0.12,0.031-0.206,0.04s-0.195,0.014-0.328,0.014s-0.242-0.005-0.328-0.014
		s-0.154-0.022-0.206-0.04s-0.089-0.04-0.11-0.067c-0.021-0.026-0.032-0.058-0.032-0.094v-4.78c0-0.036,0.011-0.067,0.032-0.094
		c0.021-0.027,0.059-0.051,0.11-0.07s0.12-0.035,0.206-0.045c0.086-0.012,0.195-0.017,0.328-0.017s0.242,0.005,0.328,0.017
		c0.086,0.01,0.154,0.025,0.206,0.045s0.089,0.043,0.11,0.07c0.021,0.026,0.032,0.058,0.032,0.094V14.457z"/>
	<path fill="#17635B" d="M37.998,14.457c0,0.036-0.009,0.067-0.027,0.094c-0.018,0.027-0.049,0.05-0.094,0.067
		s-0.104,0.031-0.177,0.04s-0.166,0.014-0.276,0.014c-0.119,0-0.215-0.005-0.288-0.014s-0.132-0.022-0.175-0.04
		s-0.073-0.04-0.091-0.067c-0.018-0.026-0.026-0.058-0.026-0.094v-0.554c-0.266,0.287-0.535,0.502-0.809,0.645
		c-0.274,0.144-0.558,0.215-0.852,0.215c-0.329,0-0.606-0.053-0.83-0.16s-0.404-0.255-0.542-0.441
		c-0.138-0.186-0.236-0.401-0.296-0.646c-0.059-0.245-0.088-0.551-0.088-0.916V9.666c0-0.036,0.01-0.067,0.029-0.094
		c0.02-0.027,0.056-0.05,0.107-0.067s0.121-0.031,0.209-0.04s0.196-0.014,0.325-0.014c0.133,0,0.241,0.005,0.327,0.014
		s0.155,0.022,0.207,0.04s0.089,0.04,0.11,0.067c0.021,0.026,0.032,0.058,0.032,0.094v2.707c0,0.251,0.016,0.442,0.049,0.575
		c0.031,0.132,0.081,0.246,0.147,0.341s0.15,0.168,0.252,0.22c0.103,0.052,0.222,0.078,0.357,0.078c0.172,0,0.345-0.063,0.519-0.188
		c0.174-0.126,0.358-0.309,0.556-0.549V9.666c0-0.036,0.01-0.067,0.029-0.094c0.02-0.027,0.056-0.05,0.107-0.067
		s0.121-0.031,0.207-0.04s0.195-0.014,0.327-0.014c0.133,0,0.242,0.005,0.328,0.014s0.154,0.022,0.204,0.04s0.086,0.04,0.107,0.067
		c0.021,0.026,0.032,0.058,0.032,0.094V14.457z"/>
	<path fill="#17635B" d="M43.933,14.457c0,0.036-0.011,0.067-0.032,0.094c-0.021,0.027-0.058,0.05-0.107,0.067
		s-0.119,0.031-0.207,0.04s-0.195,0.014-0.324,0.014c-0.133,0-0.243-0.005-0.331-0.014s-0.156-0.022-0.206-0.04
		c-0.051-0.018-0.086-0.04-0.107-0.067c-0.021-0.026-0.033-0.058-0.033-0.094v-2.733c0-0.233-0.017-0.416-0.051-0.549
		c-0.034-0.132-0.083-0.246-0.147-0.341s-0.147-0.168-0.25-0.22c-0.102-0.052-0.221-0.078-0.356-0.078
		c-0.172,0-0.346,0.063-0.521,0.188c-0.176,0.126-0.358,0.309-0.548,0.549v3.185c0,0.036-0.011,0.067-0.032,0.094
		c-0.021,0.027-0.059,0.05-0.11,0.067s-0.12,0.031-0.206,0.04s-0.195,0.014-0.328,0.014s-0.242-0.005-0.328-0.014
		s-0.154-0.022-0.206-0.04s-0.089-0.04-0.11-0.067c-0.021-0.026-0.032-0.058-0.032-0.094V9.666c0-0.036,0.009-0.067,0.026-0.094
		c0.019-0.027,0.051-0.05,0.098-0.067c0.046-0.018,0.106-0.031,0.18-0.04s0.165-0.014,0.276-0.014c0.114,0,0.21,0.005,0.284,0.014
		c0.076,0.009,0.134,0.022,0.175,0.04s0.071,0.04,0.089,0.067c0.018,0.026,0.027,0.058,0.027,0.094v0.554
		c0.265-0.287,0.534-0.502,0.808-0.645c0.274-0.144,0.56-0.215,0.856-0.215c0.326,0,0.602,0.053,0.825,0.16s0.404,0.254,0.542,0.438
		s0.237,0.399,0.299,0.647c0.061,0.246,0.091,0.544,0.091,0.891V14.457z"/>
	<path fill="#17635B" d="M52.569,11.991c0,0.427-0.046,0.811-0.137,1.152c-0.092,0.342-0.225,0.633-0.4,0.873
		s-0.394,0.424-0.655,0.553s-0.561,0.193-0.897,0.193c-0.139,0-0.268-0.013-0.384-0.04c-0.116-0.026-0.229-0.067-0.338-0.123
		s-0.218-0.125-0.325-0.207s-0.219-0.179-0.333-0.29v2.256c0,0.036-0.011,0.068-0.032,0.097s-0.059,0.053-0.11,0.072
		s-0.12,0.035-0.206,0.046s-0.195,0.016-0.328,0.016s-0.242-0.005-0.328-0.016s-0.154-0.026-0.206-0.046s-0.089-0.044-0.11-0.072
		s-0.032-0.061-0.032-0.097V9.666c0-0.036,0.009-0.067,0.026-0.094c0.019-0.027,0.05-0.05,0.095-0.067s0.104-0.031,0.177-0.04
		s0.166-0.014,0.277-0.014c0.107,0,0.197,0.005,0.271,0.014s0.133,0.022,0.178,0.04s0.076,0.04,0.094,0.067
		c0.018,0.026,0.026,0.058,0.026,0.094v0.563c0.141-0.143,0.277-0.269,0.411-0.378c0.135-0.109,0.271-0.201,0.411-0.274
		s0.284-0.128,0.433-0.164c0.148-0.035,0.307-0.053,0.476-0.053c0.351,0,0.649,0.068,0.896,0.206s0.448,0.327,0.604,0.567
		c0.155,0.239,0.27,0.519,0.341,0.838C52.533,11.29,52.569,11.63,52.569,11.991z M51.162,12.089c0-0.205-0.016-0.4-0.046-0.589
		c-0.03-0.188-0.082-0.355-0.155-0.502s-0.17-0.264-0.29-0.352s-0.27-0.132-0.449-0.132c-0.089,0-0.178,0.014-0.266,0.04
		c-0.088,0.027-0.177,0.071-0.269,0.132c-0.091,0.061-0.185,0.14-0.282,0.236c-0.096,0.097-0.198,0.217-0.306,0.359v1.58
		c0.189,0.239,0.37,0.425,0.542,0.556s0.352,0.196,0.537,0.196c0.176,0,0.325-0.045,0.449-0.135c0.123-0.09,0.225-0.207,0.303-0.352
		c0.079-0.146,0.138-0.309,0.175-0.492C51.144,12.454,51.162,12.271,51.162,12.089z"/>
	<path fill="#17635B" d="M56.727,10.113c0,0.129-0.003,0.234-0.01,0.316c-0.008,0.082-0.019,0.146-0.033,0.193
		c-0.014,0.047-0.032,0.079-0.056,0.097s-0.053,0.026-0.089,0.026c-0.028,0-0.061-0.006-0.097-0.019s-0.076-0.025-0.121-0.04
		s-0.094-0.027-0.147-0.04s-0.113-0.019-0.178-0.019c-0.074,0-0.15,0.015-0.225,0.045c-0.076,0.03-0.153,0.078-0.234,0.143
		c-0.08,0.064-0.164,0.15-0.252,0.258s-0.182,0.24-0.282,0.397v2.986c0,0.036-0.011,0.067-0.032,0.094
		c-0.021,0.027-0.059,0.05-0.11,0.067s-0.12,0.031-0.206,0.04s-0.195,0.014-0.328,0.014s-0.242-0.005-0.328-0.014
		s-0.154-0.022-0.206-0.04s-0.089-0.04-0.11-0.067c-0.021-0.026-0.032-0.058-0.032-0.094V9.666c0-0.036,0.009-0.067,0.026-0.094
		c0.019-0.027,0.051-0.05,0.098-0.067c0.046-0.018,0.106-0.031,0.18-0.04s0.165-0.014,0.276-0.014c0.114,0,0.21,0.005,0.284,0.014
		c0.076,0.009,0.134,0.022,0.175,0.04s0.071,0.04,0.089,0.067c0.018,0.026,0.027,0.058,0.027,0.094v0.597
		c0.125-0.18,0.243-0.327,0.354-0.443c0.111-0.116,0.217-0.209,0.317-0.277c0.101-0.067,0.2-0.115,0.301-0.142
		c0.101-0.027,0.2-0.04,0.301-0.04c0.047,0,0.097,0.002,0.15,0.008c0.054,0.005,0.109,0.014,0.167,0.026
		c0.057,0.013,0.107,0.027,0.15,0.043c0.043,0.017,0.074,0.033,0.094,0.052c0.02,0.018,0.034,0.037,0.043,0.059
		s0.017,0.051,0.023,0.089c0.008,0.037,0.013,0.094,0.017,0.169S56.727,9.984,56.727,10.113z"/>
	<path fill="#17635B" d="M62.27,12.013c0,0.408-0.054,0.781-0.161,1.117c-0.107,0.337-0.271,0.627-0.489,0.871
		c-0.218,0.243-0.492,0.431-0.821,0.563s-0.714,0.198-1.155,0.198c-0.426,0-0.796-0.059-1.111-0.177s-0.576-0.29-0.784-0.516
		s-0.361-0.503-0.462-0.833c-0.101-0.329-0.15-0.705-0.15-1.127c0-0.408,0.055-0.782,0.164-1.12c0.109-0.339,0.272-0.629,0.491-0.87
		c0.219-0.242,0.491-0.429,0.819-0.562c0.327-0.133,0.711-0.198,1.152-0.198c0.43,0,0.802,0.058,1.117,0.174
		c0.314,0.116,0.575,0.287,0.781,0.514c0.206,0.225,0.358,0.503,0.459,0.832S62.27,11.587,62.27,12.013z M60.879,12.068
		c0-0.236-0.02-0.454-0.057-0.653c-0.038-0.198-0.102-0.371-0.191-0.519c-0.089-0.146-0.208-0.261-0.356-0.344
		c-0.148-0.082-0.336-0.123-0.562-0.123c-0.2,0-0.376,0.037-0.526,0.11s-0.274,0.181-0.37,0.322c-0.098,0.142-0.17,0.312-0.218,0.51
		c-0.049,0.199-0.073,0.426-0.073,0.68c0,0.236,0.021,0.454,0.06,0.652c0.039,0.199,0.103,0.372,0.19,0.519s0.207,0.261,0.357,0.341
		c0.15,0.081,0.337,0.121,0.559,0.121c0.204,0,0.381-0.037,0.531-0.11s0.274-0.18,0.371-0.319s0.168-0.309,0.215-0.508
		C60.855,12.548,60.879,12.322,60.879,12.068z"/>
	<path fill="#17635B" d="M64.795,14.618c0,0.376-0.033,0.681-0.098,0.913s-0.161,0.429-0.292,0.588s-0.295,0.279-0.491,0.36
		c-0.197,0.08-0.429,0.121-0.693,0.121c-0.146,0-0.272-0.011-0.376-0.03s-0.179-0.04-0.226-0.062s-0.079-0.049-0.097-0.08
		c-0.018-0.033-0.03-0.069-0.038-0.11c-0.007-0.041-0.012-0.088-0.016-0.14s-0.006-0.119-0.006-0.201
		c0-0.101,0.003-0.184,0.009-0.25c0.005-0.066,0.015-0.119,0.029-0.158c0.015-0.04,0.03-0.068,0.048-0.086
		c0.019-0.019,0.042-0.027,0.07-0.027c0.018,0,0.055,0.005,0.11,0.014s0.115,0.014,0.18,0.014c0.093,0,0.174-0.015,0.241-0.043
		c0.068-0.029,0.124-0.075,0.167-0.138s0.075-0.143,0.097-0.241s0.032-0.256,0.032-0.471V9.677c0-0.036,0.011-0.067,0.032-0.094
		c0.021-0.027,0.058-0.051,0.107-0.07s0.118-0.035,0.204-0.045c0.086-0.012,0.195-0.017,0.327-0.017
		c0.133,0,0.242,0.005,0.328,0.017c0.086,0.01,0.155,0.025,0.207,0.045s0.088,0.043,0.109,0.07c0.021,0.026,0.033,0.058,0.033,0.094
		V14.618z M64.896,8.044c0,0.272-0.055,0.46-0.164,0.564c-0.109,0.104-0.315,0.155-0.62,0.155c-0.301,0-0.505-0.05-0.612-0.15
		s-0.161-0.281-0.161-0.542c0-0.272,0.056-0.462,0.167-0.567c0.11-0.105,0.316-0.158,0.617-0.158c0.305,0,0.51,0.051,0.615,0.153
		C64.844,7.601,64.896,7.782,64.896,8.044z"/>
	<path fill="#17635B" d="M70.573,11.922c0,0.165-0.037,0.286-0.11,0.365s-0.174,0.118-0.303,0.118h-2.917
		c0,0.204,0.024,0.39,0.072,0.556c0.049,0.167,0.126,0.309,0.231,0.425s0.241,0.205,0.408,0.266
		c0.166,0.061,0.366,0.092,0.599,0.092c0.236,0,0.444-0.018,0.623-0.052s0.334-0.071,0.465-0.112s0.239-0.079,0.325-0.113
		s0.155-0.051,0.209-0.051c0.032,0,0.059,0.006,0.08,0.019s0.04,0.035,0.055,0.067c0.014,0.032,0.023,0.078,0.029,0.137
		c0.005,0.06,0.008,0.134,0.008,0.223c0,0.079-0.002,0.146-0.006,0.202c-0.003,0.056-0.009,0.103-0.016,0.142
		c-0.007,0.04-0.018,0.073-0.032,0.1c-0.015,0.027-0.033,0.053-0.057,0.078s-0.087,0.059-0.19,0.102s-0.236,0.086-0.397,0.127
		s-0.346,0.077-0.554,0.107c-0.207,0.03-0.43,0.045-0.666,0.045c-0.426,0-0.799-0.053-1.119-0.16s-0.588-0.271-0.803-0.489
		s-0.376-0.494-0.481-0.827s-0.158-0.724-0.158-1.171c0-0.426,0.056-0.811,0.167-1.152c0.11-0.342,0.271-0.632,0.482-0.87
		c0.212-0.238,0.469-0.42,0.771-0.545s0.644-0.188,1.023-0.188c0.4,0,0.743,0.059,1.028,0.177c0.284,0.118,0.519,0.282,0.7,0.491
		c0.184,0.21,0.317,0.458,0.403,0.744s0.129,0.598,0.129,0.935V11.922z M69.263,11.535c0.011-0.38-0.065-0.678-0.229-0.895
		s-0.414-0.325-0.755-0.325c-0.172,0-0.321,0.033-0.448,0.098s-0.232,0.15-0.316,0.26s-0.148,0.238-0.193,0.387
		s-0.071,0.308-0.078,0.476H69.263z"/>
	<path fill="#17635B" d="M74.446,13.985c0,0.157-0.01,0.278-0.029,0.362s-0.046,0.144-0.078,0.178s-0.08,0.064-0.143,0.091
		c-0.063,0.027-0.136,0.051-0.22,0.07s-0.176,0.034-0.274,0.046c-0.099,0.01-0.197,0.016-0.298,0.016
		c-0.269,0-0.501-0.034-0.698-0.102c-0.197-0.068-0.36-0.173-0.489-0.314s-0.224-0.32-0.284-0.535s-0.091-0.469-0.091-0.762v-2.455
		h-0.575c-0.068,0-0.12-0.042-0.155-0.126c-0.036-0.084-0.055-0.225-0.055-0.422c0-0.104,0.005-0.191,0.014-0.263
		c0.009-0.072,0.022-0.129,0.041-0.17c0.018-0.041,0.04-0.07,0.066-0.088c0.027-0.019,0.059-0.027,0.094-0.027h0.57V8.415
		c0-0.036,0.01-0.068,0.029-0.098c0.02-0.028,0.056-0.053,0.107-0.072s0.121-0.034,0.209-0.043s0.196-0.014,0.325-0.014
		c0.133,0,0.242,0.005,0.33,0.014S73,8.226,73.05,8.245s0.086,0.044,0.107,0.072c0.021,0.029,0.032,0.062,0.032,0.098v1.068h1.042
		c0.036,0,0.067,0.009,0.094,0.027c0.027,0.018,0.05,0.047,0.067,0.088s0.031,0.098,0.04,0.17c0.009,0.071,0.014,0.159,0.014,0.263
		c0,0.197-0.018,0.338-0.054,0.422s-0.088,0.126-0.156,0.126h-1.047v2.25c0,0.262,0.041,0.458,0.123,0.589
		c0.083,0.131,0.229,0.196,0.441,0.196c0.071,0,0.136-0.007,0.193-0.02c0.057-0.013,0.107-0.026,0.152-0.043
		c0.045-0.016,0.083-0.03,0.113-0.043s0.058-0.019,0.083-0.019c0.021,0,0.042,0.006,0.062,0.019s0.035,0.038,0.046,0.075
		c0.011,0.038,0.021,0.089,0.029,0.153S74.446,13.884,74.446,13.985z"/>
</g>
<path fill="#FFFFFF" d="M19.975,57.188C20.04,43.662,28.012,33.93,38.97,31.741c11.516-2.301,22.749,3.661,27.225,14.447
	c4.244,10.227,0.503,22.588-8.791,28.616c-1.748,1.134-4.035,3.402-5.676,2.134c-1.387-1.068-0.748-4.01-0.146-6.273
	c1.382-5.213,3.091-10.434,2.455-15.961c-0.213-1.855,0.873-4.354-1.637-5.266c-2.42-0.876-3.402,1.42-4.715,2.849
	c-2.074,2.254-4.149,6.183-5.903-0.356c-0.569-2.121-2.428-1.545-3.381-0.061c-1.643,2.56-2.859,5.248-0.876,8.323
	c1.521,2.359,0.618,14.146-1.017,16.262c-1.287,1.667-2.438,0.343-3.461-0.189C24.435,71.779,20.269,64.525,19.975,57.188z"/>
<path fill="#FFFFFF" d="M51.316,54.472c0.177,8.129-3.666,14.771-3.793,22.115c-0.061,3.332-2.979,2.436-4.996,2.374
	c-2.407-0.072-2.347-1.563-1.964-3.499c0.87-4.401,1.56-8.843,2.17-13.289c0.199-1.453,0.469-2.621,2.062-2.971
	C47.363,58.64,48.889,56.572,51.316,54.472z"/>
<path fill="#FFFFFF" d="M37.065,85.61c-1.957-0.355-5.008,0.532-4.895-2.669c0.11-3.096,3.029-2.372,5.063-2.401
	c4.463-0.068,8.928-0.068,13.391-0.001c2.034,0.029,4.951-0.689,5.062,2.406c0.112,3.209-2.941,2.305-4.894,2.665
	C46.218,85.61,41.642,85.61,37.065,85.61z"/>
<path fill="#FFFFFF" d="M50.52,86.688c2.148,3.237,0.879,4.591-2.603,4.648c-2.659,0.043-5.32,0.043-7.979,0
	c-3.479-0.059-4.754-1.406-2.606-4.646C41.726,86.689,46.123,86.688,50.52,86.688z"/>
<path fill="#FFFFFF" d="M43.934,97.286c-1.884-0.043-3.87-0.187-3.702-2.732c0.146-2.21,1.996-2.197,3.692-2.208
	c1.924-0.013,3.875,0.141,3.711,2.674C47.496,97.182,45.634,97.269,43.934,97.286z"/>
</svg>
